%TF.GenerationSoftware,KiCad,Pcbnew,(6.0.9)*%
%TF.CreationDate,2022-11-12T23:53:35-05:00*%
%TF.ProjectId,CurrentSense_PS,43757272-656e-4745-9365-6e73655f5053,rev?*%
%TF.SameCoordinates,Original*%
%TF.FileFunction,Legend,Bot*%
%TF.FilePolarity,Positive*%
%FSLAX46Y46*%
G04 Gerber Fmt 4.6, Leading zero omitted, Abs format (unit mm)*
G04 Created by KiCad (PCBNEW (6.0.9)) date 2022-11-12 23:53:35*
%MOMM*%
%LPD*%
G01*
G04 APERTURE LIST*
%ADD10C,0.120000*%
%ADD11C,0.150000*%
%ADD12C,0.250000*%
G04 APERTURE END LIST*
D10*
X72446057Y-99693000D02*
X72088914Y-99693000D01*
X72517485Y-99907285D02*
X72267485Y-99157285D01*
X72017485Y-99907285D01*
X71767485Y-99407285D02*
X71767485Y-99907285D01*
X71767485Y-99478714D02*
X71731771Y-99443000D01*
X71660342Y-99407285D01*
X71553200Y-99407285D01*
X71481771Y-99443000D01*
X71446057Y-99514428D01*
X71446057Y-99907285D01*
X71196057Y-99407285D02*
X70910342Y-99407285D01*
X71088914Y-99157285D02*
X71088914Y-99800142D01*
X71053200Y-99871571D01*
X70981771Y-99907285D01*
X70910342Y-99907285D01*
X70660342Y-99907285D02*
X70660342Y-99157285D01*
X70338914Y-99907285D02*
X70338914Y-99514428D01*
X70374628Y-99443000D01*
X70446057Y-99407285D01*
X70553200Y-99407285D01*
X70624628Y-99443000D01*
X70660342Y-99478714D01*
X69874628Y-99907285D02*
X69946057Y-99871571D01*
X69981771Y-99835857D01*
X70017485Y-99764428D01*
X70017485Y-99550142D01*
X69981771Y-99478714D01*
X69946057Y-99443000D01*
X69874628Y-99407285D01*
X69767485Y-99407285D01*
X69696057Y-99443000D01*
X69660342Y-99478714D01*
X69624628Y-99550142D01*
X69624628Y-99764428D01*
X69660342Y-99835857D01*
X69696057Y-99871571D01*
X69767485Y-99907285D01*
X69874628Y-99907285D01*
X69303200Y-99407285D02*
X69303200Y-99907285D01*
X69303200Y-99478714D02*
X69267485Y-99443000D01*
X69196057Y-99407285D01*
X69088914Y-99407285D01*
X69017485Y-99443000D01*
X68981771Y-99514428D01*
X68981771Y-99907285D01*
X68696057Y-99407285D02*
X68517485Y-99907285D01*
X68338914Y-99407285D02*
X68517485Y-99907285D01*
X68588914Y-100085857D01*
X68624628Y-100121571D01*
X68696057Y-100157285D01*
X68124628Y-99157285D02*
X67624628Y-99157285D01*
X68124628Y-99907285D01*
X67624628Y-99907285D01*
D11*
X121649857Y-84272428D02*
X120887952Y-84272428D01*
X119935571Y-83653380D02*
X120411761Y-83653380D01*
X120459380Y-84129571D01*
X120411761Y-84081952D01*
X120316523Y-84034333D01*
X120078428Y-84034333D01*
X119983190Y-84081952D01*
X119935571Y-84129571D01*
X119887952Y-84224809D01*
X119887952Y-84462904D01*
X119935571Y-84558142D01*
X119983190Y-84605761D01*
X120078428Y-84653380D01*
X120316523Y-84653380D01*
X120411761Y-84605761D01*
X120459380Y-84558142D01*
X119602238Y-83653380D02*
X119268904Y-84653380D01*
X118935571Y-83653380D01*
X118649857Y-84367666D02*
X118173666Y-84367666D01*
X118745095Y-84653380D02*
X118411761Y-83653380D01*
X118078428Y-84653380D01*
X117792714Y-84367666D02*
X117316523Y-84367666D01*
X117887952Y-84653380D02*
X117554619Y-83653380D01*
X117221285Y-84653380D01*
X121970704Y-86393400D02*
X122065942Y-86345780D01*
X122208800Y-86345780D01*
X122351657Y-86393400D01*
X122446895Y-86488638D01*
X122494514Y-86583876D01*
X122542133Y-86774352D01*
X122542133Y-86917209D01*
X122494514Y-87107685D01*
X122446895Y-87202923D01*
X122351657Y-87298161D01*
X122208800Y-87345780D01*
X122113561Y-87345780D01*
X121970704Y-87298161D01*
X121923085Y-87250542D01*
X121923085Y-86917209D01*
X122113561Y-86917209D01*
X121494514Y-87345780D02*
X121494514Y-86345780D01*
X120923085Y-87345780D01*
X120923085Y-86345780D01*
X120446895Y-87345780D02*
X120446895Y-86345780D01*
X120208800Y-86345780D01*
X120065942Y-86393400D01*
X119970704Y-86488638D01*
X119923085Y-86583876D01*
X119875466Y-86774352D01*
X119875466Y-86917209D01*
X119923085Y-87107685D01*
X119970704Y-87202923D01*
X120065942Y-87298161D01*
X120208800Y-87345780D01*
X120446895Y-87345780D01*
X122634047Y-77033428D02*
X121872142Y-77033428D01*
X122253095Y-77414380D02*
X122253095Y-76652476D01*
X120872142Y-77414380D02*
X121443571Y-77414380D01*
X121157857Y-77414380D02*
X121157857Y-76414380D01*
X121253095Y-76557238D01*
X121348333Y-76652476D01*
X121443571Y-76700095D01*
X119967380Y-76414380D02*
X120443571Y-76414380D01*
X120491190Y-76890571D01*
X120443571Y-76842952D01*
X120348333Y-76795333D01*
X120110238Y-76795333D01*
X120015000Y-76842952D01*
X119967380Y-76890571D01*
X119919761Y-76985809D01*
X119919761Y-77223904D01*
X119967380Y-77319142D01*
X120015000Y-77366761D01*
X120110238Y-77414380D01*
X120348333Y-77414380D01*
X120443571Y-77366761D01*
X120491190Y-77319142D01*
X119634047Y-76414380D02*
X119300714Y-77414380D01*
X118967380Y-76414380D01*
X118681666Y-77128666D02*
X118205476Y-77128666D01*
X118776904Y-77414380D02*
X118443571Y-76414380D01*
X118110238Y-77414380D01*
X117824523Y-77128666D02*
X117348333Y-77128666D01*
X117919761Y-77414380D02*
X117586428Y-76414380D01*
X117253095Y-77414380D01*
X122538857Y-89479428D02*
X121776952Y-89479428D01*
X122157904Y-89860380D02*
X122157904Y-89098476D01*
X120824571Y-88860380D02*
X121300761Y-88860380D01*
X121348380Y-89336571D01*
X121300761Y-89288952D01*
X121205523Y-89241333D01*
X120967428Y-89241333D01*
X120872190Y-89288952D01*
X120824571Y-89336571D01*
X120776952Y-89431809D01*
X120776952Y-89669904D01*
X120824571Y-89765142D01*
X120872190Y-89812761D01*
X120967428Y-89860380D01*
X121205523Y-89860380D01*
X121300761Y-89812761D01*
X121348380Y-89765142D01*
X120491238Y-88860380D02*
X120157904Y-89860380D01*
X119824571Y-88860380D01*
X119538857Y-89574666D02*
X119062666Y-89574666D01*
X119634095Y-89860380D02*
X119300761Y-88860380D01*
X118967428Y-89860380D01*
X118681714Y-89574666D02*
X118205523Y-89574666D01*
X118776952Y-89860380D02*
X118443619Y-88860380D01*
X118110285Y-89860380D01*
X67000238Y-70699380D02*
X67476428Y-70699380D01*
X67524047Y-71175571D01*
X67476428Y-71127952D01*
X67381190Y-71080333D01*
X67143095Y-71080333D01*
X67047857Y-71127952D01*
X67000238Y-71175571D01*
X66952619Y-71270809D01*
X66952619Y-71508904D01*
X67000238Y-71604142D01*
X67047857Y-71651761D01*
X67143095Y-71699380D01*
X67381190Y-71699380D01*
X67476428Y-71651761D01*
X67524047Y-71604142D01*
X66666904Y-70699380D02*
X66333571Y-71699380D01*
X66000238Y-70699380D01*
X65714523Y-71413666D02*
X65238333Y-71413666D01*
X65809761Y-71699380D02*
X65476428Y-70699380D01*
X65143095Y-71699380D01*
X64238333Y-71604142D02*
X64285952Y-71651761D01*
X64428809Y-71699380D01*
X64524047Y-71699380D01*
X64666904Y-71651761D01*
X64762142Y-71556523D01*
X64809761Y-71461285D01*
X64857380Y-71270809D01*
X64857380Y-71127952D01*
X64809761Y-70937476D01*
X64762142Y-70842238D01*
X64666904Y-70747000D01*
X64524047Y-70699380D01*
X64428809Y-70699380D01*
X64285952Y-70747000D01*
X64238333Y-70794619D01*
X63285952Y-71699380D02*
X63857380Y-71699380D01*
X63571666Y-71699380D02*
X63571666Y-70699380D01*
X63666904Y-70842238D01*
X63762142Y-70937476D01*
X63857380Y-70985095D01*
X121999047Y-71826428D02*
X121237142Y-71826428D01*
X120237142Y-72207380D02*
X120808571Y-72207380D01*
X120522857Y-72207380D02*
X120522857Y-71207380D01*
X120618095Y-71350238D01*
X120713333Y-71445476D01*
X120808571Y-71493095D01*
X119332380Y-71207380D02*
X119808571Y-71207380D01*
X119856190Y-71683571D01*
X119808571Y-71635952D01*
X119713333Y-71588333D01*
X119475238Y-71588333D01*
X119380000Y-71635952D01*
X119332380Y-71683571D01*
X119284761Y-71778809D01*
X119284761Y-72016904D01*
X119332380Y-72112142D01*
X119380000Y-72159761D01*
X119475238Y-72207380D01*
X119713333Y-72207380D01*
X119808571Y-72159761D01*
X119856190Y-72112142D01*
X118999047Y-71207380D02*
X118665714Y-72207380D01*
X118332380Y-71207380D01*
X118046666Y-71921666D02*
X117570476Y-71921666D01*
X118141904Y-72207380D02*
X117808571Y-71207380D01*
X117475238Y-72207380D01*
X117189523Y-71921666D02*
X116713333Y-71921666D01*
X117284761Y-72207380D02*
X116951428Y-71207380D01*
X116618095Y-72207380D01*
X67174809Y-92781380D02*
X67746238Y-92781380D01*
X67460523Y-92781380D02*
X67460523Y-91781380D01*
X67555761Y-91924238D01*
X67651000Y-92019476D01*
X67746238Y-92067095D01*
X66270047Y-91781380D02*
X66746238Y-91781380D01*
X66793857Y-92257571D01*
X66746238Y-92209952D01*
X66651000Y-92162333D01*
X66412904Y-92162333D01*
X66317666Y-92209952D01*
X66270047Y-92257571D01*
X66222428Y-92352809D01*
X66222428Y-92590904D01*
X66270047Y-92686142D01*
X66317666Y-92733761D01*
X66412904Y-92781380D01*
X66651000Y-92781380D01*
X66746238Y-92733761D01*
X66793857Y-92686142D01*
X65936714Y-91781380D02*
X65603380Y-92781380D01*
X65270047Y-91781380D01*
X64984333Y-92495666D02*
X64508142Y-92495666D01*
X65079571Y-92781380D02*
X64746238Y-91781380D01*
X64412904Y-92781380D01*
X63508142Y-92686142D02*
X63555761Y-92733761D01*
X63698619Y-92781380D01*
X63793857Y-92781380D01*
X63936714Y-92733761D01*
X64031952Y-92638523D01*
X64079571Y-92543285D01*
X64127190Y-92352809D01*
X64127190Y-92209952D01*
X64079571Y-92019476D01*
X64031952Y-91924238D01*
X63936714Y-91829000D01*
X63793857Y-91781380D01*
X63698619Y-91781380D01*
X63555761Y-91829000D01*
X63508142Y-91876619D01*
X63127190Y-91876619D02*
X63079571Y-91829000D01*
X62984333Y-91781380D01*
X62746238Y-91781380D01*
X62651000Y-91829000D01*
X62603380Y-91876619D01*
X62555761Y-91971857D01*
X62555761Y-92067095D01*
X62603380Y-92209952D01*
X63174809Y-92781380D01*
X62555761Y-92781380D01*
X67301809Y-83637380D02*
X67873238Y-83637380D01*
X67587523Y-83637380D02*
X67587523Y-82637380D01*
X67682761Y-82780238D01*
X67778000Y-82875476D01*
X67873238Y-82923095D01*
X66397047Y-82637380D02*
X66873238Y-82637380D01*
X66920857Y-83113571D01*
X66873238Y-83065952D01*
X66778000Y-83018333D01*
X66539904Y-83018333D01*
X66444666Y-83065952D01*
X66397047Y-83113571D01*
X66349428Y-83208809D01*
X66349428Y-83446904D01*
X66397047Y-83542142D01*
X66444666Y-83589761D01*
X66539904Y-83637380D01*
X66778000Y-83637380D01*
X66873238Y-83589761D01*
X66920857Y-83542142D01*
X66063714Y-82637380D02*
X65730380Y-83637380D01*
X65397047Y-82637380D01*
X65111333Y-83351666D02*
X64635142Y-83351666D01*
X65206571Y-83637380D02*
X64873238Y-82637380D01*
X64539904Y-83637380D01*
X63635142Y-83542142D02*
X63682761Y-83589761D01*
X63825619Y-83637380D01*
X63920857Y-83637380D01*
X64063714Y-83589761D01*
X64158952Y-83494523D01*
X64206571Y-83399285D01*
X64254190Y-83208809D01*
X64254190Y-83065952D01*
X64206571Y-82875476D01*
X64158952Y-82780238D01*
X64063714Y-82685000D01*
X63920857Y-82637380D01*
X63825619Y-82637380D01*
X63682761Y-82685000D01*
X63635142Y-82732619D01*
X62682761Y-83637380D02*
X63254190Y-83637380D01*
X62968476Y-83637380D02*
X62968476Y-82637380D01*
X63063714Y-82780238D01*
X63158952Y-82875476D01*
X63254190Y-82923095D01*
X122046904Y-73922000D02*
X122142142Y-73874380D01*
X122285000Y-73874380D01*
X122427857Y-73922000D01*
X122523095Y-74017238D01*
X122570714Y-74112476D01*
X122618333Y-74302952D01*
X122618333Y-74445809D01*
X122570714Y-74636285D01*
X122523095Y-74731523D01*
X122427857Y-74826761D01*
X122285000Y-74874380D01*
X122189761Y-74874380D01*
X122046904Y-74826761D01*
X121999285Y-74779142D01*
X121999285Y-74445809D01*
X122189761Y-74445809D01*
X121570714Y-74874380D02*
X121570714Y-73874380D01*
X120999285Y-74874380D01*
X120999285Y-73874380D01*
X120523095Y-74874380D02*
X120523095Y-73874380D01*
X120285000Y-73874380D01*
X120142142Y-73922000D01*
X120046904Y-74017238D01*
X119999285Y-74112476D01*
X119951666Y-74302952D01*
X119951666Y-74445809D01*
X119999285Y-74636285D01*
X120046904Y-74731523D01*
X120142142Y-74826761D01*
X120285000Y-74874380D01*
X120523095Y-74874380D01*
X68373333Y-88082380D02*
X68373333Y-87082380D01*
X68040000Y-87796666D01*
X67706666Y-87082380D01*
X67706666Y-88082380D01*
X67230476Y-88082380D02*
X67230476Y-87082380D01*
X66754285Y-88082380D02*
X66754285Y-87082380D01*
X66516190Y-87082380D01*
X66373333Y-87130000D01*
X66278095Y-87225238D01*
X66230476Y-87320476D01*
X66182857Y-87510952D01*
X66182857Y-87653809D01*
X66230476Y-87844285D01*
X66278095Y-87939523D01*
X66373333Y-88034761D01*
X66516190Y-88082380D01*
X66754285Y-88082380D01*
X65992380Y-88177619D02*
X65230476Y-88177619D01*
X64992380Y-88082380D02*
X64992380Y-87082380D01*
X64611428Y-87082380D01*
X64516190Y-87130000D01*
X64468571Y-87177619D01*
X64420952Y-87272857D01*
X64420952Y-87415714D01*
X64468571Y-87510952D01*
X64516190Y-87558571D01*
X64611428Y-87606190D01*
X64992380Y-87606190D01*
X64135238Y-87082380D02*
X63563809Y-87082380D01*
X63849523Y-88082380D02*
X63849523Y-87082380D01*
D12*
X113862285Y-91457857D02*
X113362285Y-91457857D01*
X113148000Y-92243571D02*
X113862285Y-92243571D01*
X113862285Y-90743571D01*
X113148000Y-90743571D01*
X112576571Y-92172142D02*
X112362285Y-92243571D01*
X112005142Y-92243571D01*
X111862285Y-92172142D01*
X111790857Y-92100714D01*
X111719428Y-91957857D01*
X111719428Y-91815000D01*
X111790857Y-91672142D01*
X111862285Y-91600714D01*
X112005142Y-91529285D01*
X112290857Y-91457857D01*
X112433714Y-91386428D01*
X112505142Y-91315000D01*
X112576571Y-91172142D01*
X112576571Y-91029285D01*
X112505142Y-90886428D01*
X112433714Y-90815000D01*
X112290857Y-90743571D01*
X111933714Y-90743571D01*
X111719428Y-90815000D01*
X111076571Y-92243571D02*
X111076571Y-90743571D01*
X110505142Y-90743571D01*
X110362285Y-90815000D01*
X110290857Y-90886428D01*
X110219428Y-91029285D01*
X110219428Y-91243571D01*
X110290857Y-91386428D01*
X110362285Y-91457857D01*
X110505142Y-91529285D01*
X111076571Y-91529285D01*
X109719428Y-90743571D02*
X108790857Y-90743571D01*
X109290857Y-91315000D01*
X109076571Y-91315000D01*
X108933714Y-91386428D01*
X108862285Y-91457857D01*
X108790857Y-91600714D01*
X108790857Y-91957857D01*
X108862285Y-92100714D01*
X108933714Y-92172142D01*
X109076571Y-92243571D01*
X109505142Y-92243571D01*
X109648000Y-92172142D01*
X109719428Y-92100714D01*
X108219428Y-90886428D02*
X108148000Y-90815000D01*
X108005142Y-90743571D01*
X107648000Y-90743571D01*
X107505142Y-90815000D01*
X107433714Y-90886428D01*
X107362285Y-91029285D01*
X107362285Y-91172142D01*
X107433714Y-91386428D01*
X108290857Y-92243571D01*
X107362285Y-92243571D01*
X105719428Y-90743571D02*
X105362285Y-92243571D01*
X105076571Y-91172142D01*
X104790857Y-92243571D01*
X104433714Y-90743571D01*
X103219428Y-92243571D02*
X103219428Y-91457857D01*
X103290857Y-91315000D01*
X103433714Y-91243571D01*
X103719428Y-91243571D01*
X103862285Y-91315000D01*
X103219428Y-92172142D02*
X103362285Y-92243571D01*
X103719428Y-92243571D01*
X103862285Y-92172142D01*
X103933714Y-92029285D01*
X103933714Y-91886428D01*
X103862285Y-91743571D01*
X103719428Y-91672142D01*
X103362285Y-91672142D01*
X103219428Y-91600714D01*
X102719428Y-91243571D02*
X102148000Y-91243571D01*
X102505142Y-90743571D02*
X102505142Y-92029285D01*
X102433714Y-92172142D01*
X102290857Y-92243571D01*
X102148000Y-92243571D01*
X101862285Y-91243571D02*
X101290857Y-91243571D01*
X101648000Y-90743571D02*
X101648000Y-92029285D01*
X101576571Y-92172142D01*
X101433714Y-92243571D01*
X101290857Y-92243571D01*
X100790857Y-92243571D02*
X100790857Y-90743571D01*
X100290857Y-91815000D01*
X99790857Y-90743571D01*
X99790857Y-92243571D01*
X98505142Y-92172142D02*
X98648000Y-92243571D01*
X98933714Y-92243571D01*
X99076571Y-92172142D01*
X99148000Y-92029285D01*
X99148000Y-91457857D01*
X99076571Y-91315000D01*
X98933714Y-91243571D01*
X98648000Y-91243571D01*
X98505142Y-91315000D01*
X98433714Y-91457857D01*
X98433714Y-91600714D01*
X99148000Y-91743571D01*
X98005142Y-91243571D02*
X97433714Y-91243571D01*
X97790857Y-90743571D02*
X97790857Y-92029285D01*
X97719428Y-92172142D01*
X97576571Y-92243571D01*
X97433714Y-92243571D01*
X96362285Y-92172142D02*
X96505142Y-92243571D01*
X96790857Y-92243571D01*
X96933714Y-92172142D01*
X97005142Y-92029285D01*
X97005142Y-91457857D01*
X96933714Y-91315000D01*
X96790857Y-91243571D01*
X96505142Y-91243571D01*
X96362285Y-91315000D01*
X96290857Y-91457857D01*
X96290857Y-91600714D01*
X97005142Y-91743571D01*
X95648000Y-92243571D02*
X95648000Y-91243571D01*
X95648000Y-91529285D02*
X95576571Y-91386428D01*
X95505142Y-91315000D01*
X95362285Y-91243571D01*
X95219428Y-91243571D01*
X111898000Y-94658571D02*
X111898000Y-93158571D01*
X111326571Y-93158571D01*
X111183714Y-93230000D01*
X111112285Y-93301428D01*
X111040857Y-93444285D01*
X111040857Y-93658571D01*
X111112285Y-93801428D01*
X111183714Y-93872857D01*
X111326571Y-93944285D01*
X111898000Y-93944285D01*
X110183714Y-94658571D02*
X110326571Y-94587142D01*
X110398000Y-94515714D01*
X110469428Y-94372857D01*
X110469428Y-93944285D01*
X110398000Y-93801428D01*
X110326571Y-93730000D01*
X110183714Y-93658571D01*
X109969428Y-93658571D01*
X109826571Y-93730000D01*
X109755142Y-93801428D01*
X109683714Y-93944285D01*
X109683714Y-94372857D01*
X109755142Y-94515714D01*
X109826571Y-94587142D01*
X109969428Y-94658571D01*
X110183714Y-94658571D01*
X109183714Y-93658571D02*
X108898000Y-94658571D01*
X108612285Y-93944285D01*
X108326571Y-94658571D01*
X108040857Y-93658571D01*
X106898000Y-94587142D02*
X107040857Y-94658571D01*
X107326571Y-94658571D01*
X107469428Y-94587142D01*
X107540857Y-94444285D01*
X107540857Y-93872857D01*
X107469428Y-93730000D01*
X107326571Y-93658571D01*
X107040857Y-93658571D01*
X106898000Y-93730000D01*
X106826571Y-93872857D01*
X106826571Y-94015714D01*
X107540857Y-94158571D01*
X106183714Y-94658571D02*
X106183714Y-93658571D01*
X106183714Y-93944285D02*
X106112285Y-93801428D01*
X106040857Y-93730000D01*
X105898000Y-93658571D01*
X105755142Y-93658571D01*
X104183714Y-94587142D02*
X103969428Y-94658571D01*
X103612285Y-94658571D01*
X103469428Y-94587142D01*
X103398000Y-94515714D01*
X103326571Y-94372857D01*
X103326571Y-94230000D01*
X103398000Y-94087142D01*
X103469428Y-94015714D01*
X103612285Y-93944285D01*
X103898000Y-93872857D01*
X104040857Y-93801428D01*
X104112285Y-93730000D01*
X104183714Y-93587142D01*
X104183714Y-93444285D01*
X104112285Y-93301428D01*
X104040857Y-93230000D01*
X103898000Y-93158571D01*
X103540857Y-93158571D01*
X103326571Y-93230000D01*
X102040857Y-93658571D02*
X102040857Y-94658571D01*
X102683714Y-93658571D02*
X102683714Y-94444285D01*
X102612285Y-94587142D01*
X102469428Y-94658571D01*
X102255142Y-94658571D01*
X102112285Y-94587142D01*
X102040857Y-94515714D01*
X101326571Y-93658571D02*
X101326571Y-95158571D01*
X101326571Y-93730000D02*
X101183714Y-93658571D01*
X100898000Y-93658571D01*
X100755142Y-93730000D01*
X100683714Y-93801428D01*
X100612285Y-93944285D01*
X100612285Y-94372857D01*
X100683714Y-94515714D01*
X100755142Y-94587142D01*
X100898000Y-94658571D01*
X101183714Y-94658571D01*
X101326571Y-94587142D01*
X99969428Y-93658571D02*
X99969428Y-95158571D01*
X99969428Y-93730000D02*
X99826571Y-93658571D01*
X99540857Y-93658571D01*
X99398000Y-93730000D01*
X99326571Y-93801428D01*
X99255142Y-93944285D01*
X99255142Y-94372857D01*
X99326571Y-94515714D01*
X99398000Y-94587142D01*
X99540857Y-94658571D01*
X99826571Y-94658571D01*
X99969428Y-94587142D01*
X98398000Y-94658571D02*
X98540857Y-94587142D01*
X98612285Y-94444285D01*
X98612285Y-93158571D01*
X97969428Y-93658571D02*
X97612285Y-94658571D01*
X97255142Y-93658571D02*
X97612285Y-94658571D01*
X97755142Y-95015714D01*
X97826571Y-95087142D01*
X97969428Y-95158571D01*
X117398000Y-95716428D02*
X117326571Y-95645000D01*
X117183714Y-95573571D01*
X116826571Y-95573571D01*
X116683714Y-95645000D01*
X116612285Y-95716428D01*
X116540857Y-95859285D01*
X116540857Y-96002142D01*
X116612285Y-96216428D01*
X117469428Y-97073571D01*
X116540857Y-97073571D01*
X115612285Y-95573571D02*
X115469428Y-95573571D01*
X115326571Y-95645000D01*
X115255142Y-95716428D01*
X115183714Y-95859285D01*
X115112285Y-96145000D01*
X115112285Y-96502142D01*
X115183714Y-96787857D01*
X115255142Y-96930714D01*
X115326571Y-97002142D01*
X115469428Y-97073571D01*
X115612285Y-97073571D01*
X115755142Y-97002142D01*
X115826571Y-96930714D01*
X115898000Y-96787857D01*
X115969428Y-96502142D01*
X115969428Y-96145000D01*
X115898000Y-95859285D01*
X115826571Y-95716428D01*
X115755142Y-95645000D01*
X115612285Y-95573571D01*
X114540857Y-95716428D02*
X114469428Y-95645000D01*
X114326571Y-95573571D01*
X113969428Y-95573571D01*
X113826571Y-95645000D01*
X113755142Y-95716428D01*
X113683714Y-95859285D01*
X113683714Y-96002142D01*
X113755142Y-96216428D01*
X114612285Y-97073571D01*
X113683714Y-97073571D01*
X113112285Y-95716428D02*
X113040857Y-95645000D01*
X112898000Y-95573571D01*
X112540857Y-95573571D01*
X112398000Y-95645000D01*
X112326571Y-95716428D01*
X112255142Y-95859285D01*
X112255142Y-96002142D01*
X112326571Y-96216428D01*
X113183714Y-97073571D01*
X112255142Y-97073571D01*
X111612285Y-96502142D02*
X110469428Y-96502142D01*
X108969428Y-97073571D02*
X109826571Y-97073571D01*
X109398000Y-97073571D02*
X109398000Y-95573571D01*
X109540857Y-95787857D01*
X109683714Y-95930714D01*
X109826571Y-96002142D01*
X107540857Y-97073571D02*
X108398000Y-97073571D01*
X107969428Y-97073571D02*
X107969428Y-95573571D01*
X108112285Y-95787857D01*
X108255142Y-95930714D01*
X108398000Y-96002142D01*
X106898000Y-96502142D02*
X105755142Y-96502142D01*
X104255142Y-97073571D02*
X105112285Y-97073571D01*
X104683714Y-97073571D02*
X104683714Y-95573571D01*
X104826571Y-95787857D01*
X104969428Y-95930714D01*
X105112285Y-96002142D01*
X103683714Y-95716428D02*
X103612285Y-95645000D01*
X103469428Y-95573571D01*
X103112285Y-95573571D01*
X102969428Y-95645000D01*
X102898000Y-95716428D01*
X102826571Y-95859285D01*
X102826571Y-96002142D01*
X102898000Y-96216428D01*
X103755142Y-97073571D01*
X102826571Y-97073571D01*
X99040857Y-97073571D02*
X99540857Y-96359285D01*
X99898000Y-97073571D02*
X99898000Y-95573571D01*
X99326571Y-95573571D01*
X99183714Y-95645000D01*
X99112285Y-95716428D01*
X99040857Y-95859285D01*
X99040857Y-96073571D01*
X99112285Y-96216428D01*
X99183714Y-96287857D01*
X99326571Y-96359285D01*
X99898000Y-96359285D01*
X97826571Y-97002142D02*
X97969428Y-97073571D01*
X98255142Y-97073571D01*
X98398000Y-97002142D01*
X98469428Y-96859285D01*
X98469428Y-96287857D01*
X98398000Y-96145000D01*
X98255142Y-96073571D01*
X97969428Y-96073571D01*
X97826571Y-96145000D01*
X97755142Y-96287857D01*
X97755142Y-96430714D01*
X98469428Y-96573571D01*
X97255142Y-96073571D02*
X96898000Y-97073571D01*
X96540857Y-96073571D01*
X94040857Y-97073571D02*
X94898000Y-97073571D01*
X94469428Y-97073571D02*
X94469428Y-95573571D01*
X94612285Y-95787857D01*
X94755142Y-95930714D01*
X94898000Y-96002142D01*
X93398000Y-96930714D02*
X93326571Y-97002142D01*
X93398000Y-97073571D01*
X93469428Y-97002142D01*
X93398000Y-96930714D01*
X93398000Y-97073571D01*
X92398000Y-95573571D02*
X92255142Y-95573571D01*
X92112285Y-95645000D01*
X92040857Y-95716428D01*
X91969428Y-95859285D01*
X91898000Y-96145000D01*
X91898000Y-96502142D01*
X91969428Y-96787857D01*
X92040857Y-96930714D01*
X92112285Y-97002142D01*
X92255142Y-97073571D01*
X92398000Y-97073571D01*
X92540857Y-97002142D01*
X92612285Y-96930714D01*
X92683714Y-96787857D01*
X92755142Y-96502142D01*
X92755142Y-96145000D01*
X92683714Y-95859285D01*
X92612285Y-95716428D01*
X92540857Y-95645000D01*
X92398000Y-95573571D01*
D11*
X101163428Y-64691000D02*
X101163428Y-65452904D01*
X101544380Y-65071952D02*
X100782476Y-65071952D01*
X100544380Y-65833857D02*
X100544380Y-66452904D01*
X100925333Y-66119571D01*
X100925333Y-66262428D01*
X100972952Y-66357666D01*
X101020571Y-66405285D01*
X101115809Y-66452904D01*
X101353904Y-66452904D01*
X101449142Y-66405285D01*
X101496761Y-66357666D01*
X101544380Y-66262428D01*
X101544380Y-65976714D01*
X101496761Y-65881476D01*
X101449142Y-65833857D01*
X101449142Y-66881476D02*
X101496761Y-66929095D01*
X101544380Y-66881476D01*
X101496761Y-66833857D01*
X101449142Y-66881476D01*
X101544380Y-66881476D01*
X100544380Y-67262428D02*
X100544380Y-67881476D01*
X100925333Y-67548142D01*
X100925333Y-67691000D01*
X100972952Y-67786238D01*
X101020571Y-67833857D01*
X101115809Y-67881476D01*
X101353904Y-67881476D01*
X101449142Y-67833857D01*
X101496761Y-67786238D01*
X101544380Y-67691000D01*
X101544380Y-67405285D01*
X101496761Y-67310047D01*
X101449142Y-67262428D01*
X100544380Y-68167190D02*
X101544380Y-68500523D01*
X100544380Y-68833857D01*
X101544380Y-69167190D02*
X100544380Y-69167190D01*
X100544380Y-69405285D01*
X100592000Y-69548142D01*
X100687238Y-69643380D01*
X100782476Y-69691000D01*
X100972952Y-69738619D01*
X101115809Y-69738619D01*
X101306285Y-69691000D01*
X101401523Y-69643380D01*
X101496761Y-69548142D01*
X101544380Y-69405285D01*
X101544380Y-69167190D01*
X101544380Y-70167190D02*
X100544380Y-70167190D01*
X100544380Y-70405285D01*
X100592000Y-70548142D01*
X100687238Y-70643380D01*
X100782476Y-70691000D01*
X100972952Y-70738619D01*
X101115809Y-70738619D01*
X101306285Y-70691000D01*
X101401523Y-70643380D01*
X101496761Y-70548142D01*
X101544380Y-70405285D01*
X101544380Y-70167190D01*
X90114428Y-65532285D02*
X90114428Y-66294190D01*
X90495380Y-65913238D02*
X89733476Y-65913238D01*
X89495380Y-67246571D02*
X89495380Y-66770380D01*
X89971571Y-66722761D01*
X89923952Y-66770380D01*
X89876333Y-66865619D01*
X89876333Y-67103714D01*
X89923952Y-67198952D01*
X89971571Y-67246571D01*
X90066809Y-67294190D01*
X90304904Y-67294190D01*
X90400142Y-67246571D01*
X90447761Y-67198952D01*
X90495380Y-67103714D01*
X90495380Y-66865619D01*
X90447761Y-66770380D01*
X90400142Y-66722761D01*
X89495380Y-67579904D02*
X90495380Y-67913238D01*
X89495380Y-68246571D01*
X90495380Y-68579904D02*
X89495380Y-68579904D01*
X89495380Y-68818000D01*
X89543000Y-68960857D01*
X89638238Y-69056095D01*
X89733476Y-69103714D01*
X89923952Y-69151333D01*
X90066809Y-69151333D01*
X90257285Y-69103714D01*
X90352523Y-69056095D01*
X90447761Y-68960857D01*
X90495380Y-68818000D01*
X90495380Y-68579904D01*
X90495380Y-69579904D02*
X89495380Y-69579904D01*
X89495380Y-69818000D01*
X89543000Y-69960857D01*
X89638238Y-70056095D01*
X89733476Y-70103714D01*
X89923952Y-70151333D01*
X90066809Y-70151333D01*
X90257285Y-70103714D01*
X90352523Y-70056095D01*
X90447761Y-69960857D01*
X90495380Y-69818000D01*
X90495380Y-69579904D01*
X96265904Y-66429000D02*
X96361142Y-66381380D01*
X96504000Y-66381380D01*
X96646857Y-66429000D01*
X96742095Y-66524238D01*
X96789714Y-66619476D01*
X96837333Y-66809952D01*
X96837333Y-66952809D01*
X96789714Y-67143285D01*
X96742095Y-67238523D01*
X96646857Y-67333761D01*
X96504000Y-67381380D01*
X96408761Y-67381380D01*
X96265904Y-67333761D01*
X96218285Y-67286142D01*
X96218285Y-66952809D01*
X96408761Y-66952809D01*
X95789714Y-67381380D02*
X95789714Y-66381380D01*
X95218285Y-67381380D01*
X95218285Y-66381380D01*
X94742095Y-67381380D02*
X94742095Y-66381380D01*
X94504000Y-66381380D01*
X94361142Y-66429000D01*
X94265904Y-66524238D01*
X94218285Y-66619476D01*
X94170666Y-66809952D01*
X94170666Y-66952809D01*
X94218285Y-67143285D01*
X94265904Y-67238523D01*
X94361142Y-67333761D01*
X94504000Y-67381380D01*
X94742095Y-67381380D01*
X67127238Y-74255380D02*
X67603428Y-74255380D01*
X67651047Y-74731571D01*
X67603428Y-74683952D01*
X67508190Y-74636333D01*
X67270095Y-74636333D01*
X67174857Y-74683952D01*
X67127238Y-74731571D01*
X67079619Y-74826809D01*
X67079619Y-75064904D01*
X67127238Y-75160142D01*
X67174857Y-75207761D01*
X67270095Y-75255380D01*
X67508190Y-75255380D01*
X67603428Y-75207761D01*
X67651047Y-75160142D01*
X66793904Y-74255380D02*
X66460571Y-75255380D01*
X66127238Y-74255380D01*
X65841523Y-74969666D02*
X65365333Y-74969666D01*
X65936761Y-75255380D02*
X65603428Y-74255380D01*
X65270095Y-75255380D01*
X64365333Y-75160142D02*
X64412952Y-75207761D01*
X64555809Y-75255380D01*
X64651047Y-75255380D01*
X64793904Y-75207761D01*
X64889142Y-75112523D01*
X64936761Y-75017285D01*
X64984380Y-74826809D01*
X64984380Y-74683952D01*
X64936761Y-74493476D01*
X64889142Y-74398238D01*
X64793904Y-74303000D01*
X64651047Y-74255380D01*
X64555809Y-74255380D01*
X64412952Y-74303000D01*
X64365333Y-74350619D01*
X63984380Y-74350619D02*
X63936761Y-74303000D01*
X63841523Y-74255380D01*
X63603428Y-74255380D01*
X63508190Y-74303000D01*
X63460571Y-74350619D01*
X63412952Y-74445857D01*
X63412952Y-74541095D01*
X63460571Y-74683952D01*
X64032000Y-75255380D01*
X63412952Y-75255380D01*
%TO.C,L6*%
X76276380Y-76592333D02*
X76276380Y-76116142D01*
X75276380Y-76116142D01*
X75276380Y-77354238D02*
X75276380Y-77163761D01*
X75324000Y-77068523D01*
X75371619Y-77020904D01*
X75514476Y-76925666D01*
X75704952Y-76878047D01*
X76085904Y-76878047D01*
X76181142Y-76925666D01*
X76228761Y-76973285D01*
X76276380Y-77068523D01*
X76276380Y-77259000D01*
X76228761Y-77354238D01*
X76181142Y-77401857D01*
X76085904Y-77449476D01*
X75847809Y-77449476D01*
X75752571Y-77401857D01*
X75704952Y-77354238D01*
X75657333Y-77259000D01*
X75657333Y-77068523D01*
X75704952Y-76973285D01*
X75752571Y-76925666D01*
X75847809Y-76878047D01*
%TO.C,L5*%
X117514666Y-69916380D02*
X117990857Y-69916380D01*
X117990857Y-68916380D01*
X116705142Y-68916380D02*
X117181333Y-68916380D01*
X117228952Y-69392571D01*
X117181333Y-69344952D01*
X117086095Y-69297333D01*
X116848000Y-69297333D01*
X116752761Y-69344952D01*
X116705142Y-69392571D01*
X116657523Y-69487809D01*
X116657523Y-69725904D01*
X116705142Y-69821142D01*
X116752761Y-69868761D01*
X116848000Y-69916380D01*
X117086095Y-69916380D01*
X117181333Y-69868761D01*
X117228952Y-69821142D01*
%TO.C,L4*%
X100242666Y-74996380D02*
X100718857Y-74996380D01*
X100718857Y-73996380D01*
X99480761Y-74329714D02*
X99480761Y-74996380D01*
X99718857Y-73948761D02*
X99956952Y-74663047D01*
X99337904Y-74663047D01*
D10*
%TO.C,J1*%
X62204600Y-76620000D02*
G75*
G03*
X62204600Y-76620000I-381000J0D01*
G01*
%TO.C,J3*%
X64211200Y-90220800D02*
G75*
G03*
X64211200Y-90220800I-381000J0D01*
G01*
%TO.C,J4*%
X123037600Y-71882000D02*
G75*
G03*
X123037600Y-71882000I-381000J0D01*
G01*
%TO.C,J5*%
X122987000Y-84201000D02*
G75*
G03*
X122987000Y-84201000I-381000J0D01*
G01*
%TO.C,J2*%
X89686000Y-65024000D02*
G75*
G03*
X89686000Y-65024000I-381000J0D01*
G01*
%TO.C,L6*%
X78634000Y-75923758D02*
X78634000Y-77594242D01*
X76814000Y-75923758D02*
X76814000Y-77594242D01*
%TO.C,L5*%
X116512758Y-68474000D02*
X118183242Y-68474000D01*
X116512758Y-66654000D02*
X118183242Y-66654000D01*
%TO.C,L4*%
X99240758Y-73554000D02*
X100911242Y-73554000D01*
X99240758Y-71734000D02*
X100911242Y-71734000D01*
%TD*%
M02*
