M48
; DRILL file {KiCad (6.0.9)} date Sat Nov 12 23:53:43 2022
; FORMAT={-:-/ absolute / inch / decimal}
; #@! TF.CreationDate,2022-11-12T23:53:43-05:00
; #@! TF.GenerationSoftware,Kicad,Pcbnew,(6.0.9)
; #@! TF.FileFunction,Plated,1,2,PTH
FMAT,2
INCH
; #@! TA.AperFunction,Plated,PTH,ViaDrill
T1C0.0157
; #@! TA.AperFunction,Plated,PTH,ComponentDrill
T2C0.0315
; #@! TA.AperFunction,Plated,PTH,ComponentDrill
T3C0.0380
; #@! TA.AperFunction,Plated,PTH,ComponentDrill
T4C0.0450
; #@! TA.AperFunction,Plated,PTH,ComponentDrill
T5C0.0480
; #@! TA.AperFunction,Plated,PTH,ComponentDrill
T6C0.0540
%
G90
G05
T1
X2.36Y-3.28
X2.38Y-3.66
X2.44Y-2.72
X2.54Y-2.88
X2.555Y-3.39
X2.64Y-3.84
X2.66Y-2.46
X2.66Y-2.56
X2.66Y-2.68
X2.66Y-2.9
X2.78Y-3.2
X2.86Y-2.48
X2.9Y-2.88
X2.92Y-2.72
X3.0Y-2.88
X3.06Y-3.46
X3.06Y-3.56
X3.06Y-3.88
X3.08Y-3.16
X3.24Y-2.62
X3.3Y-2.74
X3.32Y-3.62
X3.38Y-3.52
X3.42Y-2.8
X3.54Y-3.12
X3.6Y-3.64
X3.66Y-2.74
X3.68Y-3.9
X3.72Y-2.86
X3.72Y-3.42
X3.74Y-2.48
X3.76Y-2.68
X3.86Y-3.42
X3.88Y-3.9
X4.04Y-3.42
X4.04Y-3.9
X4.225Y-2.83
X4.295Y-3.08
X4.3Y-3.28
X4.44Y-3.36
X4.5Y-2.5
X4.52Y-3.08
X4.54Y-3.74
X4.56Y-3.22
X4.56Y-3.42
X4.68Y-3.84
X4.7Y-3.38
X4.7Y-3.46
X4.72Y-2.92
X4.74Y-2.5
X5.0Y-2.8
X5.0Y-3.06
X5.0Y-3.28
X5.0Y-3.54
T2
X2.93Y-3.1326
X2.93Y-3.231
X2.93Y-3.695
X2.93Y-3.7934
X3.1826Y-3.46
X3.22Y-2.8456
X3.22Y-2.944
X3.281Y-3.46
X3.52Y-3.4116
X3.52Y-3.51
X3.56Y-2.8466
X3.56Y-2.945
X4.33Y-2.56
X4.33Y-2.6584
T3
X2.434Y-2.825
X2.434Y-2.925
T4
X2.8672Y-2.607
X2.9672Y-2.607
X3.0672Y-2.607
T5
X2.438Y-3.352
X2.438Y-3.452
X2.438Y-3.552
X3.605Y-2.56
X3.705Y-2.56
X3.805Y-2.56
X3.905Y-2.56
X4.902Y-3.315
X4.902Y-3.415
X4.902Y-3.515
X4.904Y-2.83
X4.904Y-2.93
X4.904Y-3.03
T6
X3.2472Y-3.795
X3.2572Y-3.23
X3.3472Y-3.795
X3.3572Y-3.23
X3.4472Y-3.795
X3.4572Y-3.23
T0
M30
