%TF.GenerationSoftware,KiCad,Pcbnew,(6.0.9)*%
%TF.CreationDate,2022-12-07T15:22:28-05:00*%
%TF.ProjectId,Sensors,53656e73-6f72-4732-9e6b-696361645f70,rev?*%
%TF.SameCoordinates,Original*%
%TF.FileFunction,Soldermask,Bot*%
%TF.FilePolarity,Negative*%
%FSLAX46Y46*%
G04 Gerber Fmt 4.6, Leading zero omitted, Abs format (unit mm)*
G04 Created by KiCad (PCBNEW (6.0.9)) date 2022-12-07 15:22:28*
%MOMM*%
%LPD*%
G01*
G04 APERTURE LIST*
G04 Aperture macros list*
%AMRoundRect*
0 Rectangle with rounded corners*
0 $1 Rounding radius*
0 $2 $3 $4 $5 $6 $7 $8 $9 X,Y pos of 4 corners*
0 Add a 4 corners polygon primitive as box body*
4,1,4,$2,$3,$4,$5,$6,$7,$8,$9,$2,$3,0*
0 Add four circle primitives for the rounded corners*
1,1,$1+$1,$2,$3*
1,1,$1+$1,$4,$5*
1,1,$1+$1,$6,$7*
1,1,$1+$1,$8,$9*
0 Add four rect primitives between the rounded corners*
20,1,$1+$1,$2,$3,$4,$5,0*
20,1,$1+$1,$4,$5,$6,$7,0*
20,1,$1+$1,$6,$7,$8,$9,0*
20,1,$1+$1,$8,$9,$2,$3,0*%
G04 Aperture macros list end*
%ADD10R,2.489200X2.260600*%
%ADD11R,1.700000X1.700000*%
%ADD12O,1.700000X1.700000*%
%ADD13C,3.200000*%
%ADD14R,1.500000X1.500000*%
%ADD15C,1.524000*%
%ADD16C,1.440000*%
%ADD17C,1.303000*%
%ADD18C,1.500000*%
%ADD19R,2.400000X2.400000*%
%ADD20C,2.400000*%
%ADD21RoundRect,0.200000X0.200000X0.275000X-0.200000X0.275000X-0.200000X-0.275000X0.200000X-0.275000X0*%
%ADD22R,2.590800X1.003300*%
%ADD23RoundRect,0.200000X-0.200000X-0.275000X0.200000X-0.275000X0.200000X0.275000X-0.200000X0.275000X0*%
%ADD24R,1.003300X2.590800*%
%ADD25RoundRect,0.225000X0.225000X0.250000X-0.225000X0.250000X-0.225000X-0.250000X0.225000X-0.250000X0*%
%ADD26RoundRect,0.200000X0.275000X-0.200000X0.275000X0.200000X-0.275000X0.200000X-0.275000X-0.200000X0*%
%ADD27RoundRect,0.225000X-0.225000X-0.250000X0.225000X-0.250000X0.225000X0.250000X-0.225000X0.250000X0*%
%ADD28R,1.000001X0.599999*%
%ADD29R,0.400000X1.100000*%
G04 APERTURE END LIST*
D10*
%TO.C,C6*%
X145059400Y-103784400D03*
X145059400Y-109423200D03*
%TD*%
D11*
%TO.C,J2*%
X156962000Y-93965000D03*
D12*
X154422000Y-93965000D03*
X151882000Y-93965000D03*
X149342000Y-93965000D03*
X146802000Y-93965000D03*
X144262000Y-93965000D03*
X141722000Y-93965000D03*
X139182000Y-93965000D03*
X136642000Y-93965000D03*
X134102000Y-93965000D03*
X131562000Y-93965000D03*
X129022000Y-93965000D03*
X126482000Y-93965000D03*
X123942000Y-93965000D03*
X121402000Y-93965000D03*
X118862000Y-93965000D03*
X116322000Y-93965000D03*
X113782000Y-93965000D03*
X111242000Y-93965000D03*
%TD*%
D13*
%TO.C,H1*%
X111899600Y-63146800D03*
%TD*%
%TO.C,H2*%
X111899600Y-125935600D03*
%TD*%
D14*
%TO.C,TP2*%
X204520800Y-118516400D03*
%TD*%
D15*
%TO.C,U4*%
X201620000Y-84440000D03*
X194120000Y-84440000D03*
X201620000Y-99440000D03*
X201620000Y-104440000D03*
X201620000Y-109440000D03*
X194120000Y-99440000D03*
X194120000Y-104440000D03*
X194120000Y-109440000D03*
%TD*%
D16*
%TO.C,RV1*%
X173164400Y-84330400D03*
X173164400Y-86870400D03*
X173164400Y-89410400D03*
%TD*%
D17*
%TO.C,U1*%
X183625400Y-97663400D03*
X181085400Y-97663400D03*
X178545400Y-97663400D03*
X176005400Y-97663400D03*
D18*
X182815400Y-108663400D03*
X176815400Y-108663400D03*
%TD*%
D11*
%TO.C,J1*%
X156962000Y-68605000D03*
D12*
X154422000Y-68605000D03*
X151882000Y-68605000D03*
X149342000Y-68605000D03*
X146802000Y-68605000D03*
X144262000Y-68605000D03*
X141722000Y-68605000D03*
X139182000Y-68605000D03*
X136642000Y-68605000D03*
X134102000Y-68605000D03*
X131562000Y-68605000D03*
X129022000Y-68605000D03*
X126482000Y-68605000D03*
X123942000Y-68605000D03*
X121402000Y-68605000D03*
X118862000Y-68605000D03*
X116322000Y-68605000D03*
X113782000Y-68605000D03*
X111242000Y-68605000D03*
%TD*%
D19*
%TO.C,J5*%
X125730000Y-102297100D03*
D20*
X120650000Y-102297100D03*
X115570000Y-102297100D03*
%TD*%
D19*
%TO.C,J4*%
X140982600Y-121143900D03*
D20*
X135902600Y-121143900D03*
X130822600Y-121143900D03*
X125742600Y-121143900D03*
X120662600Y-121143900D03*
%TD*%
D21*
%TO.C,R11*%
X135724400Y-63246000D03*
X134074400Y-63246000D03*
%TD*%
D19*
%TO.C,J3*%
X197751600Y-120906400D03*
D20*
X192671600Y-120906400D03*
X187591600Y-120906400D03*
X182511600Y-120906400D03*
X177431600Y-120906400D03*
%TD*%
D13*
%TO.C,H3*%
X204660400Y-125935600D03*
%TD*%
D14*
%TO.C,TP1*%
X130708400Y-63296800D03*
%TD*%
D19*
%TO.C,J6*%
X186702600Y-69827000D03*
D20*
X181622600Y-69827000D03*
%TD*%
D13*
%TO.C,H4*%
X204660400Y-63146800D03*
%TD*%
D22*
%TO.C,L8*%
X192760600Y-80219550D03*
X192760600Y-77920850D03*
%TD*%
D23*
%TO.C,R8*%
X144844000Y-87884000D03*
X146494000Y-87884000D03*
%TD*%
D24*
%TO.C,L9*%
X162490150Y-92583000D03*
X160191450Y-92583000D03*
%TD*%
D25*
%TO.C,C7*%
X155543400Y-107701000D03*
X153993400Y-107701000D03*
%TD*%
D21*
%TO.C,R10*%
X148653000Y-101498400D03*
X147003000Y-101498400D03*
%TD*%
D26*
%TO.C,R9*%
X148844000Y-89471000D03*
X148844000Y-87821000D03*
%TD*%
D22*
%TO.C,L6*%
X125069600Y-111937800D03*
X125069600Y-109639100D03*
%TD*%
D27*
%TO.C,C4*%
X144894000Y-90805000D03*
X146444000Y-90805000D03*
%TD*%
D28*
%TO.C,U12*%
X145144799Y-85786001D03*
X145144799Y-84836000D03*
X145144799Y-83886002D03*
X147894799Y-83886002D03*
X147894799Y-85786001D03*
%TD*%
D25*
%TO.C,C2*%
X151143000Y-83947000D03*
X149593000Y-83947000D03*
%TD*%
D27*
%TO.C,C3*%
X141084000Y-87884000D03*
X142634000Y-87884000D03*
%TD*%
D24*
%TO.C,L7*%
X131984750Y-98704400D03*
X129686050Y-98704400D03*
%TD*%
D27*
%TO.C,C5*%
X132930600Y-89331800D03*
X134480600Y-89331800D03*
%TD*%
D29*
%TO.C,U9*%
X136286600Y-86953200D03*
X136936600Y-86953200D03*
X137586600Y-86953200D03*
X138236600Y-86953200D03*
X138236600Y-91253200D03*
X137586600Y-91253200D03*
X136936600Y-91253200D03*
X136286600Y-91253200D03*
%TD*%
M02*
