%TF.GenerationSoftware,KiCad,Pcbnew,(6.0.9)*%
%TF.CreationDate,2022-12-07T15:22:28-05:00*%
%TF.ProjectId,Sensors,53656e73-6f72-4732-9e6b-696361645f70,rev?*%
%TF.SameCoordinates,Original*%
%TF.FileFunction,Legend,Top*%
%TF.FilePolarity,Positive*%
%FSLAX46Y46*%
G04 Gerber Fmt 4.6, Leading zero omitted, Abs format (unit mm)*
G04 Created by KiCad (PCBNEW (6.0.9)) date 2022-12-07 15:22:28*
%MOMM*%
%LPD*%
G01*
G04 APERTURE LIST*
%ADD10C,0.125000*%
%ADD11C,0.291333*%
%ADD12C,0.150000*%
%ADD13C,0.100000*%
%ADD14C,0.177800*%
%ADD15C,0.254000*%
%ADD16C,0.120000*%
%ADD17C,0.127000*%
%ADD18C,0.200000*%
G04 APERTURE END LIST*
D10*
X156627447Y-95881000D02*
X156579828Y-95857190D01*
X156508400Y-95857190D01*
X156436971Y-95881000D01*
X156389352Y-95928619D01*
X156365542Y-95976238D01*
X156341733Y-96071476D01*
X156341733Y-96142904D01*
X156365542Y-96238142D01*
X156389352Y-96285761D01*
X156436971Y-96333380D01*
X156508400Y-96357190D01*
X156556019Y-96357190D01*
X156627447Y-96333380D01*
X156651257Y-96309571D01*
X156651257Y-96142904D01*
X156556019Y-96142904D01*
X156865542Y-96357190D02*
X156865542Y-95857190D01*
X157151257Y-96357190D01*
X157151257Y-95857190D01*
X157389352Y-96357190D02*
X157389352Y-95857190D01*
X157508400Y-95857190D01*
X157579828Y-95881000D01*
X157627447Y-95928619D01*
X157651257Y-95976238D01*
X157675066Y-96071476D01*
X157675066Y-96142904D01*
X157651257Y-96238142D01*
X157627447Y-96285761D01*
X157579828Y-96333380D01*
X157508400Y-96357190D01*
X157389352Y-96357190D01*
X156369352Y-66207190D02*
X156678876Y-66207190D01*
X156512209Y-66397666D01*
X156583638Y-66397666D01*
X156631257Y-66421476D01*
X156655066Y-66445285D01*
X156678876Y-66492904D01*
X156678876Y-66611952D01*
X156655066Y-66659571D01*
X156631257Y-66683380D01*
X156583638Y-66707190D01*
X156440780Y-66707190D01*
X156393161Y-66683380D01*
X156369352Y-66659571D01*
X156821733Y-66207190D02*
X156988400Y-66707190D01*
X157155066Y-66207190D01*
X157274114Y-66207190D02*
X157583638Y-66207190D01*
X157416971Y-66397666D01*
X157488400Y-66397666D01*
X157536019Y-66421476D01*
X157559828Y-66445285D01*
X157583638Y-66492904D01*
X157583638Y-66611952D01*
X157559828Y-66659571D01*
X157536019Y-66683380D01*
X157488400Y-66707190D01*
X157345542Y-66707190D01*
X157297923Y-66683380D01*
X157274114Y-66659571D01*
X111163161Y-66207190D02*
X110925066Y-66207190D01*
X110901257Y-66445285D01*
X110925066Y-66421476D01*
X110972685Y-66397666D01*
X111091733Y-66397666D01*
X111139352Y-66421476D01*
X111163161Y-66445285D01*
X111186971Y-66492904D01*
X111186971Y-66611952D01*
X111163161Y-66659571D01*
X111139352Y-66683380D01*
X111091733Y-66707190D01*
X110972685Y-66707190D01*
X110925066Y-66683380D01*
X110901257Y-66659571D01*
X111329828Y-66207190D02*
X111496495Y-66707190D01*
X111663161Y-66207190D01*
D11*
X156054066Y-88571000D02*
G75*
G03*
X156054066Y-88571000I-145666J0D01*
G01*
D12*
X157578131Y-88591000D02*
G75*
G03*
X157578131Y-88591000I-1669731J0D01*
G01*
X153908400Y-86091000D02*
X157908400Y-86091000D01*
X157908400Y-86091000D02*
X157908400Y-91091000D01*
X157908400Y-91091000D02*
X153908400Y-91091000D01*
X153908400Y-91091000D02*
X153908400Y-86091000D01*
X171170600Y-119710200D02*
X172339000Y-120878600D01*
X172339000Y-124333000D02*
X171170600Y-125501400D01*
X172339000Y-121412000D02*
X172339000Y-123799600D01*
X166547800Y-121412000D02*
X166547800Y-123799600D01*
X170637200Y-119710200D02*
X172339000Y-121412000D01*
X172339000Y-125501400D02*
X172339000Y-124333000D01*
X166547800Y-121412000D02*
X168249600Y-119710200D01*
X172339000Y-120878600D02*
X172339000Y-119710200D01*
X168249600Y-119710200D02*
X170637200Y-119710200D01*
X171170600Y-125501400D02*
X172339000Y-125501400D01*
X166547800Y-124333000D02*
X166547800Y-125501400D01*
X172339000Y-119710200D02*
X171170600Y-119710200D01*
X166547800Y-125501400D02*
X167716200Y-125501400D01*
X166547800Y-120878600D02*
X167716200Y-119710200D01*
X166547800Y-119710200D02*
X166547800Y-120878600D01*
X168249600Y-125501400D02*
X166547800Y-123799600D01*
X170637200Y-125501400D02*
X168249600Y-125501400D01*
X172339000Y-123799600D02*
X170637200Y-125501400D01*
X167716200Y-119710200D02*
X166547800Y-119710200D01*
X167716200Y-125501400D02*
X166547800Y-124333000D01*
D13*
X192271600Y-127451228D02*
X191985885Y-127451228D01*
X191985885Y-126851228D01*
X192557314Y-127451228D02*
X192500171Y-127422657D01*
X192471600Y-127394085D01*
X192443028Y-127336942D01*
X192443028Y-127165514D01*
X192471600Y-127108371D01*
X192500171Y-127079800D01*
X192557314Y-127051228D01*
X192643028Y-127051228D01*
X192700171Y-127079800D01*
X192728742Y-127108371D01*
X192757314Y-127165514D01*
X192757314Y-127336942D01*
X192728742Y-127394085D01*
X192700171Y-127422657D01*
X192643028Y-127451228D01*
X192557314Y-127451228D01*
X192957314Y-127051228D02*
X193071600Y-127451228D01*
X193185885Y-127165514D01*
X193300171Y-127451228D01*
X193414457Y-127051228D01*
X191514457Y-128360085D02*
X191485885Y-128388657D01*
X191400171Y-128417228D01*
X191343028Y-128417228D01*
X191257314Y-128388657D01*
X191200171Y-128331514D01*
X191171600Y-128274371D01*
X191143028Y-128160085D01*
X191143028Y-128074371D01*
X191171600Y-127960085D01*
X191200171Y-127902942D01*
X191257314Y-127845800D01*
X191343028Y-127817228D01*
X191400171Y-127817228D01*
X191485885Y-127845800D01*
X191514457Y-127874371D01*
X192028742Y-128017228D02*
X192028742Y-128417228D01*
X191771600Y-128017228D02*
X191771600Y-128331514D01*
X191800171Y-128388657D01*
X191857314Y-128417228D01*
X191943028Y-128417228D01*
X192000171Y-128388657D01*
X192028742Y-128360085D01*
X192314457Y-128417228D02*
X192314457Y-128017228D01*
X192314457Y-128131514D02*
X192343028Y-128074371D01*
X192371600Y-128045800D01*
X192428742Y-128017228D01*
X192485885Y-128017228D01*
X192685885Y-128417228D02*
X192685885Y-128017228D01*
X192685885Y-128131514D02*
X192714457Y-128074371D01*
X192743028Y-128045800D01*
X192800171Y-128017228D01*
X192857314Y-128017228D01*
X193285885Y-128388657D02*
X193228742Y-128417228D01*
X193114457Y-128417228D01*
X193057314Y-128388657D01*
X193028742Y-128331514D01*
X193028742Y-128102942D01*
X193057314Y-128045800D01*
X193114457Y-128017228D01*
X193228742Y-128017228D01*
X193285885Y-128045800D01*
X193314457Y-128102942D01*
X193314457Y-128160085D01*
X193028742Y-128217228D01*
X193571600Y-128017228D02*
X193571600Y-128417228D01*
X193571600Y-128074371D02*
X193600171Y-128045800D01*
X193657314Y-128017228D01*
X193743028Y-128017228D01*
X193800171Y-128045800D01*
X193828742Y-128102942D01*
X193828742Y-128417228D01*
X194028742Y-128017228D02*
X194257314Y-128017228D01*
X194114457Y-127817228D02*
X194114457Y-128331514D01*
X194143028Y-128388657D01*
X194200171Y-128417228D01*
X194257314Y-128417228D01*
X181697314Y-127934228D02*
X181697314Y-127334228D01*
X181925885Y-127334228D01*
X181983028Y-127362800D01*
X182011600Y-127391371D01*
X182040171Y-127448514D01*
X182040171Y-127534228D01*
X182011600Y-127591371D01*
X181983028Y-127619942D01*
X181925885Y-127648514D01*
X181697314Y-127648514D01*
X182268742Y-127905657D02*
X182354457Y-127934228D01*
X182497314Y-127934228D01*
X182554457Y-127905657D01*
X182583028Y-127877085D01*
X182611600Y-127819942D01*
X182611600Y-127762800D01*
X182583028Y-127705657D01*
X182554457Y-127677085D01*
X182497314Y-127648514D01*
X182383028Y-127619942D01*
X182325885Y-127591371D01*
X182297314Y-127562800D01*
X182268742Y-127505657D01*
X182268742Y-127448514D01*
X182297314Y-127391371D01*
X182325885Y-127362800D01*
X182383028Y-127334228D01*
X182525885Y-127334228D01*
X182611600Y-127362800D01*
X182868742Y-127705657D02*
X183325885Y-127705657D01*
X183097314Y-127934228D02*
X183097314Y-127477085D01*
D14*
X124345142Y-62546800D02*
X124202285Y-62475371D01*
X123988000Y-62475371D01*
X123773714Y-62546800D01*
X123630857Y-62689657D01*
X123559428Y-62832514D01*
X123488000Y-63118228D01*
X123488000Y-63332514D01*
X123559428Y-63618228D01*
X123630857Y-63761085D01*
X123773714Y-63903942D01*
X123988000Y-63975371D01*
X124130857Y-63975371D01*
X124345142Y-63903942D01*
X124416571Y-63832514D01*
X124416571Y-63332514D01*
X124130857Y-63332514D01*
X125059428Y-63975371D02*
X125059428Y-62475371D01*
X125916571Y-63975371D01*
X125916571Y-62475371D01*
X126630857Y-63975371D02*
X126630857Y-62475371D01*
X126988000Y-62475371D01*
X127202285Y-62546800D01*
X127345142Y-62689657D01*
X127416571Y-62832514D01*
X127488000Y-63118228D01*
X127488000Y-63332514D01*
X127416571Y-63618228D01*
X127345142Y-63761085D01*
X127202285Y-63903942D01*
X126988000Y-63975371D01*
X126630857Y-63975371D01*
X128130857Y-63975371D02*
X128130857Y-62475371D01*
X128488000Y-62475371D01*
X128702285Y-62546800D01*
X128845142Y-62689657D01*
X128916571Y-62832514D01*
X128988000Y-63118228D01*
X128988000Y-63332514D01*
X128916571Y-63618228D01*
X128845142Y-63761085D01*
X128702285Y-63903942D01*
X128488000Y-63975371D01*
X128130857Y-63975371D01*
D12*
X160786171Y-62472885D02*
X161186171Y-62472885D01*
X161357600Y-63101457D02*
X160786171Y-63101457D01*
X160786171Y-61901457D01*
X161357600Y-61901457D01*
X161814742Y-63044314D02*
X161986171Y-63101457D01*
X162271885Y-63101457D01*
X162386171Y-63044314D01*
X162443314Y-62987171D01*
X162500457Y-62872885D01*
X162500457Y-62758600D01*
X162443314Y-62644314D01*
X162386171Y-62587171D01*
X162271885Y-62530028D01*
X162043314Y-62472885D01*
X161929028Y-62415742D01*
X161871885Y-62358600D01*
X161814742Y-62244314D01*
X161814742Y-62130028D01*
X161871885Y-62015742D01*
X161929028Y-61958600D01*
X162043314Y-61901457D01*
X162329028Y-61901457D01*
X162500457Y-61958600D01*
X163014742Y-63101457D02*
X163014742Y-61901457D01*
X163471885Y-61901457D01*
X163586171Y-61958600D01*
X163643314Y-62015742D01*
X163700457Y-62130028D01*
X163700457Y-62301457D01*
X163643314Y-62415742D01*
X163586171Y-62472885D01*
X163471885Y-62530028D01*
X163014742Y-62530028D01*
X164100457Y-61901457D02*
X164843314Y-61901457D01*
X164443314Y-62358600D01*
X164614742Y-62358600D01*
X164729028Y-62415742D01*
X164786171Y-62472885D01*
X164843314Y-62587171D01*
X164843314Y-62872885D01*
X164786171Y-62987171D01*
X164729028Y-63044314D01*
X164614742Y-63101457D01*
X164271885Y-63101457D01*
X164157600Y-63044314D01*
X164100457Y-62987171D01*
X165300457Y-62015742D02*
X165357600Y-61958600D01*
X165471885Y-61901457D01*
X165757600Y-61901457D01*
X165871885Y-61958600D01*
X165929028Y-62015742D01*
X165986171Y-62130028D01*
X165986171Y-62244314D01*
X165929028Y-62415742D01*
X165243314Y-63101457D01*
X165986171Y-63101457D01*
X167300457Y-61901457D02*
X167586171Y-63101457D01*
X167814742Y-62244314D01*
X168043314Y-63101457D01*
X168329028Y-61901457D01*
X168729028Y-62758600D02*
X169300457Y-62758600D01*
X168614742Y-63101457D02*
X169014742Y-61901457D01*
X169414742Y-63101457D01*
X169643314Y-61901457D02*
X170329028Y-61901457D01*
X169986171Y-63101457D02*
X169986171Y-61901457D01*
X170557600Y-61901457D02*
X171243314Y-61901457D01*
X170900457Y-63101457D02*
X170900457Y-61901457D01*
X171643314Y-63101457D02*
X171643314Y-61901457D01*
X172043314Y-62758600D01*
X172443314Y-61901457D01*
X172443314Y-63101457D01*
X173014742Y-62472885D02*
X173414742Y-62472885D01*
X173586171Y-63101457D02*
X173014742Y-63101457D01*
X173014742Y-61901457D01*
X173586171Y-61901457D01*
X173929028Y-61901457D02*
X174614742Y-61901457D01*
X174271885Y-63101457D02*
X174271885Y-61901457D01*
X175014742Y-62472885D02*
X175414742Y-62472885D01*
X175586171Y-63101457D02*
X175014742Y-63101457D01*
X175014742Y-61901457D01*
X175586171Y-61901457D01*
X176786171Y-63101457D02*
X176386171Y-62530028D01*
X176100457Y-63101457D02*
X176100457Y-61901457D01*
X176557600Y-61901457D01*
X176671885Y-61958600D01*
X176729028Y-62015742D01*
X176786171Y-62130028D01*
X176786171Y-62301457D01*
X176729028Y-62415742D01*
X176671885Y-62472885D01*
X176557600Y-62530028D01*
X176100457Y-62530028D01*
X162929028Y-63947742D02*
X162986171Y-63890600D01*
X163100457Y-63833457D01*
X163386171Y-63833457D01*
X163500457Y-63890600D01*
X163557600Y-63947742D01*
X163614742Y-64062028D01*
X163614742Y-64176314D01*
X163557600Y-64347742D01*
X162871885Y-65033457D01*
X163614742Y-65033457D01*
X164357600Y-63833457D02*
X164471885Y-63833457D01*
X164586171Y-63890600D01*
X164643314Y-63947742D01*
X164700457Y-64062028D01*
X164757600Y-64290600D01*
X164757600Y-64576314D01*
X164700457Y-64804885D01*
X164643314Y-64919171D01*
X164586171Y-64976314D01*
X164471885Y-65033457D01*
X164357600Y-65033457D01*
X164243314Y-64976314D01*
X164186171Y-64919171D01*
X164129028Y-64804885D01*
X164071885Y-64576314D01*
X164071885Y-64290600D01*
X164129028Y-64062028D01*
X164186171Y-63947742D01*
X164243314Y-63890600D01*
X164357600Y-63833457D01*
X165214742Y-63947742D02*
X165271885Y-63890600D01*
X165386171Y-63833457D01*
X165671885Y-63833457D01*
X165786171Y-63890600D01*
X165843314Y-63947742D01*
X165900457Y-64062028D01*
X165900457Y-64176314D01*
X165843314Y-64347742D01*
X165157600Y-65033457D01*
X165900457Y-65033457D01*
X166357600Y-63947742D02*
X166414742Y-63890600D01*
X166529028Y-63833457D01*
X166814742Y-63833457D01*
X166929028Y-63890600D01*
X166986171Y-63947742D01*
X167043314Y-64062028D01*
X167043314Y-64176314D01*
X166986171Y-64347742D01*
X166300457Y-65033457D01*
X167043314Y-65033457D01*
X167557600Y-64576314D02*
X168471885Y-64576314D01*
X169671885Y-65033457D02*
X168986171Y-65033457D01*
X169329028Y-65033457D02*
X169329028Y-63833457D01*
X169214742Y-64004885D01*
X169100457Y-64119171D01*
X168986171Y-64176314D01*
X170129028Y-63947742D02*
X170186171Y-63890600D01*
X170300457Y-63833457D01*
X170586171Y-63833457D01*
X170700457Y-63890600D01*
X170757600Y-63947742D01*
X170814742Y-64062028D01*
X170814742Y-64176314D01*
X170757600Y-64347742D01*
X170071885Y-65033457D01*
X170814742Y-65033457D01*
X171329028Y-64576314D02*
X172243314Y-64576314D01*
X173043314Y-63833457D02*
X173157600Y-63833457D01*
X173271885Y-63890600D01*
X173329028Y-63947742D01*
X173386171Y-64062028D01*
X173443314Y-64290600D01*
X173443314Y-64576314D01*
X173386171Y-64804885D01*
X173329028Y-64919171D01*
X173271885Y-64976314D01*
X173157600Y-65033457D01*
X173043314Y-65033457D01*
X172929028Y-64976314D01*
X172871885Y-64919171D01*
X172814742Y-64804885D01*
X172757600Y-64576314D01*
X172757600Y-64290600D01*
X172814742Y-64062028D01*
X172871885Y-63947742D01*
X172929028Y-63890600D01*
X173043314Y-63833457D01*
X173843314Y-63833457D02*
X174643314Y-63833457D01*
X174129028Y-65033457D01*
X166271885Y-66965457D02*
X165871885Y-66394028D01*
X165586171Y-66965457D02*
X165586171Y-65765457D01*
X166043314Y-65765457D01*
X166157600Y-65822600D01*
X166214742Y-65879742D01*
X166271885Y-65994028D01*
X166271885Y-66165457D01*
X166214742Y-66279742D01*
X166157600Y-66336885D01*
X166043314Y-66394028D01*
X165586171Y-66394028D01*
X167243314Y-66908314D02*
X167129028Y-66965457D01*
X166900457Y-66965457D01*
X166786171Y-66908314D01*
X166729028Y-66794028D01*
X166729028Y-66336885D01*
X166786171Y-66222600D01*
X166900457Y-66165457D01*
X167129028Y-66165457D01*
X167243314Y-66222600D01*
X167300457Y-66336885D01*
X167300457Y-66451171D01*
X166729028Y-66565457D01*
X167700457Y-66165457D02*
X167986171Y-66965457D01*
X168271885Y-66165457D01*
X169586171Y-65879742D02*
X169643314Y-65822600D01*
X169757600Y-65765457D01*
X170043314Y-65765457D01*
X170157600Y-65822600D01*
X170214742Y-65879742D01*
X170271885Y-65994028D01*
X170271885Y-66108314D01*
X170214742Y-66279742D01*
X169529028Y-66965457D01*
X170271885Y-66965457D01*
X170786171Y-66851171D02*
X170843314Y-66908314D01*
X170786171Y-66965457D01*
X170729028Y-66908314D01*
X170786171Y-66851171D01*
X170786171Y-66965457D01*
X171586171Y-65765457D02*
X171700457Y-65765457D01*
X171814742Y-65822600D01*
X171871885Y-65879742D01*
X171929028Y-65994028D01*
X171986171Y-66222600D01*
X171986171Y-66508314D01*
X171929028Y-66736885D01*
X171871885Y-66851171D01*
X171814742Y-66908314D01*
X171700457Y-66965457D01*
X171586171Y-66965457D01*
X171471885Y-66908314D01*
X171414742Y-66851171D01*
X171357600Y-66736885D01*
X171300457Y-66508314D01*
X171300457Y-66222600D01*
X171357600Y-65994028D01*
X171414742Y-65879742D01*
X171471885Y-65822600D01*
X171586171Y-65765457D01*
D13*
X124987142Y-108281828D02*
X125358571Y-108281828D01*
X125158571Y-108510400D01*
X125244285Y-108510400D01*
X125301428Y-108538971D01*
X125330000Y-108567542D01*
X125358571Y-108624685D01*
X125358571Y-108767542D01*
X125330000Y-108824685D01*
X125301428Y-108853257D01*
X125244285Y-108881828D01*
X125072857Y-108881828D01*
X125015714Y-108853257D01*
X124987142Y-108824685D01*
X125530000Y-108281828D02*
X125730000Y-108881828D01*
X125930000Y-108281828D01*
X126072857Y-108281828D02*
X126444285Y-108281828D01*
X126244285Y-108510400D01*
X126330000Y-108510400D01*
X126387142Y-108538971D01*
X126415714Y-108567542D01*
X126444285Y-108624685D01*
X126444285Y-108767542D01*
X126415714Y-108824685D01*
X126387142Y-108853257D01*
X126330000Y-108881828D01*
X126158571Y-108881828D01*
X126101428Y-108853257D01*
X126072857Y-108824685D01*
X196894457Y-127476628D02*
X196894457Y-126876628D01*
X196894457Y-127162342D02*
X197237314Y-127162342D01*
X197237314Y-127476628D02*
X197237314Y-126876628D01*
X197523028Y-127476628D02*
X197523028Y-127076628D01*
X197523028Y-126876628D02*
X197494457Y-126905200D01*
X197523028Y-126933771D01*
X197551600Y-126905200D01*
X197523028Y-126876628D01*
X197523028Y-126933771D01*
X198065885Y-127076628D02*
X198065885Y-127562342D01*
X198037314Y-127619485D01*
X198008742Y-127648057D01*
X197951600Y-127676628D01*
X197865885Y-127676628D01*
X197808742Y-127648057D01*
X198065885Y-127448057D02*
X198008742Y-127476628D01*
X197894457Y-127476628D01*
X197837314Y-127448057D01*
X197808742Y-127419485D01*
X197780171Y-127362342D01*
X197780171Y-127190914D01*
X197808742Y-127133771D01*
X197837314Y-127105200D01*
X197894457Y-127076628D01*
X198008742Y-127076628D01*
X198065885Y-127105200D01*
X198351600Y-127476628D02*
X198351600Y-126876628D01*
X198608742Y-127476628D02*
X198608742Y-127162342D01*
X198580171Y-127105200D01*
X198523028Y-127076628D01*
X198437314Y-127076628D01*
X198380171Y-127105200D01*
X198351600Y-127133771D01*
X196594457Y-128385485D02*
X196565885Y-128414057D01*
X196480171Y-128442628D01*
X196423028Y-128442628D01*
X196337314Y-128414057D01*
X196280171Y-128356914D01*
X196251600Y-128299771D01*
X196223028Y-128185485D01*
X196223028Y-128099771D01*
X196251600Y-127985485D01*
X196280171Y-127928342D01*
X196337314Y-127871200D01*
X196423028Y-127842628D01*
X196480171Y-127842628D01*
X196565885Y-127871200D01*
X196594457Y-127899771D01*
X197108742Y-128042628D02*
X197108742Y-128442628D01*
X196851600Y-128042628D02*
X196851600Y-128356914D01*
X196880171Y-128414057D01*
X196937314Y-128442628D01*
X197023028Y-128442628D01*
X197080171Y-128414057D01*
X197108742Y-128385485D01*
X197394457Y-128442628D02*
X197394457Y-128042628D01*
X197394457Y-128156914D02*
X197423028Y-128099771D01*
X197451600Y-128071200D01*
X197508742Y-128042628D01*
X197565885Y-128042628D01*
X197765885Y-128442628D02*
X197765885Y-128042628D01*
X197765885Y-128156914D02*
X197794457Y-128099771D01*
X197823028Y-128071200D01*
X197880171Y-128042628D01*
X197937314Y-128042628D01*
X198365885Y-128414057D02*
X198308742Y-128442628D01*
X198194457Y-128442628D01*
X198137314Y-128414057D01*
X198108742Y-128356914D01*
X198108742Y-128128342D01*
X198137314Y-128071200D01*
X198194457Y-128042628D01*
X198308742Y-128042628D01*
X198365885Y-128071200D01*
X198394457Y-128128342D01*
X198394457Y-128185485D01*
X198108742Y-128242628D01*
X198651600Y-128042628D02*
X198651600Y-128442628D01*
X198651600Y-128099771D02*
X198680171Y-128071200D01*
X198737314Y-128042628D01*
X198823028Y-128042628D01*
X198880171Y-128071200D01*
X198908742Y-128128342D01*
X198908742Y-128442628D01*
X199108742Y-128042628D02*
X199337314Y-128042628D01*
X199194457Y-127842628D02*
X199194457Y-128356914D01*
X199223028Y-128414057D01*
X199280171Y-128442628D01*
X199337314Y-128442628D01*
X134899428Y-127604057D02*
X135356571Y-127604057D01*
X135128000Y-127832628D02*
X135128000Y-127375485D01*
X135928000Y-127232628D02*
X135642285Y-127232628D01*
X135613714Y-127518342D01*
X135642285Y-127489771D01*
X135699428Y-127461200D01*
X135842285Y-127461200D01*
X135899428Y-127489771D01*
X135928000Y-127518342D01*
X135956571Y-127575485D01*
X135956571Y-127718342D01*
X135928000Y-127775485D01*
X135899428Y-127804057D01*
X135842285Y-127832628D01*
X135699428Y-127832628D01*
X135642285Y-127804057D01*
X135613714Y-127775485D01*
X136128000Y-127232628D02*
X136328000Y-127832628D01*
X136528000Y-127232628D01*
X136699428Y-127661200D02*
X136985142Y-127661200D01*
X136642285Y-127832628D02*
X136842285Y-127232628D01*
X137042285Y-127832628D01*
X176203028Y-127334228D02*
X176203028Y-127819942D01*
X176231600Y-127877085D01*
X176260171Y-127905657D01*
X176317314Y-127934228D01*
X176431600Y-127934228D01*
X176488742Y-127905657D01*
X176517314Y-127877085D01*
X176545885Y-127819942D01*
X176545885Y-127334228D01*
X176831600Y-127934228D02*
X176831600Y-127334228D01*
X177174457Y-127934228D01*
X177174457Y-127334228D01*
X177460171Y-127934228D02*
X177460171Y-127334228D01*
X177660171Y-127334228D02*
X178003028Y-127334228D01*
X177831600Y-127934228D02*
X177831600Y-127334228D01*
X178203028Y-127705657D02*
X178660171Y-127705657D01*
X178431600Y-127934228D02*
X178431600Y-127477085D01*
D12*
X166671257Y-118849571D02*
X166699828Y-118821000D01*
X166756971Y-118792428D01*
X166899828Y-118792428D01*
X166956971Y-118821000D01*
X166985542Y-118849571D01*
X167014114Y-118906714D01*
X167014114Y-118963857D01*
X166985542Y-119049571D01*
X166642685Y-119392428D01*
X167014114Y-119392428D01*
X167556971Y-118792428D02*
X167271257Y-118792428D01*
X167242685Y-119078142D01*
X167271257Y-119049571D01*
X167328400Y-119021000D01*
X167471257Y-119021000D01*
X167528400Y-119049571D01*
X167556971Y-119078142D01*
X167585542Y-119135285D01*
X167585542Y-119278142D01*
X167556971Y-119335285D01*
X167528400Y-119363857D01*
X167471257Y-119392428D01*
X167328400Y-119392428D01*
X167271257Y-119363857D01*
X167242685Y-119335285D01*
X167956971Y-118792428D02*
X168014114Y-118792428D01*
X168071257Y-118821000D01*
X168099828Y-118849571D01*
X168128400Y-118906714D01*
X168156971Y-119021000D01*
X168156971Y-119163857D01*
X168128400Y-119278142D01*
X168099828Y-119335285D01*
X168071257Y-119363857D01*
X168014114Y-119392428D01*
X167956971Y-119392428D01*
X167899828Y-119363857D01*
X167871257Y-119335285D01*
X167842685Y-119278142D01*
X167814114Y-119163857D01*
X167814114Y-119021000D01*
X167842685Y-118906714D01*
X167871257Y-118849571D01*
X167899828Y-118821000D01*
X167956971Y-118792428D01*
X168414114Y-119392428D02*
X168414114Y-118992428D01*
X168414114Y-119049571D02*
X168442685Y-119021000D01*
X168499828Y-118992428D01*
X168585542Y-118992428D01*
X168642685Y-119021000D01*
X168671257Y-119078142D01*
X168671257Y-119392428D01*
X168671257Y-119078142D02*
X168699828Y-119021000D01*
X168756971Y-118992428D01*
X168842685Y-118992428D01*
X168899828Y-119021000D01*
X168928400Y-119078142D01*
X168928400Y-119392428D01*
X169185542Y-119221000D02*
X169471257Y-119221000D01*
X169128400Y-119392428D02*
X169328400Y-118792428D01*
X169528400Y-119392428D01*
X170385542Y-119078142D02*
X170185542Y-119078142D01*
X170185542Y-119392428D02*
X170185542Y-118792428D01*
X170471257Y-118792428D01*
X170699828Y-118792428D02*
X170699828Y-119278142D01*
X170728400Y-119335285D01*
X170756971Y-119363857D01*
X170814114Y-119392428D01*
X170928400Y-119392428D01*
X170985542Y-119363857D01*
X171014114Y-119335285D01*
X171042685Y-119278142D01*
X171042685Y-118792428D01*
X171299828Y-119363857D02*
X171385542Y-119392428D01*
X171528400Y-119392428D01*
X171585542Y-119363857D01*
X171614114Y-119335285D01*
X171642685Y-119278142D01*
X171642685Y-119221000D01*
X171614114Y-119163857D01*
X171585542Y-119135285D01*
X171528400Y-119106714D01*
X171414114Y-119078142D01*
X171356971Y-119049571D01*
X171328400Y-119021000D01*
X171299828Y-118963857D01*
X171299828Y-118906714D01*
X171328400Y-118849571D01*
X171356971Y-118821000D01*
X171414114Y-118792428D01*
X171556971Y-118792428D01*
X171642685Y-118821000D01*
X171899828Y-119078142D02*
X172099828Y-119078142D01*
X172185542Y-119392428D02*
X171899828Y-119392428D01*
X171899828Y-118792428D01*
X172185542Y-118792428D01*
D13*
X114804914Y-108281828D02*
X114519200Y-108281828D01*
X114490628Y-108567542D01*
X114519200Y-108538971D01*
X114576342Y-108510400D01*
X114719200Y-108510400D01*
X114776342Y-108538971D01*
X114804914Y-108567542D01*
X114833485Y-108624685D01*
X114833485Y-108767542D01*
X114804914Y-108824685D01*
X114776342Y-108853257D01*
X114719200Y-108881828D01*
X114576342Y-108881828D01*
X114519200Y-108853257D01*
X114490628Y-108824685D01*
X115004914Y-108281828D02*
X115204914Y-108881828D01*
X115404914Y-108281828D01*
X115604914Y-108881828D02*
X115604914Y-108281828D01*
X115747771Y-108281828D01*
X115833485Y-108310400D01*
X115890628Y-108367542D01*
X115919200Y-108424685D01*
X115947771Y-108538971D01*
X115947771Y-108624685D01*
X115919200Y-108738971D01*
X115890628Y-108796114D01*
X115833485Y-108853257D01*
X115747771Y-108881828D01*
X115604914Y-108881828D01*
X116204914Y-108881828D02*
X116204914Y-108281828D01*
X116347771Y-108281828D01*
X116433485Y-108310400D01*
X116490628Y-108367542D01*
X116519200Y-108424685D01*
X116547771Y-108538971D01*
X116547771Y-108624685D01*
X116519200Y-108738971D01*
X116490628Y-108796114D01*
X116433485Y-108853257D01*
X116347771Y-108881828D01*
X116204914Y-108881828D01*
X139954028Y-127604057D02*
X140411171Y-127604057D01*
X140982600Y-127232628D02*
X140696885Y-127232628D01*
X140668314Y-127518342D01*
X140696885Y-127489771D01*
X140754028Y-127461200D01*
X140896885Y-127461200D01*
X140954028Y-127489771D01*
X140982600Y-127518342D01*
X141011171Y-127575485D01*
X141011171Y-127718342D01*
X140982600Y-127775485D01*
X140954028Y-127804057D01*
X140896885Y-127832628D01*
X140754028Y-127832628D01*
X140696885Y-127804057D01*
X140668314Y-127775485D01*
X141182600Y-127232628D02*
X141382600Y-127832628D01*
X141582600Y-127232628D01*
X141754028Y-127661200D02*
X142039742Y-127661200D01*
X141696885Y-127832628D02*
X141896885Y-127232628D01*
X142096885Y-127832628D01*
D14*
X202836685Y-120103200D02*
X202693828Y-120031771D01*
X202479542Y-120031771D01*
X202265257Y-120103200D01*
X202122400Y-120246057D01*
X202050971Y-120388914D01*
X201979542Y-120674628D01*
X201979542Y-120888914D01*
X202050971Y-121174628D01*
X202122400Y-121317485D01*
X202265257Y-121460342D01*
X202479542Y-121531771D01*
X202622400Y-121531771D01*
X202836685Y-121460342D01*
X202908114Y-121388914D01*
X202908114Y-120888914D01*
X202622400Y-120888914D01*
X203550971Y-121531771D02*
X203550971Y-120031771D01*
X204408114Y-121531771D01*
X204408114Y-120031771D01*
X205122400Y-121531771D02*
X205122400Y-120031771D01*
X205479542Y-120031771D01*
X205693828Y-120103200D01*
X205836685Y-120246057D01*
X205908114Y-120388914D01*
X205979542Y-120674628D01*
X205979542Y-120888914D01*
X205908114Y-121174628D01*
X205836685Y-121317485D01*
X205693828Y-121460342D01*
X205479542Y-121531771D01*
X205122400Y-121531771D01*
X206550971Y-121103200D02*
X207265257Y-121103200D01*
X206408114Y-121531771D02*
X206908114Y-120031771D01*
X207408114Y-121531771D01*
D12*
X110961466Y-88711752D02*
X110961466Y-88235561D01*
X111247180Y-88806990D02*
X110247180Y-88473657D01*
X111247180Y-88140323D01*
X110580514Y-87806990D02*
X111247180Y-87806990D01*
X110675752Y-87806990D02*
X110628133Y-87759371D01*
X110580514Y-87664133D01*
X110580514Y-87521276D01*
X110628133Y-87426038D01*
X110723371Y-87378419D01*
X111247180Y-87378419D01*
X110580514Y-87045085D02*
X110580514Y-86664133D01*
X110247180Y-86902228D02*
X111104323Y-86902228D01*
X111199561Y-86854609D01*
X111247180Y-86759371D01*
X111247180Y-86664133D01*
X111247180Y-86330800D02*
X110247180Y-86330800D01*
X111247180Y-85902228D02*
X110723371Y-85902228D01*
X110628133Y-85949847D01*
X110580514Y-86045085D01*
X110580514Y-86187942D01*
X110628133Y-86283180D01*
X110675752Y-86330800D01*
X111247180Y-85283180D02*
X111199561Y-85378419D01*
X111151942Y-85426038D01*
X111056704Y-85473657D01*
X110770990Y-85473657D01*
X110675752Y-85426038D01*
X110628133Y-85378419D01*
X110580514Y-85283180D01*
X110580514Y-85140323D01*
X110628133Y-85045085D01*
X110675752Y-84997466D01*
X110770990Y-84949847D01*
X111056704Y-84949847D01*
X111151942Y-84997466D01*
X111199561Y-85045085D01*
X111247180Y-85140323D01*
X111247180Y-85283180D01*
X110580514Y-84521276D02*
X111247180Y-84521276D01*
X110675752Y-84521276D02*
X110628133Y-84473657D01*
X110580514Y-84378419D01*
X110580514Y-84235561D01*
X110628133Y-84140323D01*
X110723371Y-84092704D01*
X111247180Y-84092704D01*
X110580514Y-83711752D02*
X111247180Y-83473657D01*
X110580514Y-83235561D02*
X111247180Y-83473657D01*
X111485276Y-83568895D01*
X111532895Y-83616514D01*
X111580514Y-83711752D01*
X110247180Y-82949847D02*
X110247180Y-82283180D01*
X111247180Y-82949847D01*
X111247180Y-82283180D01*
X110342419Y-81187942D02*
X110294800Y-81140323D01*
X110247180Y-81045085D01*
X110247180Y-80806990D01*
X110294800Y-80711752D01*
X110342419Y-80664133D01*
X110437657Y-80616514D01*
X110532895Y-80616514D01*
X110675752Y-80664133D01*
X111247180Y-81235561D01*
X111247180Y-80616514D01*
X110247180Y-79997466D02*
X110247180Y-79902228D01*
X110294800Y-79806990D01*
X110342419Y-79759371D01*
X110437657Y-79711752D01*
X110628133Y-79664133D01*
X110866228Y-79664133D01*
X111056704Y-79711752D01*
X111151942Y-79759371D01*
X111199561Y-79806990D01*
X111247180Y-79902228D01*
X111247180Y-79997466D01*
X111199561Y-80092704D01*
X111151942Y-80140323D01*
X111056704Y-80187942D01*
X110866228Y-80235561D01*
X110628133Y-80235561D01*
X110437657Y-80187942D01*
X110342419Y-80140323D01*
X110294800Y-80092704D01*
X110247180Y-79997466D01*
X110342419Y-79283180D02*
X110294800Y-79235561D01*
X110247180Y-79140323D01*
X110247180Y-78902228D01*
X110294800Y-78806990D01*
X110342419Y-78759371D01*
X110437657Y-78711752D01*
X110532895Y-78711752D01*
X110675752Y-78759371D01*
X111247180Y-79330800D01*
X111247180Y-78711752D01*
X110342419Y-78330800D02*
X110294800Y-78283180D01*
X110247180Y-78187942D01*
X110247180Y-77949847D01*
X110294800Y-77854609D01*
X110342419Y-77806990D01*
X110437657Y-77759371D01*
X110532895Y-77759371D01*
X110675752Y-77806990D01*
X111247180Y-78378419D01*
X111247180Y-77759371D01*
X111247180Y-76806990D02*
X111247180Y-77378419D01*
X111247180Y-77092704D02*
X110247180Y-77092704D01*
X110390038Y-77187942D01*
X110485276Y-77283180D01*
X110532895Y-77378419D01*
X110342419Y-76426038D02*
X110294800Y-76378419D01*
X110247180Y-76283180D01*
X110247180Y-76045085D01*
X110294800Y-75949847D01*
X110342419Y-75902228D01*
X110437657Y-75854609D01*
X110532895Y-75854609D01*
X110675752Y-75902228D01*
X111247180Y-76473657D01*
X111247180Y-75854609D01*
X110247180Y-75235561D02*
X110247180Y-75140323D01*
X110294800Y-75045085D01*
X110342419Y-74997466D01*
X110437657Y-74949847D01*
X110628133Y-74902228D01*
X110866228Y-74902228D01*
X111056704Y-74949847D01*
X111151942Y-74997466D01*
X111199561Y-75045085D01*
X111247180Y-75140323D01*
X111247180Y-75235561D01*
X111199561Y-75330800D01*
X111151942Y-75378419D01*
X111056704Y-75426038D01*
X110866228Y-75473657D01*
X110628133Y-75473657D01*
X110437657Y-75426038D01*
X110342419Y-75378419D01*
X110294800Y-75330800D01*
X110247180Y-75235561D01*
X110247180Y-74568895D02*
X110247180Y-73902228D01*
X111247180Y-74330800D01*
D13*
X186902714Y-127362800D02*
X186845571Y-127334228D01*
X186759857Y-127334228D01*
X186674142Y-127362800D01*
X186617000Y-127419942D01*
X186588428Y-127477085D01*
X186559857Y-127591371D01*
X186559857Y-127677085D01*
X186588428Y-127791371D01*
X186617000Y-127848514D01*
X186674142Y-127905657D01*
X186759857Y-127934228D01*
X186817000Y-127934228D01*
X186902714Y-127905657D01*
X186931285Y-127877085D01*
X186931285Y-127677085D01*
X186817000Y-127677085D01*
X187188428Y-127934228D02*
X187188428Y-127334228D01*
X187531285Y-127934228D01*
X187531285Y-127334228D01*
X187817000Y-127934228D02*
X187817000Y-127334228D01*
X187959857Y-127334228D01*
X188045571Y-127362800D01*
X188102714Y-127419942D01*
X188131285Y-127477085D01*
X188159857Y-127591371D01*
X188159857Y-127677085D01*
X188131285Y-127791371D01*
X188102714Y-127848514D01*
X188045571Y-127905657D01*
X187959857Y-127934228D01*
X187817000Y-127934228D01*
X188388428Y-127762800D02*
X188674142Y-127762800D01*
X188331285Y-127934228D02*
X188531285Y-127334228D01*
X188731285Y-127934228D01*
X119348314Y-127629457D02*
X119805457Y-127629457D01*
X120405457Y-127858028D02*
X120062600Y-127858028D01*
X120234028Y-127858028D02*
X120234028Y-127258028D01*
X120176885Y-127343742D01*
X120119742Y-127400885D01*
X120062600Y-127429457D01*
X120948314Y-127258028D02*
X120662600Y-127258028D01*
X120634028Y-127543742D01*
X120662600Y-127515171D01*
X120719742Y-127486600D01*
X120862600Y-127486600D01*
X120919742Y-127515171D01*
X120948314Y-127543742D01*
X120976885Y-127600885D01*
X120976885Y-127743742D01*
X120948314Y-127800885D01*
X120919742Y-127829457D01*
X120862600Y-127858028D01*
X120719742Y-127858028D01*
X120662600Y-127829457D01*
X120634028Y-127800885D01*
X121148314Y-127258028D02*
X121348314Y-127858028D01*
X121548314Y-127258028D01*
X121719742Y-127686600D02*
X122005457Y-127686600D01*
X121662600Y-127858028D02*
X121862600Y-127258028D01*
X122062600Y-127858028D01*
X130108314Y-127261200D02*
X130051171Y-127232628D01*
X129965457Y-127232628D01*
X129879742Y-127261200D01*
X129822600Y-127318342D01*
X129794028Y-127375485D01*
X129765457Y-127489771D01*
X129765457Y-127575485D01*
X129794028Y-127689771D01*
X129822600Y-127746914D01*
X129879742Y-127804057D01*
X129965457Y-127832628D01*
X130022600Y-127832628D01*
X130108314Y-127804057D01*
X130136885Y-127775485D01*
X130136885Y-127575485D01*
X130022600Y-127575485D01*
X130394028Y-127832628D02*
X130394028Y-127232628D01*
X130736885Y-127832628D01*
X130736885Y-127232628D01*
X131022600Y-127832628D02*
X131022600Y-127232628D01*
X131165457Y-127232628D01*
X131251171Y-127261200D01*
X131308314Y-127318342D01*
X131336885Y-127375485D01*
X131365457Y-127489771D01*
X131365457Y-127575485D01*
X131336885Y-127689771D01*
X131308314Y-127746914D01*
X131251171Y-127804057D01*
X131165457Y-127832628D01*
X131022600Y-127832628D01*
X131594028Y-127661200D02*
X131879742Y-127661200D01*
X131536885Y-127832628D02*
X131736885Y-127232628D01*
X131936885Y-127832628D01*
X124428314Y-127604057D02*
X124885457Y-127604057D01*
X124656885Y-127832628D02*
X124656885Y-127375485D01*
X125485457Y-127832628D02*
X125142600Y-127832628D01*
X125314028Y-127832628D02*
X125314028Y-127232628D01*
X125256885Y-127318342D01*
X125199742Y-127375485D01*
X125142600Y-127404057D01*
X126028314Y-127232628D02*
X125742600Y-127232628D01*
X125714028Y-127518342D01*
X125742600Y-127489771D01*
X125799742Y-127461200D01*
X125942600Y-127461200D01*
X125999742Y-127489771D01*
X126028314Y-127518342D01*
X126056885Y-127575485D01*
X126056885Y-127718342D01*
X126028314Y-127775485D01*
X125999742Y-127804057D01*
X125942600Y-127832628D01*
X125799742Y-127832628D01*
X125742600Y-127804057D01*
X125714028Y-127775485D01*
X126228314Y-127232628D02*
X126428314Y-127832628D01*
X126628314Y-127232628D01*
X126799742Y-127661200D02*
X127085457Y-127661200D01*
X126742600Y-127832628D02*
X126942600Y-127232628D01*
X127142600Y-127832628D01*
X119892857Y-108310400D02*
X119835714Y-108281828D01*
X119750000Y-108281828D01*
X119664285Y-108310400D01*
X119607142Y-108367542D01*
X119578571Y-108424685D01*
X119550000Y-108538971D01*
X119550000Y-108624685D01*
X119578571Y-108738971D01*
X119607142Y-108796114D01*
X119664285Y-108853257D01*
X119750000Y-108881828D01*
X119807142Y-108881828D01*
X119892857Y-108853257D01*
X119921428Y-108824685D01*
X119921428Y-108624685D01*
X119807142Y-108624685D01*
X120178571Y-108881828D02*
X120178571Y-108281828D01*
X120521428Y-108881828D01*
X120521428Y-108281828D01*
X120807142Y-108881828D02*
X120807142Y-108281828D01*
X120950000Y-108281828D01*
X121035714Y-108310400D01*
X121092857Y-108367542D01*
X121121428Y-108424685D01*
X121150000Y-108538971D01*
X121150000Y-108624685D01*
X121121428Y-108738971D01*
X121092857Y-108796114D01*
X121035714Y-108853257D01*
X120950000Y-108881828D01*
X120807142Y-108881828D01*
X121407142Y-108881828D02*
X121407142Y-108281828D01*
X121550000Y-108281828D01*
X121635714Y-108310400D01*
X121692857Y-108367542D01*
X121721428Y-108424685D01*
X121750000Y-108538971D01*
X121750000Y-108624685D01*
X121721428Y-108738971D01*
X121692857Y-108796114D01*
X121635714Y-108853257D01*
X121550000Y-108881828D01*
X121407142Y-108881828D01*
D12*
%TO.C,J2*%
X159184380Y-94298333D02*
X159898666Y-94298333D01*
X160041523Y-94345952D01*
X160136761Y-94441190D01*
X160184380Y-94584047D01*
X160184380Y-94679285D01*
X159279619Y-93869761D02*
X159232000Y-93822142D01*
X159184380Y-93726904D01*
X159184380Y-93488809D01*
X159232000Y-93393571D01*
X159279619Y-93345952D01*
X159374857Y-93298333D01*
X159470095Y-93298333D01*
X159612952Y-93345952D01*
X160184380Y-93917380D01*
X160184380Y-93298333D01*
%TO.C,C17*%
X168841000Y-102104000D02*
X168807666Y-102137333D01*
X168707666Y-102170666D01*
X168641000Y-102170666D01*
X168541000Y-102137333D01*
X168474333Y-102070666D01*
X168441000Y-102004000D01*
X168407666Y-101870666D01*
X168407666Y-101770666D01*
X168441000Y-101637333D01*
X168474333Y-101570666D01*
X168541000Y-101504000D01*
X168641000Y-101470666D01*
X168707666Y-101470666D01*
X168807666Y-101504000D01*
X168841000Y-101537333D01*
X169507666Y-102170666D02*
X169107666Y-102170666D01*
X169307666Y-102170666D02*
X169307666Y-101470666D01*
X169241000Y-101570666D01*
X169174333Y-101637333D01*
X169107666Y-101670666D01*
X169741000Y-101470666D02*
X170207666Y-101470666D01*
X169907666Y-102170666D01*
%TO.C,R13*%
X154551142Y-124455180D02*
X154217809Y-123978990D01*
X153979714Y-124455180D02*
X153979714Y-123455180D01*
X154360666Y-123455180D01*
X154455904Y-123502800D01*
X154503523Y-123550419D01*
X154551142Y-123645657D01*
X154551142Y-123788514D01*
X154503523Y-123883752D01*
X154455904Y-123931371D01*
X154360666Y-123978990D01*
X153979714Y-123978990D01*
X155503523Y-124455180D02*
X154932095Y-124455180D01*
X155217809Y-124455180D02*
X155217809Y-123455180D01*
X155122571Y-123598038D01*
X155027333Y-123693276D01*
X154932095Y-123740895D01*
X155836857Y-123455180D02*
X156455904Y-123455180D01*
X156122571Y-123836133D01*
X156265428Y-123836133D01*
X156360666Y-123883752D01*
X156408285Y-123931371D01*
X156455904Y-124026609D01*
X156455904Y-124264704D01*
X156408285Y-124359942D01*
X156360666Y-124407561D01*
X156265428Y-124455180D01*
X155979714Y-124455180D01*
X155884476Y-124407561D01*
X155836857Y-124359942D01*
%TO.C,U8*%
X162979095Y-90564580D02*
X162979095Y-91374104D01*
X163026714Y-91469342D01*
X163074333Y-91516961D01*
X163169571Y-91564580D01*
X163360047Y-91564580D01*
X163455285Y-91516961D01*
X163502904Y-91469342D01*
X163550523Y-91374104D01*
X163550523Y-90564580D01*
X164169571Y-90993152D02*
X164074333Y-90945533D01*
X164026714Y-90897914D01*
X163979095Y-90802676D01*
X163979095Y-90755057D01*
X164026714Y-90659819D01*
X164074333Y-90612200D01*
X164169571Y-90564580D01*
X164360047Y-90564580D01*
X164455285Y-90612200D01*
X164502904Y-90659819D01*
X164550523Y-90755057D01*
X164550523Y-90802676D01*
X164502904Y-90897914D01*
X164455285Y-90945533D01*
X164360047Y-90993152D01*
X164169571Y-90993152D01*
X164074333Y-91040771D01*
X164026714Y-91088390D01*
X163979095Y-91183628D01*
X163979095Y-91374104D01*
X164026714Y-91469342D01*
X164074333Y-91516961D01*
X164169571Y-91564580D01*
X164360047Y-91564580D01*
X164455285Y-91516961D01*
X164502904Y-91469342D01*
X164550523Y-91374104D01*
X164550523Y-91183628D01*
X164502904Y-91088390D01*
X164455285Y-91040771D01*
X164360047Y-90993152D01*
%TO.C,D1*%
X137793504Y-63799980D02*
X137793504Y-62799980D01*
X138031600Y-62799980D01*
X138174457Y-62847600D01*
X138269695Y-62942838D01*
X138317314Y-63038076D01*
X138364933Y-63228552D01*
X138364933Y-63371409D01*
X138317314Y-63561885D01*
X138269695Y-63657123D01*
X138174457Y-63752361D01*
X138031600Y-63799980D01*
X137793504Y-63799980D01*
X139317314Y-63799980D02*
X138745885Y-63799980D01*
X139031600Y-63799980D02*
X139031600Y-62799980D01*
X138936361Y-62942838D01*
X138841123Y-63038076D01*
X138745885Y-63085695D01*
%TO.C,L1*%
X111999733Y-109875580D02*
X111523542Y-109875580D01*
X111523542Y-108875580D01*
X112856876Y-109875580D02*
X112285447Y-109875580D01*
X112571161Y-109875580D02*
X112571161Y-108875580D01*
X112475923Y-109018438D01*
X112380685Y-109113676D01*
X112285447Y-109161295D01*
%TO.C,C20*%
X158808000Y-99437000D02*
X158774666Y-99470333D01*
X158674666Y-99503666D01*
X158608000Y-99503666D01*
X158508000Y-99470333D01*
X158441333Y-99403666D01*
X158408000Y-99337000D01*
X158374666Y-99203666D01*
X158374666Y-99103666D01*
X158408000Y-98970333D01*
X158441333Y-98903666D01*
X158508000Y-98837000D01*
X158608000Y-98803666D01*
X158674666Y-98803666D01*
X158774666Y-98837000D01*
X158808000Y-98870333D01*
X159074666Y-98870333D02*
X159108000Y-98837000D01*
X159174666Y-98803666D01*
X159341333Y-98803666D01*
X159408000Y-98837000D01*
X159441333Y-98870333D01*
X159474666Y-98937000D01*
X159474666Y-99003666D01*
X159441333Y-99103666D01*
X159041333Y-99503666D01*
X159474666Y-99503666D01*
X159908000Y-98803666D02*
X159974666Y-98803666D01*
X160041333Y-98837000D01*
X160074666Y-98870333D01*
X160108000Y-98937000D01*
X160141333Y-99070333D01*
X160141333Y-99237000D01*
X160108000Y-99370333D01*
X160074666Y-99437000D01*
X160041333Y-99470333D01*
X159974666Y-99503666D01*
X159908000Y-99503666D01*
X159841333Y-99470333D01*
X159808000Y-99437000D01*
X159774666Y-99370333D01*
X159741333Y-99237000D01*
X159741333Y-99070333D01*
X159774666Y-98937000D01*
X159808000Y-98870333D01*
X159841333Y-98837000D01*
X159908000Y-98803666D01*
%TO.C,C18*%
X179455742Y-83239742D02*
X179408123Y-83287361D01*
X179265266Y-83334980D01*
X179170028Y-83334980D01*
X179027171Y-83287361D01*
X178931933Y-83192123D01*
X178884314Y-83096885D01*
X178836695Y-82906409D01*
X178836695Y-82763552D01*
X178884314Y-82573076D01*
X178931933Y-82477838D01*
X179027171Y-82382600D01*
X179170028Y-82334980D01*
X179265266Y-82334980D01*
X179408123Y-82382600D01*
X179455742Y-82430219D01*
X180408123Y-83334980D02*
X179836695Y-83334980D01*
X180122409Y-83334980D02*
X180122409Y-82334980D01*
X180027171Y-82477838D01*
X179931933Y-82573076D01*
X179836695Y-82620695D01*
X180979552Y-82763552D02*
X180884314Y-82715933D01*
X180836695Y-82668314D01*
X180789076Y-82573076D01*
X180789076Y-82525457D01*
X180836695Y-82430219D01*
X180884314Y-82382600D01*
X180979552Y-82334980D01*
X181170028Y-82334980D01*
X181265266Y-82382600D01*
X181312885Y-82430219D01*
X181360504Y-82525457D01*
X181360504Y-82573076D01*
X181312885Y-82668314D01*
X181265266Y-82715933D01*
X181170028Y-82763552D01*
X180979552Y-82763552D01*
X180884314Y-82811171D01*
X180836695Y-82858790D01*
X180789076Y-82954028D01*
X180789076Y-83144504D01*
X180836695Y-83239742D01*
X180884314Y-83287361D01*
X180979552Y-83334980D01*
X181170028Y-83334980D01*
X181265266Y-83287361D01*
X181312885Y-83239742D01*
X181360504Y-83144504D01*
X181360504Y-82954028D01*
X181312885Y-82858790D01*
X181265266Y-82811171D01*
X181170028Y-82763552D01*
X181349695Y-89096685D02*
X181311600Y-89058590D01*
X181273504Y-88982400D01*
X181273504Y-88791923D01*
X181311600Y-88715733D01*
X181349695Y-88677638D01*
X181425885Y-88639542D01*
X181502076Y-88639542D01*
X181616361Y-88677638D01*
X182073504Y-89134780D01*
X182073504Y-88639542D01*
X181349695Y-88334780D02*
X181311600Y-88296685D01*
X181273504Y-88220495D01*
X181273504Y-88030019D01*
X181311600Y-87953828D01*
X181349695Y-87915733D01*
X181425885Y-87877638D01*
X181502076Y-87877638D01*
X181616361Y-87915733D01*
X182073504Y-88372876D01*
X182073504Y-87877638D01*
X181540171Y-87191923D02*
X182073504Y-87191923D01*
X181540171Y-87534780D02*
X181959219Y-87534780D01*
X182035409Y-87496685D01*
X182073504Y-87420495D01*
X182073504Y-87306209D01*
X182035409Y-87230019D01*
X181997314Y-87191923D01*
X181654457Y-86544304D02*
X181654457Y-86810971D01*
X182073504Y-86810971D02*
X181273504Y-86810971D01*
X181273504Y-86430019D01*
X179792380Y-92506800D02*
X180030476Y-92506800D01*
X179935238Y-92744895D02*
X180030476Y-92506800D01*
X179935238Y-92268704D01*
X180220952Y-92649657D02*
X180030476Y-92506800D01*
X180220952Y-92363942D01*
%TO.C,U4*%
X189234095Y-81584180D02*
X189234095Y-82393704D01*
X189281714Y-82488942D01*
X189329333Y-82536561D01*
X189424571Y-82584180D01*
X189615047Y-82584180D01*
X189710285Y-82536561D01*
X189757904Y-82488942D01*
X189805523Y-82393704D01*
X189805523Y-81584180D01*
X190710285Y-81917514D02*
X190710285Y-82584180D01*
X190472190Y-81536561D02*
X190234095Y-82250847D01*
X190853142Y-82250847D01*
%TO.C,C11*%
X142397142Y-114202342D02*
X142349523Y-114249961D01*
X142206666Y-114297580D01*
X142111428Y-114297580D01*
X141968571Y-114249961D01*
X141873333Y-114154723D01*
X141825714Y-114059485D01*
X141778095Y-113869009D01*
X141778095Y-113726152D01*
X141825714Y-113535676D01*
X141873333Y-113440438D01*
X141968571Y-113345200D01*
X142111428Y-113297580D01*
X142206666Y-113297580D01*
X142349523Y-113345200D01*
X142397142Y-113392819D01*
X143349523Y-114297580D02*
X142778095Y-114297580D01*
X143063809Y-114297580D02*
X143063809Y-113297580D01*
X142968571Y-113440438D01*
X142873333Y-113535676D01*
X142778095Y-113583295D01*
X144301904Y-114297580D02*
X143730476Y-114297580D01*
X144016190Y-114297580D02*
X144016190Y-113297580D01*
X143920952Y-113440438D01*
X143825714Y-113535676D01*
X143730476Y-113583295D01*
%TO.C,L5*%
X206208333Y-86888580D02*
X205732142Y-86888580D01*
X205732142Y-85888580D01*
X207017857Y-85888580D02*
X206541666Y-85888580D01*
X206494047Y-86364771D01*
X206541666Y-86317152D01*
X206636904Y-86269533D01*
X206875000Y-86269533D01*
X206970238Y-86317152D01*
X207017857Y-86364771D01*
X207065476Y-86460009D01*
X207065476Y-86698104D01*
X207017857Y-86793342D01*
X206970238Y-86840961D01*
X206875000Y-86888580D01*
X206636904Y-86888580D01*
X206541666Y-86840961D01*
X206494047Y-86793342D01*
%TO.C,L4*%
X183094333Y-78176380D02*
X182618142Y-78176380D01*
X182618142Y-77176380D01*
X183856238Y-77509714D02*
X183856238Y-78176380D01*
X183618142Y-77128761D02*
X183380047Y-77843047D01*
X183999095Y-77843047D01*
%TO.C,RV1*%
X172594561Y-81582380D02*
X172261228Y-81106190D01*
X172023133Y-81582380D02*
X172023133Y-80582380D01*
X172404085Y-80582380D01*
X172499323Y-80630000D01*
X172546942Y-80677619D01*
X172594561Y-80772857D01*
X172594561Y-80915714D01*
X172546942Y-81010952D01*
X172499323Y-81058571D01*
X172404085Y-81106190D01*
X172023133Y-81106190D01*
X172880276Y-80582380D02*
X173213609Y-81582380D01*
X173546942Y-80582380D01*
X174404085Y-81582380D02*
X173832657Y-81582380D01*
X174118371Y-81582380D02*
X174118371Y-80582380D01*
X174023133Y-80725238D01*
X173927895Y-80820476D01*
X173832657Y-80868095D01*
%TO.C,U2*%
X157162495Y-106083980D02*
X157162495Y-106893504D01*
X157210114Y-106988742D01*
X157257733Y-107036361D01*
X157352971Y-107083980D01*
X157543447Y-107083980D01*
X157638685Y-107036361D01*
X157686304Y-106988742D01*
X157733923Y-106893504D01*
X157733923Y-106083980D01*
X158162495Y-106179219D02*
X158210114Y-106131600D01*
X158305352Y-106083980D01*
X158543447Y-106083980D01*
X158638685Y-106131600D01*
X158686304Y-106179219D01*
X158733923Y-106274457D01*
X158733923Y-106369695D01*
X158686304Y-106512552D01*
X158114876Y-107083980D01*
X158733923Y-107083980D01*
%TO.C,C16*%
X145419942Y-102869142D02*
X145372323Y-102916761D01*
X145229466Y-102964380D01*
X145134228Y-102964380D01*
X144991371Y-102916761D01*
X144896133Y-102821523D01*
X144848514Y-102726285D01*
X144800895Y-102535809D01*
X144800895Y-102392952D01*
X144848514Y-102202476D01*
X144896133Y-102107238D01*
X144991371Y-102012000D01*
X145134228Y-101964380D01*
X145229466Y-101964380D01*
X145372323Y-102012000D01*
X145419942Y-102059619D01*
X146372323Y-102964380D02*
X145800895Y-102964380D01*
X146086609Y-102964380D02*
X146086609Y-101964380D01*
X145991371Y-102107238D01*
X145896133Y-102202476D01*
X145800895Y-102250095D01*
X147229466Y-101964380D02*
X147038990Y-101964380D01*
X146943752Y-102012000D01*
X146896133Y-102059619D01*
X146800895Y-102202476D01*
X146753276Y-102392952D01*
X146753276Y-102773904D01*
X146800895Y-102869142D01*
X146848514Y-102916761D01*
X146943752Y-102964380D01*
X147134228Y-102964380D01*
X147229466Y-102916761D01*
X147277085Y-102869142D01*
X147324704Y-102773904D01*
X147324704Y-102535809D01*
X147277085Y-102440571D01*
X147229466Y-102392952D01*
X147134228Y-102345333D01*
X146943752Y-102345333D01*
X146848514Y-102392952D01*
X146800895Y-102440571D01*
X146753276Y-102535809D01*
%TO.C,L3*%
X160310533Y-88387180D02*
X159834342Y-88387180D01*
X159834342Y-87387180D01*
X160548628Y-87387180D02*
X161167676Y-87387180D01*
X160834342Y-87768133D01*
X160977200Y-87768133D01*
X161072438Y-87815752D01*
X161120057Y-87863371D01*
X161167676Y-87958609D01*
X161167676Y-88196704D01*
X161120057Y-88291942D01*
X161072438Y-88339561D01*
X160977200Y-88387180D01*
X160691485Y-88387180D01*
X160596247Y-88339561D01*
X160548628Y-88291942D01*
%TO.C,Q1*%
X165042761Y-81703019D02*
X164947523Y-81655400D01*
X164852285Y-81560161D01*
X164709428Y-81417304D01*
X164614190Y-81369685D01*
X164518952Y-81369685D01*
X164566571Y-81607780D02*
X164471333Y-81560161D01*
X164376095Y-81464923D01*
X164328476Y-81274447D01*
X164328476Y-80941114D01*
X164376095Y-80750638D01*
X164471333Y-80655400D01*
X164566571Y-80607780D01*
X164757047Y-80607780D01*
X164852285Y-80655400D01*
X164947523Y-80750638D01*
X164995142Y-80941114D01*
X164995142Y-81274447D01*
X164947523Y-81464923D01*
X164852285Y-81560161D01*
X164757047Y-81607780D01*
X164566571Y-81607780D01*
X165947523Y-81607780D02*
X165376095Y-81607780D01*
X165661809Y-81607780D02*
X165661809Y-80607780D01*
X165566571Y-80750638D01*
X165471333Y-80845876D01*
X165376095Y-80893495D01*
%TO.C,R1*%
X160729533Y-83792180D02*
X160396200Y-83315990D01*
X160158104Y-83792180D02*
X160158104Y-82792180D01*
X160539057Y-82792180D01*
X160634295Y-82839800D01*
X160681914Y-82887419D01*
X160729533Y-82982657D01*
X160729533Y-83125514D01*
X160681914Y-83220752D01*
X160634295Y-83268371D01*
X160539057Y-83315990D01*
X160158104Y-83315990D01*
X161681914Y-83792180D02*
X161110485Y-83792180D01*
X161396200Y-83792180D02*
X161396200Y-82792180D01*
X161300961Y-82935038D01*
X161205723Y-83030276D01*
X161110485Y-83077895D01*
%TO.C,D5*%
X148156704Y-116606580D02*
X148156704Y-115606580D01*
X148394800Y-115606580D01*
X148537657Y-115654200D01*
X148632895Y-115749438D01*
X148680514Y-115844676D01*
X148728133Y-116035152D01*
X148728133Y-116178009D01*
X148680514Y-116368485D01*
X148632895Y-116463723D01*
X148537657Y-116558961D01*
X148394800Y-116606580D01*
X148156704Y-116606580D01*
X149632895Y-115606580D02*
X149156704Y-115606580D01*
X149109085Y-116082771D01*
X149156704Y-116035152D01*
X149251942Y-115987533D01*
X149490038Y-115987533D01*
X149585276Y-116035152D01*
X149632895Y-116082771D01*
X149680514Y-116178009D01*
X149680514Y-116416104D01*
X149632895Y-116511342D01*
X149585276Y-116558961D01*
X149490038Y-116606580D01*
X149251942Y-116606580D01*
X149156704Y-116558961D01*
X149109085Y-116511342D01*
D15*
%TO.C,U1*%
X174266980Y-92801923D02*
X174266980Y-93830019D01*
X174327457Y-93950971D01*
X174387933Y-94011447D01*
X174508885Y-94071923D01*
X174750790Y-94071923D01*
X174871742Y-94011447D01*
X174932219Y-93950971D01*
X174992695Y-93830019D01*
X174992695Y-92801923D01*
X176262695Y-94071923D02*
X175536980Y-94071923D01*
X175899838Y-94071923D02*
X175899838Y-92801923D01*
X175778885Y-92983352D01*
X175657933Y-93104304D01*
X175536980Y-93164780D01*
D12*
%TO.C,J1*%
X159184380Y-68938333D02*
X159898666Y-68938333D01*
X160041523Y-68985952D01*
X160136761Y-69081190D01*
X160184380Y-69224047D01*
X160184380Y-69319285D01*
X160184380Y-67938333D02*
X160184380Y-68509761D01*
X160184380Y-68224047D02*
X159184380Y-68224047D01*
X159327238Y-68319285D01*
X159422476Y-68414523D01*
X159470095Y-68509761D01*
%TO.C,R12*%
X160220142Y-127386580D02*
X159886809Y-126910390D01*
X159648714Y-127386580D02*
X159648714Y-126386580D01*
X160029666Y-126386580D01*
X160124904Y-126434200D01*
X160172523Y-126481819D01*
X160220142Y-126577057D01*
X160220142Y-126719914D01*
X160172523Y-126815152D01*
X160124904Y-126862771D01*
X160029666Y-126910390D01*
X159648714Y-126910390D01*
X161172523Y-127386580D02*
X160601095Y-127386580D01*
X160886809Y-127386580D02*
X160886809Y-126386580D01*
X160791571Y-126529438D01*
X160696333Y-126624676D01*
X160601095Y-126672295D01*
X161553476Y-126481819D02*
X161601095Y-126434200D01*
X161696333Y-126386580D01*
X161934428Y-126386580D01*
X162029666Y-126434200D01*
X162077285Y-126481819D01*
X162124904Y-126577057D01*
X162124904Y-126672295D01*
X162077285Y-126815152D01*
X161505857Y-127386580D01*
X162124904Y-127386580D01*
%TO.C,J5*%
X110963133Y-97406733D02*
X110963133Y-98406733D01*
X110896466Y-98606733D01*
X110763133Y-98740066D01*
X110563133Y-98806733D01*
X110429800Y-98806733D01*
X112296466Y-97406733D02*
X111629800Y-97406733D01*
X111563133Y-98073400D01*
X111629800Y-98006733D01*
X111763133Y-97940066D01*
X112096466Y-97940066D01*
X112229800Y-98006733D01*
X112296466Y-98073400D01*
X112363133Y-98206733D01*
X112363133Y-98540066D01*
X112296466Y-98673400D01*
X112229800Y-98740066D01*
X112096466Y-98806733D01*
X111763133Y-98806733D01*
X111629800Y-98740066D01*
X111563133Y-98673400D01*
%TO.C,RN1*%
X169936380Y-114355476D02*
X169460190Y-114688809D01*
X169936380Y-114926904D02*
X168936380Y-114926904D01*
X168936380Y-114545952D01*
X168984000Y-114450714D01*
X169031619Y-114403095D01*
X169126857Y-114355476D01*
X169269714Y-114355476D01*
X169364952Y-114403095D01*
X169412571Y-114450714D01*
X169460190Y-114545952D01*
X169460190Y-114926904D01*
X169936380Y-113926904D02*
X168936380Y-113926904D01*
X169936380Y-113355476D01*
X168936380Y-113355476D01*
X169936380Y-112355476D02*
X169936380Y-112926904D01*
X169936380Y-112641190D02*
X168936380Y-112641190D01*
X169079238Y-112736428D01*
X169174476Y-112831666D01*
X169222095Y-112926904D01*
%TO.C,J4*%
X116106533Y-116380533D02*
X116106533Y-117380533D01*
X116039866Y-117580533D01*
X115906533Y-117713866D01*
X115706533Y-117780533D01*
X115573200Y-117780533D01*
X117373200Y-116847200D02*
X117373200Y-117780533D01*
X117039866Y-116313866D02*
X116706533Y-117313866D01*
X117573200Y-117313866D01*
%TO.C,R14*%
X149607142Y-127457580D02*
X149273809Y-126981390D01*
X149035714Y-127457580D02*
X149035714Y-126457580D01*
X149416666Y-126457580D01*
X149511904Y-126505200D01*
X149559523Y-126552819D01*
X149607142Y-126648057D01*
X149607142Y-126790914D01*
X149559523Y-126886152D01*
X149511904Y-126933771D01*
X149416666Y-126981390D01*
X149035714Y-126981390D01*
X150559523Y-127457580D02*
X149988095Y-127457580D01*
X150273809Y-127457580D02*
X150273809Y-126457580D01*
X150178571Y-126600438D01*
X150083333Y-126695676D01*
X149988095Y-126743295D01*
X151416666Y-126790914D02*
X151416666Y-127457580D01*
X151178571Y-126409961D02*
X150940476Y-127124247D01*
X151559523Y-127124247D01*
%TO.C,Q2*%
X166020761Y-72683619D02*
X165925523Y-72636000D01*
X165830285Y-72540761D01*
X165687428Y-72397904D01*
X165592190Y-72350285D01*
X165496952Y-72350285D01*
X165544571Y-72588380D02*
X165449333Y-72540761D01*
X165354095Y-72445523D01*
X165306476Y-72255047D01*
X165306476Y-71921714D01*
X165354095Y-71731238D01*
X165449333Y-71636000D01*
X165544571Y-71588380D01*
X165735047Y-71588380D01*
X165830285Y-71636000D01*
X165925523Y-71731238D01*
X165973142Y-71921714D01*
X165973142Y-72255047D01*
X165925523Y-72445523D01*
X165830285Y-72540761D01*
X165735047Y-72588380D01*
X165544571Y-72588380D01*
X166354095Y-71683619D02*
X166401714Y-71636000D01*
X166496952Y-71588380D01*
X166735047Y-71588380D01*
X166830285Y-71636000D01*
X166877904Y-71683619D01*
X166925523Y-71778857D01*
X166925523Y-71874095D01*
X166877904Y-72016952D01*
X166306476Y-72588380D01*
X166925523Y-72588380D01*
%TO.C,C14*%
X137748942Y-114176942D02*
X137701323Y-114224561D01*
X137558466Y-114272180D01*
X137463228Y-114272180D01*
X137320371Y-114224561D01*
X137225133Y-114129323D01*
X137177514Y-114034085D01*
X137129895Y-113843609D01*
X137129895Y-113700752D01*
X137177514Y-113510276D01*
X137225133Y-113415038D01*
X137320371Y-113319800D01*
X137463228Y-113272180D01*
X137558466Y-113272180D01*
X137701323Y-113319800D01*
X137748942Y-113367419D01*
X138701323Y-114272180D02*
X138129895Y-114272180D01*
X138415609Y-114272180D02*
X138415609Y-113272180D01*
X138320371Y-113415038D01*
X138225133Y-113510276D01*
X138129895Y-113557895D01*
X139558466Y-113605514D02*
X139558466Y-114272180D01*
X139320371Y-113224561D02*
X139082276Y-113938847D01*
X139701323Y-113938847D01*
%TO.C,J3*%
X201323533Y-116024933D02*
X201323533Y-117024933D01*
X201256866Y-117224933D01*
X201123533Y-117358266D01*
X200923533Y-117424933D01*
X200790200Y-117424933D01*
X201856866Y-116024933D02*
X202723533Y-116024933D01*
X202256866Y-116558266D01*
X202456866Y-116558266D01*
X202590200Y-116624933D01*
X202656866Y-116691600D01*
X202723533Y-116824933D01*
X202723533Y-117158266D01*
X202656866Y-117291600D01*
X202590200Y-117358266D01*
X202456866Y-117424933D01*
X202056866Y-117424933D01*
X201923533Y-117358266D01*
X201856866Y-117291600D01*
%TO.C,F1*%
X169008466Y-126191971D02*
X168675133Y-126191971D01*
X168675133Y-126715780D02*
X168675133Y-125715780D01*
X169151323Y-125715780D01*
X170056085Y-126715780D02*
X169484657Y-126715780D01*
X169770371Y-126715780D02*
X169770371Y-125715780D01*
X169675133Y-125858638D01*
X169579895Y-125953876D01*
X169484657Y-126001495D01*
%TO.C,C19*%
X185932742Y-83239742D02*
X185885123Y-83287361D01*
X185742266Y-83334980D01*
X185647028Y-83334980D01*
X185504171Y-83287361D01*
X185408933Y-83192123D01*
X185361314Y-83096885D01*
X185313695Y-82906409D01*
X185313695Y-82763552D01*
X185361314Y-82573076D01*
X185408933Y-82477838D01*
X185504171Y-82382600D01*
X185647028Y-82334980D01*
X185742266Y-82334980D01*
X185885123Y-82382600D01*
X185932742Y-82430219D01*
X186885123Y-83334980D02*
X186313695Y-83334980D01*
X186599409Y-83334980D02*
X186599409Y-82334980D01*
X186504171Y-82477838D01*
X186408933Y-82573076D01*
X186313695Y-82620695D01*
X187361314Y-83334980D02*
X187551790Y-83334980D01*
X187647028Y-83287361D01*
X187694647Y-83239742D01*
X187789885Y-83096885D01*
X187837504Y-82906409D01*
X187837504Y-82525457D01*
X187789885Y-82430219D01*
X187742266Y-82382600D01*
X187647028Y-82334980D01*
X187456552Y-82334980D01*
X187361314Y-82382600D01*
X187313695Y-82430219D01*
X187266076Y-82525457D01*
X187266076Y-82763552D01*
X187313695Y-82858790D01*
X187361314Y-82906409D01*
X187456552Y-82954028D01*
X187647028Y-82954028D01*
X187742266Y-82906409D01*
X187789885Y-82858790D01*
X187837504Y-82763552D01*
X187801295Y-89099085D02*
X187763200Y-89060990D01*
X187725104Y-88984800D01*
X187725104Y-88794323D01*
X187763200Y-88718133D01*
X187801295Y-88680038D01*
X187877485Y-88641942D01*
X187953676Y-88641942D01*
X188067961Y-88680038D01*
X188525104Y-89137180D01*
X188525104Y-88641942D01*
X187801295Y-88337180D02*
X187763200Y-88299085D01*
X187725104Y-88222895D01*
X187725104Y-88032419D01*
X187763200Y-87956228D01*
X187801295Y-87918133D01*
X187877485Y-87880038D01*
X187953676Y-87880038D01*
X188067961Y-87918133D01*
X188525104Y-88375276D01*
X188525104Y-87880038D01*
X187991771Y-87194323D02*
X188525104Y-87194323D01*
X187991771Y-87537180D02*
X188410819Y-87537180D01*
X188487009Y-87499085D01*
X188525104Y-87422895D01*
X188525104Y-87308609D01*
X188487009Y-87232419D01*
X188448914Y-87194323D01*
X188106057Y-86546704D02*
X188106057Y-86813371D01*
X188525104Y-86813371D02*
X187725104Y-86813371D01*
X187725104Y-86432419D01*
X188326780Y-83210400D02*
X188564876Y-83210400D01*
X188469638Y-83448495D02*
X188564876Y-83210400D01*
X188469638Y-82972304D01*
X188755352Y-83353257D02*
X188564876Y-83210400D01*
X188755352Y-83067542D01*
%TO.C,U6*%
X157268495Y-119729980D02*
X157268495Y-120539504D01*
X157316114Y-120634742D01*
X157363733Y-120682361D01*
X157458971Y-120729980D01*
X157649447Y-120729980D01*
X157744685Y-120682361D01*
X157792304Y-120634742D01*
X157839923Y-120539504D01*
X157839923Y-119729980D01*
X158744685Y-119729980D02*
X158554209Y-119729980D01*
X158458971Y-119777600D01*
X158411352Y-119825219D01*
X158316114Y-119968076D01*
X158268495Y-120158552D01*
X158268495Y-120539504D01*
X158316114Y-120634742D01*
X158363733Y-120682361D01*
X158458971Y-120729980D01*
X158649447Y-120729980D01*
X158744685Y-120682361D01*
X158792304Y-120634742D01*
X158839923Y-120539504D01*
X158839923Y-120301409D01*
X158792304Y-120206171D01*
X158744685Y-120158552D01*
X158649447Y-120110933D01*
X158458971Y-120110933D01*
X158363733Y-120158552D01*
X158316114Y-120206171D01*
X158268495Y-120301409D01*
%TO.C,R5*%
X169034733Y-99878666D02*
X168801400Y-99545333D01*
X168634733Y-99878666D02*
X168634733Y-99178666D01*
X168901400Y-99178666D01*
X168968066Y-99212000D01*
X169001400Y-99245333D01*
X169034733Y-99312000D01*
X169034733Y-99412000D01*
X169001400Y-99478666D01*
X168968066Y-99512000D01*
X168901400Y-99545333D01*
X168634733Y-99545333D01*
X169668066Y-99178666D02*
X169334733Y-99178666D01*
X169301400Y-99512000D01*
X169334733Y-99478666D01*
X169401400Y-99445333D01*
X169568066Y-99445333D01*
X169634733Y-99478666D01*
X169668066Y-99512000D01*
X169701400Y-99578666D01*
X169701400Y-99745333D01*
X169668066Y-99812000D01*
X169634733Y-99845333D01*
X169568066Y-99878666D01*
X169401400Y-99878666D01*
X169334733Y-99845333D01*
X169301400Y-99812000D01*
%TO.C,R2*%
X167930533Y-88488780D02*
X167597200Y-88012590D01*
X167359104Y-88488780D02*
X167359104Y-87488780D01*
X167740057Y-87488780D01*
X167835295Y-87536400D01*
X167882914Y-87584019D01*
X167930533Y-87679257D01*
X167930533Y-87822114D01*
X167882914Y-87917352D01*
X167835295Y-87964971D01*
X167740057Y-88012590D01*
X167359104Y-88012590D01*
X168311485Y-87584019D02*
X168359104Y-87536400D01*
X168454342Y-87488780D01*
X168692438Y-87488780D01*
X168787676Y-87536400D01*
X168835295Y-87584019D01*
X168882914Y-87679257D01*
X168882914Y-87774495D01*
X168835295Y-87917352D01*
X168263866Y-88488780D01*
X168882914Y-88488780D01*
%TO.C,C15*%
X142486142Y-106097342D02*
X142438523Y-106144961D01*
X142295666Y-106192580D01*
X142200428Y-106192580D01*
X142057571Y-106144961D01*
X141962333Y-106049723D01*
X141914714Y-105954485D01*
X141867095Y-105764009D01*
X141867095Y-105621152D01*
X141914714Y-105430676D01*
X141962333Y-105335438D01*
X142057571Y-105240200D01*
X142200428Y-105192580D01*
X142295666Y-105192580D01*
X142438523Y-105240200D01*
X142486142Y-105287819D01*
X143438523Y-106192580D02*
X142867095Y-106192580D01*
X143152809Y-106192580D02*
X143152809Y-105192580D01*
X143057571Y-105335438D01*
X142962333Y-105430676D01*
X142867095Y-105478295D01*
X144343285Y-105192580D02*
X143867095Y-105192580D01*
X143819476Y-105668771D01*
X143867095Y-105621152D01*
X143962333Y-105573533D01*
X144200428Y-105573533D01*
X144295666Y-105621152D01*
X144343285Y-105668771D01*
X144390904Y-105764009D01*
X144390904Y-106002104D01*
X144343285Y-106097342D01*
X144295666Y-106144961D01*
X144200428Y-106192580D01*
X143962333Y-106192580D01*
X143867095Y-106144961D01*
X143819476Y-106097342D01*
%TO.C,U7*%
X146998895Y-119726580D02*
X146998895Y-120536104D01*
X147046514Y-120631342D01*
X147094133Y-120678961D01*
X147189371Y-120726580D01*
X147379847Y-120726580D01*
X147475085Y-120678961D01*
X147522704Y-120631342D01*
X147570323Y-120536104D01*
X147570323Y-119726580D01*
X147951276Y-119726580D02*
X148617942Y-119726580D01*
X148189371Y-120726580D01*
%TO.C,D3*%
X195679019Y-77634923D02*
X195679019Y-76994923D01*
X195831400Y-76994923D01*
X195922828Y-77025400D01*
X195983780Y-77086352D01*
X196014257Y-77147304D01*
X196044733Y-77269209D01*
X196044733Y-77360638D01*
X196014257Y-77482542D01*
X195983780Y-77543495D01*
X195922828Y-77604447D01*
X195831400Y-77634923D01*
X195679019Y-77634923D01*
X196258066Y-76994923D02*
X196654257Y-76994923D01*
X196440923Y-77238733D01*
X196532352Y-77238733D01*
X196593304Y-77269209D01*
X196623780Y-77299685D01*
X196654257Y-77360638D01*
X196654257Y-77513019D01*
X196623780Y-77573971D01*
X196593304Y-77604447D01*
X196532352Y-77634923D01*
X196349495Y-77634923D01*
X196288542Y-77604447D01*
X196258066Y-77573971D01*
%TO.C,RN2*%
X164652428Y-105444857D02*
X164252428Y-104873428D01*
X163966714Y-105444857D02*
X163966714Y-104244857D01*
X164423857Y-104244857D01*
X164538142Y-104302000D01*
X164595285Y-104359142D01*
X164652428Y-104473428D01*
X164652428Y-104644857D01*
X164595285Y-104759142D01*
X164538142Y-104816285D01*
X164423857Y-104873428D01*
X163966714Y-104873428D01*
X165166714Y-105444857D02*
X165166714Y-104244857D01*
X165852428Y-105444857D01*
X165852428Y-104244857D01*
X166366714Y-104359142D02*
X166423857Y-104302000D01*
X166538142Y-104244857D01*
X166823857Y-104244857D01*
X166938142Y-104302000D01*
X166995285Y-104359142D01*
X167052428Y-104473428D01*
X167052428Y-104587714D01*
X166995285Y-104759142D01*
X166309571Y-105444857D01*
X167052428Y-105444857D01*
%TO.C,R3*%
X164425333Y-76779380D02*
X164092000Y-76303190D01*
X163853904Y-76779380D02*
X163853904Y-75779380D01*
X164234857Y-75779380D01*
X164330095Y-75827000D01*
X164377714Y-75874619D01*
X164425333Y-75969857D01*
X164425333Y-76112714D01*
X164377714Y-76207952D01*
X164330095Y-76255571D01*
X164234857Y-76303190D01*
X163853904Y-76303190D01*
X164758666Y-75779380D02*
X165377714Y-75779380D01*
X165044380Y-76160333D01*
X165187238Y-76160333D01*
X165282476Y-76207952D01*
X165330095Y-76255571D01*
X165377714Y-76350809D01*
X165377714Y-76588904D01*
X165330095Y-76684142D01*
X165282476Y-76731761D01*
X165187238Y-76779380D01*
X164901523Y-76779380D01*
X164806285Y-76731761D01*
X164758666Y-76684142D01*
%TO.C,J6*%
X190134933Y-69134133D02*
X190134933Y-70134133D01*
X190068266Y-70334133D01*
X189934933Y-70467466D01*
X189734933Y-70534133D01*
X189601600Y-70534133D01*
X191401600Y-69134133D02*
X191134933Y-69134133D01*
X191001600Y-69200800D01*
X190934933Y-69267466D01*
X190801600Y-69467466D01*
X190734933Y-69734133D01*
X190734933Y-70267466D01*
X190801600Y-70400800D01*
X190868266Y-70467466D01*
X191001600Y-70534133D01*
X191268266Y-70534133D01*
X191401600Y-70467466D01*
X191468266Y-70400800D01*
X191534933Y-70267466D01*
X191534933Y-69934133D01*
X191468266Y-69800800D01*
X191401600Y-69734133D01*
X191268266Y-69667466D01*
X191001600Y-69667466D01*
X190868266Y-69734133D01*
X190801600Y-69800800D01*
X190734933Y-69934133D01*
%TO.C,U3*%
X139966695Y-106007780D02*
X139966695Y-106817304D01*
X140014314Y-106912542D01*
X140061933Y-106960161D01*
X140157171Y-107007780D01*
X140347647Y-107007780D01*
X140442885Y-106960161D01*
X140490504Y-106912542D01*
X140538123Y-106817304D01*
X140538123Y-106007780D01*
X140919076Y-106007780D02*
X141538123Y-106007780D01*
X141204790Y-106388733D01*
X141347647Y-106388733D01*
X141442885Y-106436352D01*
X141490504Y-106483971D01*
X141538123Y-106579209D01*
X141538123Y-106817304D01*
X141490504Y-106912542D01*
X141442885Y-106960161D01*
X141347647Y-107007780D01*
X141061933Y-107007780D01*
X140966695Y-106960161D01*
X140919076Y-106912542D01*
%TO.C,L2*%
X129989283Y-107767380D02*
X129513092Y-107767380D01*
X129513092Y-106767380D01*
X130274997Y-106862619D02*
X130322616Y-106815000D01*
X130417854Y-106767380D01*
X130655950Y-106767380D01*
X130751188Y-106815000D01*
X130798807Y-106862619D01*
X130846426Y-106957857D01*
X130846426Y-107053095D01*
X130798807Y-107195952D01*
X130227378Y-107767380D01*
X130846426Y-107767380D01*
%TO.C,R4*%
X159269133Y-97607380D02*
X158935800Y-97131190D01*
X158697704Y-97607380D02*
X158697704Y-96607380D01*
X159078657Y-96607380D01*
X159173895Y-96655000D01*
X159221514Y-96702619D01*
X159269133Y-96797857D01*
X159269133Y-96940714D01*
X159221514Y-97035952D01*
X159173895Y-97083571D01*
X159078657Y-97131190D01*
X158697704Y-97131190D01*
X160126276Y-96940714D02*
X160126276Y-97607380D01*
X159888180Y-96559761D02*
X159650085Y-97274047D01*
X160269133Y-97274047D01*
D16*
%TO.C,J2*%
X155692000Y-92635000D02*
X155692000Y-95295000D01*
X109912000Y-92635000D02*
X109912000Y-95295000D01*
X155692000Y-92635000D02*
X109912000Y-92635000D01*
X158292000Y-95295000D02*
X156962000Y-95295000D01*
X155692000Y-95295000D02*
X109912000Y-95295000D01*
X158292000Y-93965000D02*
X158292000Y-95295000D01*
%TO.C,C17*%
X166610420Y-102364000D02*
X166891580Y-102364000D01*
X166610420Y-101344000D02*
X166891580Y-101344000D01*
%TO.C,R13*%
X154931342Y-122032500D02*
X155405858Y-122032500D01*
X154931342Y-123077500D02*
X155405858Y-123077500D01*
D12*
%TO.C,U8*%
X164529000Y-95099400D02*
X164654000Y-95099400D01*
X167779000Y-95099400D02*
X167554000Y-95099400D01*
X164529000Y-95099400D02*
X164529000Y-91849400D01*
X164529000Y-91849400D02*
X164754000Y-91849400D01*
X164654000Y-95099400D02*
X164654000Y-96174400D01*
X167779000Y-95099400D02*
X167779000Y-91849400D01*
X167779000Y-91849400D02*
X167554000Y-91849400D01*
D16*
%TO.C,D1*%
X139676200Y-61811800D02*
X139676200Y-64096800D01*
X141146200Y-61811800D02*
X139676200Y-61811800D01*
X141146200Y-64096800D02*
X141146200Y-61811800D01*
%TO.C,L1*%
X110693200Y-111698353D02*
X110693200Y-112431247D01*
X113639600Y-112431247D02*
X113639600Y-111698353D01*
%TO.C,C20*%
X161733620Y-98677000D02*
X162014780Y-98677000D01*
X161733620Y-99697000D02*
X162014780Y-99697000D01*
%TO.C,C18*%
X181625140Y-91785300D02*
X182473500Y-91785300D01*
X177622100Y-91785300D02*
X178470460Y-91785300D01*
X182473500Y-91785300D02*
X182473500Y-83936700D01*
X177622100Y-83936700D02*
X177622100Y-91785300D01*
X178470460Y-83936700D02*
X177622100Y-83936700D01*
X182473500Y-83936700D02*
X181625140Y-83936700D01*
%TO.C,TP2*%
X205470800Y-117566400D02*
X205470800Y-119466400D01*
X203570800Y-119466400D02*
X203570800Y-117566400D01*
X205470800Y-119466400D02*
X203570800Y-119466400D01*
X203570800Y-117566400D02*
X205470800Y-117566400D01*
%TO.C,U4*%
X191120000Y-112440000D02*
X204620000Y-112440000D01*
X204620000Y-112440000D02*
X204620000Y-81440000D01*
X204620000Y-81440000D02*
X191120000Y-81440000D01*
X191120000Y-81440000D02*
X191120000Y-112440000D01*
%TO.C,C11*%
X142797820Y-111862000D02*
X143078980Y-111862000D01*
X142797820Y-112882000D02*
X143078980Y-112882000D01*
%TO.C,L5*%
X204901800Y-88838353D02*
X204901800Y-89571247D01*
X207848200Y-89571247D02*
X207848200Y-88838353D01*
%TO.C,L4*%
X184734200Y-80681247D02*
X184734200Y-79948353D01*
X181787800Y-79948353D02*
X181787800Y-80681247D01*
%TO.C,RV1*%
X170634400Y-91755400D02*
X170634400Y-81985400D01*
X170634400Y-81985400D02*
X175704400Y-81985400D01*
X170634400Y-91755400D02*
X175704400Y-91755400D01*
X175704400Y-91755400D02*
X175704400Y-81985400D01*
D17*
%TO.C,U2*%
X155248200Y-102526600D02*
X150848200Y-102526600D01*
X155248200Y-110726600D02*
X150848200Y-110726600D01*
D18*
X157588200Y-110611600D02*
G75*
G03*
X157588200Y-110611600I-100000J0D01*
G01*
D16*
%TO.C,C16*%
X146241380Y-103426800D02*
X145960220Y-103426800D01*
X146241380Y-104446800D02*
X145960220Y-104446800D01*
%TO.C,L3*%
X164541200Y-88301247D02*
X164541200Y-87568353D01*
X161594800Y-87568353D02*
X161594800Y-88301247D01*
%TO.C,Q1*%
X168364400Y-81907200D02*
X168364400Y-83757200D01*
X165314400Y-81907200D02*
X166314400Y-81907200D01*
X165304400Y-81927200D02*
X165304400Y-84357200D01*
X167314400Y-81907200D02*
X168364400Y-81907200D01*
%TO.C,R1*%
X162024700Y-83602458D02*
X162024700Y-83127942D01*
X163069700Y-83602458D02*
X163069700Y-83127942D01*
%TO.C,D5*%
X147193200Y-115358800D02*
X151078200Y-115358800D01*
X151078200Y-113088800D02*
X147193200Y-113088800D01*
X151078200Y-115358800D02*
X151078200Y-113088800D01*
D18*
%TO.C,U1*%
X183625400Y-94363400D02*
X183625400Y-94363400D01*
X171315400Y-94913400D02*
X171315400Y-112413400D01*
X183625400Y-94263400D02*
X183625400Y-94263400D01*
X188315400Y-94913400D02*
X171315400Y-94913400D01*
X188315400Y-112413400D02*
X188315400Y-94913400D01*
X171315400Y-112413400D02*
X188315400Y-112413400D01*
X183625400Y-94263400D02*
X183625400Y-94263400D01*
X183625400Y-94263400D02*
G75*
G03*
X183625400Y-94363400I0J-50000D01*
G01*
X183625400Y-94263400D02*
G75*
G03*
X183625400Y-94363400I0J-50000D01*
G01*
X183625400Y-94363400D02*
G75*
G03*
X183625400Y-94263400I0J50000D01*
G01*
D16*
%TO.C,J1*%
X155692000Y-67275000D02*
X155692000Y-69935000D01*
X109912000Y-67275000D02*
X109912000Y-69935000D01*
X155692000Y-69935000D02*
X109912000Y-69935000D01*
X158292000Y-69935000D02*
X156962000Y-69935000D01*
X158292000Y-68605000D02*
X158292000Y-69935000D01*
X155692000Y-67275000D02*
X109912000Y-67275000D01*
%TO.C,R12*%
X160646342Y-124902700D02*
X161120858Y-124902700D01*
X160646342Y-125947700D02*
X161120858Y-125947700D01*
D17*
%TO.C,J5*%
X128270000Y-107647100D02*
X113030000Y-107647100D01*
X113030000Y-97397100D02*
X128270000Y-97397100D01*
X113030000Y-107647100D02*
X113030000Y-97397100D01*
X128270000Y-97397100D02*
X128270000Y-107647100D01*
D18*
X125830000Y-96397100D02*
G75*
G03*
X125830000Y-96397100I-100000J0D01*
G01*
D12*
%TO.C,RN1*%
X168559000Y-111590000D02*
X168084000Y-111590000D01*
X168559000Y-111590000D02*
X168559000Y-115740000D01*
X159609000Y-111590000D02*
X159609000Y-115740000D01*
X168084000Y-111590000D02*
X168084000Y-110465000D01*
X159609000Y-111590000D02*
X160166500Y-111590000D01*
X159609000Y-115740000D02*
X160166500Y-115740000D01*
X168559000Y-115740000D02*
X168001500Y-115740000D01*
D17*
%TO.C,J4*%
X118122600Y-126493900D02*
X118122600Y-116243900D01*
X118122600Y-116243900D02*
X143522600Y-116243900D01*
X143522600Y-126493900D02*
X118122600Y-126493900D01*
X143522600Y-116243900D02*
X143522600Y-126493900D01*
D18*
X141082600Y-115243900D02*
G75*
G03*
X141082600Y-115243900I-100000J0D01*
G01*
D16*
%TO.C,R14*%
X150029142Y-126023900D02*
X150503658Y-126023900D01*
X150029142Y-124978900D02*
X150503658Y-124978900D01*
%TO.C,Q2*%
X166216200Y-72811600D02*
X167216200Y-72811600D01*
X168216200Y-72811600D02*
X169266200Y-72811600D01*
X169266200Y-72811600D02*
X169266200Y-74661600D01*
X166206200Y-72831600D02*
X166206200Y-75261600D01*
%TO.C,C14*%
X138583180Y-112882000D02*
X138302020Y-112882000D01*
X138583180Y-111862000D02*
X138302020Y-111862000D01*
D17*
%TO.C,J3*%
X174891600Y-116006400D02*
X200291600Y-116006400D01*
X200291600Y-126256400D02*
X174891600Y-126256400D01*
X174891600Y-126256400D02*
X174891600Y-116006400D01*
X200291600Y-116006400D02*
X200291600Y-126256400D01*
D18*
X197851600Y-115006400D02*
G75*
G03*
X197851600Y-115006400I-100000J0D01*
G01*
D16*
%TO.C,F1*%
X168815936Y-123515800D02*
X170020064Y-123515800D01*
X168815936Y-121695800D02*
X170020064Y-121695800D01*
%TO.C,C19*%
X188925100Y-83885900D02*
X188076740Y-83885900D01*
X184073700Y-83885900D02*
X184073700Y-91734500D01*
X184922060Y-83885900D02*
X184073700Y-83885900D01*
X188076740Y-91734500D02*
X188925100Y-91734500D01*
X184073700Y-91734500D02*
X184922060Y-91734500D01*
X188925100Y-91734500D02*
X188925100Y-83885900D01*
D12*
%TO.C,U6*%
X162444600Y-123873400D02*
X159194600Y-123873400D01*
X159194600Y-123873400D02*
X159194600Y-123648400D01*
X159194600Y-120623400D02*
X159194600Y-120848400D01*
X162444600Y-120623400D02*
X162444600Y-120848400D01*
X162444600Y-120623400D02*
X159194600Y-120623400D01*
X162444600Y-123748400D02*
X163519600Y-123748400D01*
X162444600Y-123873400D02*
X162444600Y-123748400D01*
D16*
%TO.C,R5*%
X166513742Y-100090500D02*
X166988258Y-100090500D01*
X166513742Y-99045500D02*
X166988258Y-99045500D01*
%TO.C,R2*%
X167019500Y-87773742D02*
X167019500Y-88248258D01*
X165974500Y-87773742D02*
X165974500Y-88248258D01*
%TO.C,C15*%
X146241380Y-105154000D02*
X145960220Y-105154000D01*
X146241380Y-106174000D02*
X145960220Y-106174000D01*
D12*
%TO.C,U7*%
X151942200Y-120625200D02*
X151942200Y-120850200D01*
X151942200Y-120625200D02*
X148692200Y-120625200D01*
X151942200Y-123875200D02*
X151942200Y-123750200D01*
X148692200Y-120625200D02*
X148692200Y-120850200D01*
X151942200Y-123750200D02*
X153017200Y-123750200D01*
X151942200Y-123875200D02*
X148692200Y-123875200D01*
X148692200Y-123875200D02*
X148692200Y-123650200D01*
D17*
%TO.C,D3*%
X199372000Y-79453600D02*
X199372000Y-80283600D01*
X199372000Y-80283600D02*
X198517000Y-80283600D01*
X199372000Y-77383600D02*
X199372000Y-78213600D01*
X198517000Y-77383600D02*
X199372000Y-77383600D01*
D18*
X197707000Y-76718600D02*
G75*
G03*
X197707000Y-76718600I-100000J0D01*
G01*
D16*
%TO.C,TP1*%
X131658400Y-64246800D02*
X129758400Y-64246800D01*
X129758400Y-62346800D02*
X131658400Y-62346800D01*
X131658400Y-62346800D02*
X131658400Y-64246800D01*
X129758400Y-64246800D02*
X129758400Y-62346800D01*
D18*
%TO.C,RN2*%
X163198000Y-100616000D02*
G75*
G03*
X163198000Y-100616000I-100000J0D01*
G01*
D16*
%TO.C,R3*%
X163336500Y-76437258D02*
X163336500Y-75962742D01*
X162291500Y-76437258D02*
X162291500Y-75962742D01*
D17*
%TO.C,J6*%
X189242600Y-64927000D02*
X189242600Y-75177000D01*
X179082600Y-64927000D02*
X189242600Y-64927000D01*
X179082600Y-75177000D02*
X179082600Y-64927000D01*
X189242600Y-75177000D02*
X179082600Y-75177000D01*
D18*
X186802600Y-63927000D02*
G75*
G03*
X186802600Y-63927000I-100000J0D01*
G01*
D12*
%TO.C,U3*%
X145071400Y-110288600D02*
X141821400Y-110288600D01*
X145071400Y-110288600D02*
X145071400Y-110113600D01*
X145071400Y-107038600D02*
X145071400Y-107313600D01*
X141821400Y-110288600D02*
X141821400Y-110013600D01*
X145071400Y-110113600D02*
X146146400Y-110113600D01*
X145071400Y-107038600D02*
X141821400Y-107038600D01*
X141821400Y-107038600D02*
X141821400Y-107313600D01*
D16*
%TO.C,L2*%
X130420797Y-108204000D02*
X129687903Y-108204000D01*
X129687903Y-111150400D02*
X130420797Y-111150400D01*
%TO.C,R4*%
X161636942Y-96632500D02*
X162111458Y-96632500D01*
X161636942Y-97677500D02*
X162111458Y-97677500D01*
%TD*%
M02*
