M48
; DRILL file {KiCad (6.0.9)} date Wed Dec  7 15:22:33 2022
; FORMAT={-:-/ absolute / inch / decimal}
; #@! TF.CreationDate,2022-12-07T15:22:33-05:00
; #@! TF.GenerationSoftware,Kicad,Pcbnew,(6.0.9)
; #@! TF.FileFunction,Plated,1,4,PTH
FMAT,2
INCH
; #@! TA.AperFunction,Plated,PTH,ViaDrill
T1C0.0157
; #@! TA.AperFunction,Plated,PTH,ComponentDrill
T2C0.0276
; #@! TA.AperFunction,Plated,PTH,ComponentDrill
T3C0.0299
; #@! TA.AperFunction,Plated,PTH,ComponentDrill
T4C0.0300
; #@! TA.AperFunction,Plated,PTH,ComponentDrill
T5C0.0315
; #@! TA.AperFunction,Plated,PTH,ComponentDrill
T6C0.0394
; #@! TA.AperFunction,Plated,PTH,ComponentDrill
T7C0.0630
%
G90
G05
T1
X4.333Y-4.767
X4.415Y-3.81
X4.415Y-3.989
X4.415Y-4.171
X4.416Y-4.3667
X4.416Y-4.457
X4.45Y-4.635
X4.466Y-2.95
X4.466Y-3.2
X4.466Y-3.45
X4.551Y-4.769
X4.615Y-4.34
X4.658Y-2.528
X4.726Y-3.035
X4.726Y-3.365
X4.75Y-4.505
X4.7755Y-4.3305
X4.844Y-4.857
X4.845Y-4.663
X4.922Y-4.407
X4.923Y-4.315
X4.98Y-3.827
X4.986Y-2.95
X4.986Y-3.2
X4.986Y-3.45
X5.03Y-4.16
X5.037Y-4.863
X5.05Y-4.667
X5.076Y-4.318
X5.106Y-3.887
X5.164Y-4.318
X5.197Y-3.887
X5.236Y-3.42
X5.24Y-4.17
X5.246Y-3.035
X5.246Y-3.365
X5.247Y-4.865
X5.286Y-2.374
X5.29Y-4.395
X5.292Y-4.288
X5.382Y-3.7975
X5.3855Y-4.3121
X5.42Y-4.38
X5.432Y-3.7975
X5.435Y-4.857
X5.4355Y-4.2281
X5.4809Y-4.4941
X5.4855Y-4.2781
X5.4907Y-3.9889
X5.501Y-3.46
X5.506Y-2.95
X5.506Y-3.2
X5.528Y-2.411
X5.528Y-2.573
X5.54Y-3.923
X5.555Y-3.379
X5.5629Y-4.1571
X5.595Y-4.375
X5.5955Y-3.9925
X5.613Y-4.101
X5.639Y-3.598
X5.645Y-4.241
X5.722Y-4.712
X5.723Y-4.856
X5.723Y-4.99
X5.743Y-4.434
X5.765Y-4.575
X5.766Y-3.035
X5.766Y-3.365
X5.774Y-4.826
X5.775Y-4.665
X5.836Y-4.21
X5.838Y-4.341
X5.9285Y-4.763
X5.935Y-2.518
X5.9685Y-4.6365
X5.985Y-4.213
X5.995Y-4.02
X6.003Y-4.735
X6.018Y-4.294
X6.022Y-3.305
X6.0228Y-4.18
X6.026Y-2.95
X6.026Y-3.2
X6.026Y-3.45
X6.0339Y-3.886
X6.04Y-4.055
X6.063Y-3.811
X6.07Y-4.1
X6.0745Y-4.762
X6.0765Y-4.4031
X6.123Y-4.973
X6.1385Y-4.0085
X6.1805Y-4.866
X6.185Y-3.925
X6.197Y-2.87
X6.208Y-3.806
X6.215Y-4.235
X6.2255Y-4.0821
X6.2741Y-3.8329
X6.306Y-3.645
X6.33Y-4.265
X6.338Y-2.628
X6.348Y-4.779
X6.3525Y-3.0325
X6.355Y-3.955
X6.399Y-3.645
X6.4Y-4.715
X6.419Y-3.507
X6.42Y-3.415
X6.455Y-3.775
X6.465Y-4.2
X6.47Y-3.195
X6.475Y-3.92
X6.479Y-4.779
X6.505Y-3.53
X6.6Y-4.095
X6.65Y-3.52
X6.65Y-4.2
X6.6684Y-3.3126
X6.694Y-2.9567
X6.72Y-4.65
X6.81Y-4.004
X6.815Y-3.66
X6.8429Y-4.4941
X6.86Y-4.354
X6.935Y-4.525
X6.938Y-4.161
X6.94Y-3.075
X7.02Y-3.22
X7.086Y-4.65
X7.089Y-4.343
X7.099Y-4.928
X7.215Y-3.207
X7.215Y-3.455
X7.216Y-3.117
X7.281Y-4.808
X7.385Y-4.92
X7.391Y-4.642
X7.475Y-4.53
X7.48Y-3.59
X7.589Y-3.066
X7.589Y-3.158
X7.647Y-4.641
X7.655Y-2.97
X7.661Y-4.914
X7.686Y-3.587
X7.691Y-3.776
X7.7Y-2.55
X7.79Y-3.32
X7.8Y-4.114
X7.822Y-4.363
X7.9Y-3.615
X7.901Y-3.776
X7.944Y-4.72
X8.08Y-4.51
X8.125Y-3.467
X8.125Y-3.557
T2
X5.146Y-2.492
X8.052Y-4.666
T3
X6.9293Y-3.845
X7.0293Y-3.845
X7.1293Y-3.845
X7.2293Y-3.845
T4
X7.6425Y-3.3244
X7.6425Y-3.915
X7.6425Y-4.1118
X7.6425Y-4.3087
X7.9378Y-3.3244
X7.9378Y-3.915
X7.9378Y-4.1118
X7.9378Y-4.3087
T5
X6.8175Y-3.3201
X6.8175Y-3.4201
X6.8175Y-3.5201
T6
X4.3796Y-2.701
X4.3796Y-3.6994
X4.4796Y-2.701
X4.4796Y-3.6994
X4.5796Y-2.701
X4.5796Y-3.6994
X4.6796Y-2.701
X4.6796Y-3.6994
X4.7796Y-2.701
X4.7796Y-3.6994
X4.8796Y-2.701
X4.8796Y-3.6994
X4.9796Y-2.701
X4.9796Y-3.6994
X5.0796Y-2.701
X5.0796Y-3.6994
X5.1796Y-2.701
X5.1796Y-3.6994
X5.2796Y-2.701
X5.2796Y-3.6994
X5.3796Y-2.701
X5.3796Y-3.6994
X5.4796Y-2.701
X5.4796Y-3.6994
X5.5796Y-2.701
X5.5796Y-3.6994
X5.6796Y-2.701
X5.6796Y-3.6994
X5.7796Y-2.701
X5.7796Y-3.6994
X5.8796Y-2.701
X5.8796Y-3.6994
X5.9796Y-2.701
X5.9796Y-3.6994
X6.0796Y-2.701
X6.0796Y-3.6994
X6.1796Y-2.701
X6.1796Y-3.6994
X6.9612Y-4.2781
X7.1975Y-4.2781
T7
X4.55Y-4.0274
X4.75Y-4.0274
X4.7505Y-4.7694
X4.95Y-4.0274
X4.9505Y-4.7694
X5.1505Y-4.7694
X5.3505Y-4.7694
X5.5505Y-4.7694
X6.9855Y-4.7601
X7.1505Y-2.7491
X7.1855Y-4.7601
X7.3505Y-2.7491
X7.3855Y-4.7601
X7.5855Y-4.7601
X7.7855Y-4.7601
T0
M30
