%TF.GenerationSoftware,KiCad,Pcbnew,(6.0.9)*%
%TF.CreationDate,2022-12-07T15:22:28-05:00*%
%TF.ProjectId,Sensors,53656e73-6f72-4732-9e6b-696361645f70,rev?*%
%TF.SameCoordinates,Original*%
%TF.FileFunction,Legend,Bot*%
%TF.FilePolarity,Positive*%
%FSLAX46Y46*%
G04 Gerber Fmt 4.6, Leading zero omitted, Abs format (unit mm)*
G04 Created by KiCad (PCBNEW (6.0.9)) date 2022-12-07 15:22:28*
%MOMM*%
%LPD*%
G01*
G04 APERTURE LIST*
%ADD10C,0.150000*%
%ADD11C,0.120000*%
G04 APERTURE END LIST*
D10*
X168112152Y-128182666D02*
X167635961Y-128182666D01*
X168207390Y-128468380D02*
X167874057Y-127468380D01*
X167540723Y-128468380D01*
X167207390Y-127801714D02*
X167207390Y-128468380D01*
X167207390Y-127896952D02*
X167159771Y-127849333D01*
X167064533Y-127801714D01*
X166921676Y-127801714D01*
X166826438Y-127849333D01*
X166778819Y-127944571D01*
X166778819Y-128468380D01*
X166445485Y-127801714D02*
X166064533Y-127801714D01*
X166302628Y-127468380D02*
X166302628Y-128325523D01*
X166255009Y-128420761D01*
X166159771Y-128468380D01*
X166064533Y-128468380D01*
X165731200Y-128468380D02*
X165731200Y-127468380D01*
X165302628Y-128468380D02*
X165302628Y-127944571D01*
X165350247Y-127849333D01*
X165445485Y-127801714D01*
X165588342Y-127801714D01*
X165683580Y-127849333D01*
X165731200Y-127896952D01*
X164683580Y-128468380D02*
X164778819Y-128420761D01*
X164826438Y-128373142D01*
X164874057Y-128277904D01*
X164874057Y-127992190D01*
X164826438Y-127896952D01*
X164778819Y-127849333D01*
X164683580Y-127801714D01*
X164540723Y-127801714D01*
X164445485Y-127849333D01*
X164397866Y-127896952D01*
X164350247Y-127992190D01*
X164350247Y-128277904D01*
X164397866Y-128373142D01*
X164445485Y-128420761D01*
X164540723Y-128468380D01*
X164683580Y-128468380D01*
X163921676Y-127801714D02*
X163921676Y-128468380D01*
X163921676Y-127896952D02*
X163874057Y-127849333D01*
X163778819Y-127801714D01*
X163635961Y-127801714D01*
X163540723Y-127849333D01*
X163493104Y-127944571D01*
X163493104Y-128468380D01*
X163112152Y-127801714D02*
X162874057Y-128468380D01*
X162635961Y-127801714D02*
X162874057Y-128468380D01*
X162969295Y-128706476D01*
X163016914Y-128754095D01*
X163112152Y-128801714D01*
X162350247Y-127468380D02*
X161683580Y-127468380D01*
X162350247Y-128468380D01*
X161683580Y-128468380D01*
X160588342Y-127563619D02*
X160540723Y-127516000D01*
X160445485Y-127468380D01*
X160207390Y-127468380D01*
X160112152Y-127516000D01*
X160064533Y-127563619D01*
X160016914Y-127658857D01*
X160016914Y-127754095D01*
X160064533Y-127896952D01*
X160635961Y-128468380D01*
X160016914Y-128468380D01*
X159397866Y-127468380D02*
X159302628Y-127468380D01*
X159207390Y-127516000D01*
X159159771Y-127563619D01*
X159112152Y-127658857D01*
X159064533Y-127849333D01*
X159064533Y-128087428D01*
X159112152Y-128277904D01*
X159159771Y-128373142D01*
X159207390Y-128420761D01*
X159302628Y-128468380D01*
X159397866Y-128468380D01*
X159493104Y-128420761D01*
X159540723Y-128373142D01*
X159588342Y-128277904D01*
X159635961Y-128087428D01*
X159635961Y-127849333D01*
X159588342Y-127658857D01*
X159540723Y-127563619D01*
X159493104Y-127516000D01*
X159397866Y-127468380D01*
X158683580Y-127563619D02*
X158635961Y-127516000D01*
X158540723Y-127468380D01*
X158302628Y-127468380D01*
X158207390Y-127516000D01*
X158159771Y-127563619D01*
X158112152Y-127658857D01*
X158112152Y-127754095D01*
X158159771Y-127896952D01*
X158731200Y-128468380D01*
X158112152Y-128468380D01*
X157731200Y-127563619D02*
X157683580Y-127516000D01*
X157588342Y-127468380D01*
X157350247Y-127468380D01*
X157255009Y-127516000D01*
X157207390Y-127563619D01*
X157159771Y-127658857D01*
X157159771Y-127754095D01*
X157207390Y-127896952D01*
X157778819Y-128468380D01*
X157159771Y-128468380D01*
X156207390Y-128468380D02*
X156778819Y-128468380D01*
X156493104Y-128468380D02*
X156493104Y-127468380D01*
X156588342Y-127611238D01*
X156683580Y-127706476D01*
X156778819Y-127754095D01*
X155255009Y-128468380D02*
X155826438Y-128468380D01*
X155540723Y-128468380D02*
X155540723Y-127468380D01*
X155635961Y-127611238D01*
X155731200Y-127706476D01*
X155826438Y-127754095D01*
X154302628Y-128468380D02*
X154874057Y-128468380D01*
X154588342Y-128468380D02*
X154588342Y-127468380D01*
X154683580Y-127611238D01*
X154778819Y-127706476D01*
X154874057Y-127754095D01*
X153921676Y-127563619D02*
X153874057Y-127516000D01*
X153778819Y-127468380D01*
X153540723Y-127468380D01*
X153445485Y-127516000D01*
X153397866Y-127563619D01*
X153350247Y-127658857D01*
X153350247Y-127754095D01*
X153397866Y-127896952D01*
X153969295Y-128468380D01*
X153350247Y-128468380D01*
%TO.C,C6*%
X144438666Y-102058742D02*
X144486285Y-102106361D01*
X144629142Y-102153980D01*
X144724380Y-102153980D01*
X144867238Y-102106361D01*
X144962476Y-102011123D01*
X145010095Y-101915885D01*
X145057714Y-101725409D01*
X145057714Y-101582552D01*
X145010095Y-101392076D01*
X144962476Y-101296838D01*
X144867238Y-101201600D01*
X144724380Y-101153980D01*
X144629142Y-101153980D01*
X144486285Y-101201600D01*
X144438666Y-101249219D01*
X143581523Y-101153980D02*
X143772000Y-101153980D01*
X143867238Y-101201600D01*
X143914857Y-101249219D01*
X144010095Y-101392076D01*
X144057714Y-101582552D01*
X144057714Y-101963504D01*
X144010095Y-102058742D01*
X143962476Y-102106361D01*
X143867238Y-102153980D01*
X143676761Y-102153980D01*
X143581523Y-102106361D01*
X143533904Y-102058742D01*
X143486285Y-101963504D01*
X143486285Y-101725409D01*
X143533904Y-101630171D01*
X143581523Y-101582552D01*
X143676761Y-101534933D01*
X143867238Y-101534933D01*
X143962476Y-101582552D01*
X144010095Y-101630171D01*
X144057714Y-101725409D01*
%TO.C,R11*%
X135542257Y-62268380D02*
X135875590Y-61792190D01*
X136113685Y-62268380D02*
X136113685Y-61268380D01*
X135732733Y-61268380D01*
X135637495Y-61316000D01*
X135589876Y-61363619D01*
X135542257Y-61458857D01*
X135542257Y-61601714D01*
X135589876Y-61696952D01*
X135637495Y-61744571D01*
X135732733Y-61792190D01*
X136113685Y-61792190D01*
X134589876Y-62268380D02*
X135161304Y-62268380D01*
X134875590Y-62268380D02*
X134875590Y-61268380D01*
X134970828Y-61411238D01*
X135066066Y-61506476D01*
X135161304Y-61554095D01*
X133637495Y-62268380D02*
X134208923Y-62268380D01*
X133923209Y-62268380D02*
X133923209Y-61268380D01*
X134018447Y-61411238D01*
X134113685Y-61506476D01*
X134208923Y-61554095D01*
%TO.C,L8*%
X192927266Y-76957180D02*
X193403457Y-76957180D01*
X193403457Y-75957180D01*
X192451076Y-76385752D02*
X192546314Y-76338133D01*
X192593933Y-76290514D01*
X192641552Y-76195276D01*
X192641552Y-76147657D01*
X192593933Y-76052419D01*
X192546314Y-76004800D01*
X192451076Y-75957180D01*
X192260600Y-75957180D01*
X192165361Y-76004800D01*
X192117742Y-76052419D01*
X192070123Y-76147657D01*
X192070123Y-76195276D01*
X192117742Y-76290514D01*
X192165361Y-76338133D01*
X192260600Y-76385752D01*
X192451076Y-76385752D01*
X192546314Y-76433371D01*
X192593933Y-76480990D01*
X192641552Y-76576228D01*
X192641552Y-76766704D01*
X192593933Y-76861942D01*
X192546314Y-76909561D01*
X192451076Y-76957180D01*
X192260600Y-76957180D01*
X192165361Y-76909561D01*
X192117742Y-76861942D01*
X192070123Y-76766704D01*
X192070123Y-76576228D01*
X192117742Y-76480990D01*
X192165361Y-76433371D01*
X192260600Y-76385752D01*
%TO.C,R8*%
X145835666Y-89766380D02*
X146169000Y-89290190D01*
X146407095Y-89766380D02*
X146407095Y-88766380D01*
X146026142Y-88766380D01*
X145930904Y-88814000D01*
X145883285Y-88861619D01*
X145835666Y-88956857D01*
X145835666Y-89099714D01*
X145883285Y-89194952D01*
X145930904Y-89242571D01*
X146026142Y-89290190D01*
X146407095Y-89290190D01*
X145264238Y-89194952D02*
X145359476Y-89147333D01*
X145407095Y-89099714D01*
X145454714Y-89004476D01*
X145454714Y-88956857D01*
X145407095Y-88861619D01*
X145359476Y-88814000D01*
X145264238Y-88766380D01*
X145073761Y-88766380D01*
X144978523Y-88814000D01*
X144930904Y-88861619D01*
X144883285Y-88956857D01*
X144883285Y-89004476D01*
X144930904Y-89099714D01*
X144978523Y-89147333D01*
X145073761Y-89194952D01*
X145264238Y-89194952D01*
X145359476Y-89242571D01*
X145407095Y-89290190D01*
X145454714Y-89385428D01*
X145454714Y-89575904D01*
X145407095Y-89671142D01*
X145359476Y-89718761D01*
X145264238Y-89766380D01*
X145073761Y-89766380D01*
X144978523Y-89718761D01*
X144930904Y-89671142D01*
X144883285Y-89575904D01*
X144883285Y-89385428D01*
X144930904Y-89290190D01*
X144978523Y-89242571D01*
X145073761Y-89194952D01*
%TO.C,L9*%
X160288266Y-90774780D02*
X160764457Y-90774780D01*
X160764457Y-89774780D01*
X159907314Y-90774780D02*
X159716838Y-90774780D01*
X159621600Y-90727161D01*
X159573980Y-90679542D01*
X159478742Y-90536685D01*
X159431123Y-90346209D01*
X159431123Y-89965257D01*
X159478742Y-89870019D01*
X159526361Y-89822400D01*
X159621600Y-89774780D01*
X159812076Y-89774780D01*
X159907314Y-89822400D01*
X159954933Y-89870019D01*
X160002552Y-89965257D01*
X160002552Y-90203352D01*
X159954933Y-90298590D01*
X159907314Y-90346209D01*
X159812076Y-90393828D01*
X159621600Y-90393828D01*
X159526361Y-90346209D01*
X159478742Y-90298590D01*
X159431123Y-90203352D01*
%TO.C,C7*%
X154935066Y-106628142D02*
X154982685Y-106675761D01*
X155125542Y-106723380D01*
X155220780Y-106723380D01*
X155363638Y-106675761D01*
X155458876Y-106580523D01*
X155506495Y-106485285D01*
X155554114Y-106294809D01*
X155554114Y-106151952D01*
X155506495Y-105961476D01*
X155458876Y-105866238D01*
X155363638Y-105771000D01*
X155220780Y-105723380D01*
X155125542Y-105723380D01*
X154982685Y-105771000D01*
X154935066Y-105818619D01*
X154601733Y-105723380D02*
X153935066Y-105723380D01*
X154363638Y-106723380D01*
%TO.C,R10*%
X148470857Y-100520780D02*
X148804190Y-100044590D01*
X149042285Y-100520780D02*
X149042285Y-99520780D01*
X148661333Y-99520780D01*
X148566095Y-99568400D01*
X148518476Y-99616019D01*
X148470857Y-99711257D01*
X148470857Y-99854114D01*
X148518476Y-99949352D01*
X148566095Y-99996971D01*
X148661333Y-100044590D01*
X149042285Y-100044590D01*
X147518476Y-100520780D02*
X148089904Y-100520780D01*
X147804190Y-100520780D02*
X147804190Y-99520780D01*
X147899428Y-99663638D01*
X147994666Y-99758876D01*
X148089904Y-99806495D01*
X146899428Y-99520780D02*
X146804190Y-99520780D01*
X146708952Y-99568400D01*
X146661333Y-99616019D01*
X146613714Y-99711257D01*
X146566095Y-99901733D01*
X146566095Y-100139828D01*
X146613714Y-100330304D01*
X146661333Y-100425542D01*
X146708952Y-100473161D01*
X146804190Y-100520780D01*
X146899428Y-100520780D01*
X146994666Y-100473161D01*
X147042285Y-100425542D01*
X147089904Y-100330304D01*
X147137523Y-100139828D01*
X147137523Y-99901733D01*
X147089904Y-99711257D01*
X147042285Y-99616019D01*
X146994666Y-99568400D01*
X146899428Y-99520780D01*
%TO.C,R9*%
X150794980Y-88479333D02*
X150318790Y-88146000D01*
X150794980Y-87907904D02*
X149794980Y-87907904D01*
X149794980Y-88288857D01*
X149842600Y-88384095D01*
X149890219Y-88431714D01*
X149985457Y-88479333D01*
X150128314Y-88479333D01*
X150223552Y-88431714D01*
X150271171Y-88384095D01*
X150318790Y-88288857D01*
X150318790Y-87907904D01*
X150794980Y-88955523D02*
X150794980Y-89146000D01*
X150747361Y-89241238D01*
X150699742Y-89288857D01*
X150556885Y-89384095D01*
X150366409Y-89431714D01*
X149985457Y-89431714D01*
X149890219Y-89384095D01*
X149842600Y-89336476D01*
X149794980Y-89241238D01*
X149794980Y-89050761D01*
X149842600Y-88955523D01*
X149890219Y-88907904D01*
X149985457Y-88860285D01*
X150223552Y-88860285D01*
X150318790Y-88907904D01*
X150366409Y-88955523D01*
X150414028Y-89050761D01*
X150414028Y-89241238D01*
X150366409Y-89336476D01*
X150318790Y-89384095D01*
X150223552Y-89431714D01*
%TO.C,L6*%
X125261666Y-108650030D02*
X125737857Y-108650030D01*
X125737857Y-107650030D01*
X124499761Y-107650030D02*
X124690238Y-107650030D01*
X124785476Y-107697650D01*
X124833095Y-107745269D01*
X124928333Y-107888126D01*
X124975952Y-108078602D01*
X124975952Y-108459554D01*
X124928333Y-108554792D01*
X124880714Y-108602411D01*
X124785476Y-108650030D01*
X124595000Y-108650030D01*
X124499761Y-108602411D01*
X124452142Y-108554792D01*
X124404523Y-108459554D01*
X124404523Y-108221459D01*
X124452142Y-108126221D01*
X124499761Y-108078602D01*
X124595000Y-108030983D01*
X124785476Y-108030983D01*
X124880714Y-108078602D01*
X124928333Y-108126221D01*
X124975952Y-108221459D01*
%TO.C,C4*%
X148299466Y-91212942D02*
X148347085Y-91260561D01*
X148489942Y-91308180D01*
X148585180Y-91308180D01*
X148728038Y-91260561D01*
X148823276Y-91165323D01*
X148870895Y-91070085D01*
X148918514Y-90879609D01*
X148918514Y-90736752D01*
X148870895Y-90546276D01*
X148823276Y-90451038D01*
X148728038Y-90355800D01*
X148585180Y-90308180D01*
X148489942Y-90308180D01*
X148347085Y-90355800D01*
X148299466Y-90403419D01*
X147442323Y-90641514D02*
X147442323Y-91308180D01*
X147680419Y-90260561D02*
X147918514Y-90974847D01*
X147299466Y-90974847D01*
%TO.C,U12*%
X147745295Y-81824580D02*
X147745295Y-82634104D01*
X147697676Y-82729342D01*
X147650057Y-82776961D01*
X147554819Y-82824580D01*
X147364342Y-82824580D01*
X147269104Y-82776961D01*
X147221485Y-82729342D01*
X147173866Y-82634104D01*
X147173866Y-81824580D01*
X146173866Y-82824580D02*
X146745295Y-82824580D01*
X146459580Y-82824580D02*
X146459580Y-81824580D01*
X146554819Y-81967438D01*
X146650057Y-82062676D01*
X146745295Y-82110295D01*
X145792914Y-81919819D02*
X145745295Y-81872200D01*
X145650057Y-81824580D01*
X145411961Y-81824580D01*
X145316723Y-81872200D01*
X145269104Y-81919819D01*
X145221485Y-82015057D01*
X145221485Y-82110295D01*
X145269104Y-82253152D01*
X145840533Y-82824580D01*
X145221485Y-82824580D01*
%TO.C,C2*%
X150534666Y-82874142D02*
X150582285Y-82921761D01*
X150725142Y-82969380D01*
X150820380Y-82969380D01*
X150963238Y-82921761D01*
X151058476Y-82826523D01*
X151106095Y-82731285D01*
X151153714Y-82540809D01*
X151153714Y-82397952D01*
X151106095Y-82207476D01*
X151058476Y-82112238D01*
X150963238Y-82017000D01*
X150820380Y-81969380D01*
X150725142Y-81969380D01*
X150582285Y-82017000D01*
X150534666Y-82064619D01*
X150153714Y-82064619D02*
X150106095Y-82017000D01*
X150010857Y-81969380D01*
X149772761Y-81969380D01*
X149677523Y-82017000D01*
X149629904Y-82064619D01*
X149582285Y-82159857D01*
X149582285Y-82255095D01*
X149629904Y-82397952D01*
X150201333Y-82969380D01*
X149582285Y-82969380D01*
%TO.C,C3*%
X142025666Y-89671142D02*
X142073285Y-89718761D01*
X142216142Y-89766380D01*
X142311380Y-89766380D01*
X142454238Y-89718761D01*
X142549476Y-89623523D01*
X142597095Y-89528285D01*
X142644714Y-89337809D01*
X142644714Y-89194952D01*
X142597095Y-89004476D01*
X142549476Y-88909238D01*
X142454238Y-88814000D01*
X142311380Y-88766380D01*
X142216142Y-88766380D01*
X142073285Y-88814000D01*
X142025666Y-88861619D01*
X141692333Y-88766380D02*
X141073285Y-88766380D01*
X141406619Y-89147333D01*
X141263761Y-89147333D01*
X141168523Y-89194952D01*
X141120904Y-89242571D01*
X141073285Y-89337809D01*
X141073285Y-89575904D01*
X141120904Y-89671142D01*
X141168523Y-89718761D01*
X141263761Y-89766380D01*
X141549476Y-89766380D01*
X141644714Y-89718761D01*
X141692333Y-89671142D01*
%TO.C,L7*%
X134151666Y-99182180D02*
X134627857Y-99182180D01*
X134627857Y-98182180D01*
X133913571Y-98182180D02*
X133246904Y-98182180D01*
X133675476Y-99182180D01*
%TO.C,C5*%
X133872266Y-91187542D02*
X133919885Y-91235161D01*
X134062742Y-91282780D01*
X134157980Y-91282780D01*
X134300838Y-91235161D01*
X134396076Y-91139923D01*
X134443695Y-91044685D01*
X134491314Y-90854209D01*
X134491314Y-90711352D01*
X134443695Y-90520876D01*
X134396076Y-90425638D01*
X134300838Y-90330400D01*
X134157980Y-90282780D01*
X134062742Y-90282780D01*
X133919885Y-90330400D01*
X133872266Y-90378019D01*
X132967504Y-90282780D02*
X133443695Y-90282780D01*
X133491314Y-90758971D01*
X133443695Y-90711352D01*
X133348457Y-90663733D01*
X133110361Y-90663733D01*
X133015123Y-90711352D01*
X132967504Y-90758971D01*
X132919885Y-90854209D01*
X132919885Y-91092304D01*
X132967504Y-91187542D01*
X133015123Y-91235161D01*
X133110361Y-91282780D01*
X133348457Y-91282780D01*
X133443695Y-91235161D01*
X133491314Y-91187542D01*
%TO.C,U9*%
X138023504Y-84923380D02*
X138023504Y-85732904D01*
X137975885Y-85828142D01*
X137928266Y-85875761D01*
X137833028Y-85923380D01*
X137642552Y-85923380D01*
X137547314Y-85875761D01*
X137499695Y-85828142D01*
X137452076Y-85732904D01*
X137452076Y-84923380D01*
X136928266Y-85923380D02*
X136737790Y-85923380D01*
X136642552Y-85875761D01*
X136594933Y-85828142D01*
X136499695Y-85685285D01*
X136452076Y-85494809D01*
X136452076Y-85113857D01*
X136499695Y-85018619D01*
X136547314Y-84971000D01*
X136642552Y-84923380D01*
X136833028Y-84923380D01*
X136928266Y-84971000D01*
X136975885Y-85018619D01*
X137023504Y-85113857D01*
X137023504Y-85351952D01*
X136975885Y-85447190D01*
X136928266Y-85494809D01*
X136833028Y-85542428D01*
X136642552Y-85542428D01*
X136547314Y-85494809D01*
X136499695Y-85447190D01*
X136452076Y-85351952D01*
D11*
%TO.C,C6*%
X147485100Y-102679500D02*
X147485100Y-110528100D01*
X142633700Y-110528100D02*
X142633700Y-102679500D01*
X142633700Y-102679500D02*
X143482060Y-102679500D01*
X143482060Y-110528100D02*
X142633700Y-110528100D01*
X147485100Y-110528100D02*
X146636740Y-110528100D01*
X146636740Y-102679500D02*
X147485100Y-102679500D01*
%TO.C,R11*%
X135136658Y-62723500D02*
X134662142Y-62723500D01*
X135136658Y-63768500D02*
X134662142Y-63768500D01*
%TO.C,L8*%
X194233800Y-78703753D02*
X194233800Y-79436647D01*
X191287400Y-79436647D02*
X191287400Y-78703753D01*
%TO.C,R8*%
X145431742Y-88406500D02*
X145906258Y-88406500D01*
X145431742Y-87361500D02*
X145906258Y-87361500D01*
%TO.C,L9*%
X161707247Y-94056200D02*
X160974353Y-94056200D01*
X160974353Y-91109800D02*
X161707247Y-91109800D01*
%TO.C,C7*%
X154908980Y-108211000D02*
X154627820Y-108211000D01*
X154908980Y-107191000D02*
X154627820Y-107191000D01*
%TO.C,R10*%
X148065258Y-100975900D02*
X147590742Y-100975900D01*
X148065258Y-102020900D02*
X147590742Y-102020900D01*
%TO.C,R9*%
X148321500Y-88883258D02*
X148321500Y-88408742D01*
X149366500Y-88883258D02*
X149366500Y-88408742D01*
%TO.C,L6*%
X126542800Y-110422003D02*
X126542800Y-111154897D01*
X123596400Y-111154897D02*
X123596400Y-110422003D01*
%TO.C,C4*%
X145528420Y-90295000D02*
X145809580Y-90295000D01*
X145528420Y-91315000D02*
X145809580Y-91315000D01*
%TO.C,U12*%
X144769801Y-86361001D02*
X147144800Y-86361001D01*
X145643500Y-83312000D02*
X147396100Y-83312000D01*
%TO.C,C2*%
X150508580Y-84457000D02*
X150227420Y-84457000D01*
X150508580Y-83437000D02*
X150227420Y-83437000D01*
%TO.C,C3*%
X141718420Y-88394000D02*
X141999580Y-88394000D01*
X141718420Y-87374000D02*
X141999580Y-87374000D01*
%TO.C,L7*%
X130468953Y-97231200D02*
X131201847Y-97231200D01*
X131201847Y-100177600D02*
X130468953Y-100177600D01*
%TO.C,C5*%
X133565020Y-88821800D02*
X133846180Y-88821800D01*
X133565020Y-89841800D02*
X133846180Y-89841800D01*
D10*
%TO.C,U9*%
X135636600Y-87478200D02*
X135636600Y-90728200D01*
X138886600Y-87478200D02*
X138661600Y-87478200D01*
X138886600Y-90728200D02*
X138661600Y-90728200D01*
X135636600Y-87478200D02*
X135761600Y-87478200D01*
X135761600Y-87478200D02*
X135761600Y-86403200D01*
X135636600Y-90728200D02*
X135861600Y-90728200D01*
X138886600Y-87478200D02*
X138886600Y-90728200D01*
%TD*%
M02*
