%TF.GenerationSoftware,KiCad,Pcbnew,(6.0.9)*%
%TF.CreationDate,2022-12-07T15:22:28-05:00*%
%TF.ProjectId,Sensors,53656e73-6f72-4732-9e6b-696361645f70,rev?*%
%TF.SameCoordinates,Original*%
%TF.FileFunction,Paste,Bot*%
%TF.FilePolarity,Positive*%
%FSLAX46Y46*%
G04 Gerber Fmt 4.6, Leading zero omitted, Abs format (unit mm)*
G04 Created by KiCad (PCBNEW (6.0.9)) date 2022-12-07 15:22:28*
%MOMM*%
%LPD*%
G01*
G04 APERTURE LIST*
G04 Aperture macros list*
%AMRoundRect*
0 Rectangle with rounded corners*
0 $1 Rounding radius*
0 $2 $3 $4 $5 $6 $7 $8 $9 X,Y pos of 4 corners*
0 Add a 4 corners polygon primitive as box body*
4,1,4,$2,$3,$4,$5,$6,$7,$8,$9,$2,$3,0*
0 Add four circle primitives for the rounded corners*
1,1,$1+$1,$2,$3*
1,1,$1+$1,$4,$5*
1,1,$1+$1,$6,$7*
1,1,$1+$1,$8,$9*
0 Add four rect primitives between the rounded corners*
20,1,$1+$1,$2,$3,$4,$5,0*
20,1,$1+$1,$4,$5,$6,$7,0*
20,1,$1+$1,$6,$7,$8,$9,0*
20,1,$1+$1,$8,$9,$2,$3,0*%
G04 Aperture macros list end*
%ADD10R,2.489200X2.260600*%
%ADD11RoundRect,0.200000X0.200000X0.275000X-0.200000X0.275000X-0.200000X-0.275000X0.200000X-0.275000X0*%
%ADD12R,2.590800X1.003300*%
%ADD13RoundRect,0.200000X-0.200000X-0.275000X0.200000X-0.275000X0.200000X0.275000X-0.200000X0.275000X0*%
%ADD14R,1.003300X2.590800*%
%ADD15RoundRect,0.225000X0.225000X0.250000X-0.225000X0.250000X-0.225000X-0.250000X0.225000X-0.250000X0*%
%ADD16RoundRect,0.200000X0.275000X-0.200000X0.275000X0.200000X-0.275000X0.200000X-0.275000X-0.200000X0*%
%ADD17RoundRect,0.225000X-0.225000X-0.250000X0.225000X-0.250000X0.225000X0.250000X-0.225000X0.250000X0*%
%ADD18R,1.000001X0.599999*%
%ADD19R,0.400000X1.100000*%
G04 APERTURE END LIST*
D10*
%TO.C,C6*%
X145059400Y-103784400D03*
X145059400Y-109423200D03*
%TD*%
D11*
%TO.C,R11*%
X135724400Y-63246000D03*
X134074400Y-63246000D03*
%TD*%
D12*
%TO.C,L8*%
X192760600Y-80219550D03*
X192760600Y-77920850D03*
%TD*%
D13*
%TO.C,R8*%
X144844000Y-87884000D03*
X146494000Y-87884000D03*
%TD*%
D14*
%TO.C,L9*%
X162490150Y-92583000D03*
X160191450Y-92583000D03*
%TD*%
D15*
%TO.C,C7*%
X155543400Y-107701000D03*
X153993400Y-107701000D03*
%TD*%
D11*
%TO.C,R10*%
X148653000Y-101498400D03*
X147003000Y-101498400D03*
%TD*%
D16*
%TO.C,R9*%
X148844000Y-89471000D03*
X148844000Y-87821000D03*
%TD*%
D12*
%TO.C,L6*%
X125069600Y-111937800D03*
X125069600Y-109639100D03*
%TD*%
D17*
%TO.C,C4*%
X144894000Y-90805000D03*
X146444000Y-90805000D03*
%TD*%
D18*
%TO.C,U12*%
X145144799Y-85786001D03*
X145144799Y-84836000D03*
X145144799Y-83886002D03*
X147894799Y-83886002D03*
X147894799Y-85786001D03*
%TD*%
D15*
%TO.C,C2*%
X151143000Y-83947000D03*
X149593000Y-83947000D03*
%TD*%
D17*
%TO.C,C3*%
X141084000Y-87884000D03*
X142634000Y-87884000D03*
%TD*%
D14*
%TO.C,L7*%
X131984750Y-98704400D03*
X129686050Y-98704400D03*
%TD*%
D17*
%TO.C,C5*%
X132930600Y-89331800D03*
X134480600Y-89331800D03*
%TD*%
D19*
%TO.C,U9*%
X136286600Y-86953200D03*
X136936600Y-86953200D03*
X137586600Y-86953200D03*
X138236600Y-86953200D03*
X138236600Y-91253200D03*
X137586600Y-91253200D03*
X136936600Y-91253200D03*
X136286600Y-91253200D03*
%TD*%
M02*
