%TF.GenerationSoftware,KiCad,Pcbnew,(6.0.9)*%
%TF.CreationDate,2022-12-07T15:32:04-05:00*%
%TF.ProjectId,CurrentSense_PS,43757272-656e-4745-9365-6e73655f5053,rev?*%
%TF.SameCoordinates,Original*%
%TF.FileFunction,Soldermask,Bot*%
%TF.FilePolarity,Negative*%
%FSLAX46Y46*%
G04 Gerber Fmt 4.6, Leading zero omitted, Abs format (unit mm)*
G04 Created by KiCad (PCBNEW (6.0.9)) date 2022-12-07 15:32:04*
%MOMM*%
%LPD*%
G01*
G04 APERTURE LIST*
G04 Aperture macros list*
%AMRoundRect*
0 Rectangle with rounded corners*
0 $1 Rounding radius*
0 $2 $3 $4 $5 $6 $7 $8 $9 X,Y pos of 4 corners*
0 Add a 4 corners polygon primitive as box body*
4,1,4,$2,$3,$4,$5,$6,$7,$8,$9,$2,$3,0*
0 Add four circle primitives for the rounded corners*
1,1,$1+$1,$2,$3*
1,1,$1+$1,$4,$5*
1,1,$1+$1,$6,$7*
1,1,$1+$1,$8,$9*
0 Add four rect primitives between the rounded corners*
20,1,$1+$1,$2,$3,$4,$5,0*
20,1,$1+$1,$4,$5,$6,$7,0*
20,1,$1+$1,$6,$7,$8,$9,0*
20,1,$1+$1,$8,$9,$2,$3,0*%
G04 Aperture macros list end*
%ADD10C,3.200000*%
%ADD11R,1.600000X1.600000*%
%ADD12C,1.600000*%
%ADD13C,1.524000*%
%ADD14C,1.727200*%
%ADD15C,1.498600*%
%ADD16R,1.879600X1.879600*%
%ADD17C,1.879600*%
%ADD18RoundRect,0.250000X-0.700000X0.275000X-0.700000X-0.275000X0.700000X-0.275000X0.700000X0.275000X0*%
%ADD19RoundRect,0.250000X-0.275000X-0.700000X0.275000X-0.700000X0.275000X0.700000X-0.275000X0.700000X0*%
G04 APERTURE END LIST*
D10*
%TO.C,H1*%
X61722000Y-64516000D03*
%TD*%
D11*
%TO.C,C4*%
X74422000Y-93853000D03*
D12*
X74422000Y-96353000D03*
%TD*%
D13*
%TO.C,J1*%
X61823600Y-74295000D03*
X61823600Y-71755000D03*
%TD*%
D11*
%TO.C,C7*%
X80836888Y-87884000D03*
D12*
X83336888Y-87884000D03*
%TD*%
D14*
%TO.C,J3*%
X61925200Y-90220800D03*
X61925200Y-87680800D03*
X61925200Y-85140800D03*
%TD*%
%TO.C,J4*%
X124561600Y-71882000D03*
X124561600Y-74422000D03*
X124561600Y-76962000D03*
%TD*%
D10*
%TO.C,H4*%
X124714000Y-64516000D03*
%TD*%
D11*
%TO.C,C3*%
X109982000Y-65024000D03*
D12*
X109982000Y-67524000D03*
%TD*%
D11*
%TO.C,C14*%
X88188800Y-66903600D03*
D12*
X85688800Y-66903600D03*
%TD*%
D11*
%TO.C,C5*%
X74422000Y-79566888D03*
D12*
X74422000Y-82066888D03*
%TD*%
D10*
%TO.C,H3*%
X124714000Y-97155000D03*
%TD*%
D11*
%TO.C,C2*%
X90424000Y-72303000D03*
D12*
X90424000Y-74803000D03*
%TD*%
D15*
%TO.C,J6*%
X72872600Y-63729700D03*
X75412600Y-63729700D03*
X77952600Y-63729700D03*
%TD*%
D14*
%TO.C,J5*%
X124511000Y-84201000D03*
X124511000Y-86741000D03*
X124511000Y-89281000D03*
%TD*%
D16*
%TO.C,U3*%
X82732600Y-82042000D03*
D17*
X85272600Y-82042000D03*
X87812600Y-82042000D03*
%TD*%
D16*
%TO.C,U2*%
X82478600Y-96393000D03*
D17*
X85018600Y-96393000D03*
X87558600Y-96393000D03*
%TD*%
D10*
%TO.C,H2*%
X61722000Y-97282000D03*
%TD*%
D11*
%TO.C,C6*%
X89408000Y-89154000D03*
D12*
X89408000Y-86654000D03*
%TD*%
D11*
%TO.C,C1*%
X81788000Y-74778112D03*
D12*
X81788000Y-72278112D03*
%TD*%
D14*
%TO.C,J2*%
X92760800Y-65024000D03*
X95300800Y-65024000D03*
X97840800Y-65024000D03*
X100380800Y-65024000D03*
%TD*%
D18*
%TO.C,L6*%
X77724000Y-75184000D03*
X77724000Y-78334000D03*
%TD*%
D19*
%TO.C,L5*%
X115773000Y-67564000D03*
X118923000Y-67564000D03*
%TD*%
%TO.C,L4*%
X98501000Y-72644000D03*
X101651000Y-72644000D03*
%TD*%
M02*
