%TF.GenerationSoftware,KiCad,Pcbnew,(6.0.9)*%
%TF.CreationDate,2022-12-07T15:32:04-05:00*%
%TF.ProjectId,CurrentSense_PS,43757272-656e-4745-9365-6e73655f5053,rev?*%
%TF.SameCoordinates,Original*%
%TF.FileFunction,Soldermask,Top*%
%TF.FilePolarity,Negative*%
%FSLAX46Y46*%
G04 Gerber Fmt 4.6, Leading zero omitted, Abs format (unit mm)*
G04 Created by KiCad (PCBNEW (6.0.9)) date 2022-12-07 15:32:04*
%MOMM*%
%LPD*%
G01*
G04 APERTURE LIST*
G04 Aperture macros list*
%AMRoundRect*
0 Rectangle with rounded corners*
0 $1 Rounding radius*
0 $2 $3 $4 $5 $6 $7 $8 $9 X,Y pos of 4 corners*
0 Add a 4 corners polygon primitive as box body*
4,1,4,$2,$3,$4,$5,$6,$7,$8,$9,$2,$3,0*
0 Add four circle primitives for the rounded corners*
1,1,$1+$1,$2,$3*
1,1,$1+$1,$4,$5*
1,1,$1+$1,$6,$7*
1,1,$1+$1,$8,$9*
0 Add four rect primitives between the rounded corners*
20,1,$1+$1,$2,$3,$4,$5,0*
20,1,$1+$1,$4,$5,$6,$7,0*
20,1,$1+$1,$6,$7,$8,$9,0*
20,1,$1+$1,$8,$9,$2,$3,0*%
G04 Aperture macros list end*
%ADD10C,3.200000*%
%ADD11R,1.600000X1.600000*%
%ADD12C,1.600000*%
%ADD13RoundRect,0.218750X-0.218750X-0.256250X0.218750X-0.256250X0.218750X0.256250X-0.218750X0.256250X0*%
%ADD14RoundRect,0.200000X-0.275000X0.200000X-0.275000X-0.200000X0.275000X-0.200000X0.275000X0.200000X0*%
%ADD15RoundRect,0.250000X-0.700000X0.275000X-0.700000X-0.275000X0.700000X-0.275000X0.700000X0.275000X0*%
%ADD16RoundRect,0.200000X0.200000X0.275000X-0.200000X0.275000X-0.200000X-0.275000X0.200000X-0.275000X0*%
%ADD17C,1.524000*%
%ADD18R,1.003300X0.508000*%
%ADD19C,1.727200*%
%ADD20RoundRect,0.250000X-0.787500X-1.025000X0.787500X-1.025000X0.787500X1.025000X-0.787500X1.025000X0*%
%ADD21RoundRect,0.250000X-0.375000X-0.625000X0.375000X-0.625000X0.375000X0.625000X-0.375000X0.625000X0*%
%ADD22RoundRect,0.200000X0.275000X-0.200000X0.275000X0.200000X-0.275000X0.200000X-0.275000X-0.200000X0*%
%ADD23RoundRect,0.250000X0.787500X1.025000X-0.787500X1.025000X-0.787500X-1.025000X0.787500X-1.025000X0*%
%ADD24RoundRect,0.218750X0.218750X0.256250X-0.218750X0.256250X-0.218750X-0.256250X0.218750X-0.256250X0*%
%ADD25RoundRect,0.250000X0.250000X0.475000X-0.250000X0.475000X-0.250000X-0.475000X0.250000X-0.475000X0*%
%ADD26RoundRect,0.218750X0.256250X-0.218750X0.256250X0.218750X-0.256250X0.218750X-0.256250X-0.218750X0*%
%ADD27RoundRect,0.042000X-0.943000X-0.258000X0.943000X-0.258000X0.943000X0.258000X-0.943000X0.258000X0*%
%ADD28RoundRect,0.225000X0.225000X0.250000X-0.225000X0.250000X-0.225000X-0.250000X0.225000X-0.250000X0*%
%ADD29RoundRect,0.048800X0.256200X-0.936200X0.256200X0.936200X-0.256200X0.936200X-0.256200X-0.936200X0*%
%ADD30R,1.850000X0.850000*%
%ADD31RoundRect,0.048800X-0.256200X0.936200X-0.256200X-0.936200X0.256200X-0.936200X0.256200X0.936200X0*%
%ADD32RoundRect,0.225000X0.250000X-0.225000X0.250000X0.225000X-0.250000X0.225000X-0.250000X-0.225000X0*%
%ADD33C,1.498600*%
%ADD34R,1.879600X1.879600*%
%ADD35C,1.879600*%
%ADD36R,1.550000X0.900000*%
G04 APERTURE END LIST*
D10*
%TO.C,H1*%
X61722000Y-64516000D03*
%TD*%
D11*
%TO.C,C4*%
X74422000Y-93853000D03*
D12*
X74422000Y-96353000D03*
%TD*%
D13*
%TO.C,D6*%
X119671500Y-92202000D03*
X121246500Y-92202000D03*
%TD*%
D14*
%TO.C,R3*%
X103759000Y-63818000D03*
X103759000Y-65468000D03*
%TD*%
D15*
%TO.C,L3*%
X61341000Y-78181000D03*
X61341000Y-81331000D03*
%TD*%
%TO.C,L1*%
X85979000Y-74803000D03*
X85979000Y-77953000D03*
%TD*%
D14*
%TO.C,R2*%
X82702400Y-63487800D03*
X82702400Y-65137800D03*
%TD*%
D16*
%TO.C,R5*%
X124523000Y-69088000D03*
X122873000Y-69088000D03*
%TD*%
D17*
%TO.C,J1*%
X61823600Y-74295000D03*
X61823600Y-71755000D03*
%TD*%
D18*
%TO.C,U1*%
X96691450Y-71693999D03*
X96691450Y-72644000D03*
X96691450Y-73594001D03*
X99396550Y-73594001D03*
X99396550Y-71693999D03*
%TD*%
D11*
%TO.C,C7*%
X80836888Y-87884000D03*
D12*
X83336888Y-87884000D03*
%TD*%
D19*
%TO.C,J3*%
X61925200Y-90220800D03*
X61925200Y-87680800D03*
X61925200Y-85140800D03*
%TD*%
%TO.C,J4*%
X124561600Y-71882000D03*
X124561600Y-74422000D03*
X124561600Y-76962000D03*
%TD*%
D16*
%TO.C,R4*%
X124332000Y-79756000D03*
X122682000Y-79756000D03*
%TD*%
D10*
%TO.C,H4*%
X124714000Y-64516000D03*
%TD*%
D20*
%TO.C,C13*%
X106234500Y-81026000D03*
X112459500Y-81026000D03*
%TD*%
D21*
%TO.C,F1*%
X65021000Y-77851000D03*
X67821000Y-77851000D03*
%TD*%
D11*
%TO.C,C3*%
X109982000Y-65024000D03*
D12*
X109982000Y-67524000D03*
%TD*%
D22*
%TO.C,R1*%
X114681000Y-92849200D03*
X114681000Y-91199200D03*
%TD*%
D23*
%TO.C,C10*%
X112713500Y-97282000D03*
X106488500Y-97282000D03*
%TD*%
D24*
%TO.C,D4*%
X121310500Y-69088000D03*
X119735500Y-69088000D03*
%TD*%
D25*
%TO.C,C8*%
X111059000Y-87376000D03*
X109159000Y-87376000D03*
%TD*%
D11*
%TO.C,C14*%
X88188800Y-66903600D03*
D12*
X85688800Y-66903600D03*
%TD*%
D11*
%TO.C,C5*%
X74422000Y-79566888D03*
D12*
X74422000Y-82066888D03*
%TD*%
D21*
%TO.C,F2*%
X65529000Y-93472000D03*
X68329000Y-93472000D03*
%TD*%
D26*
%TO.C,D1*%
X82702400Y-68199100D03*
X82702400Y-66624100D03*
%TD*%
D27*
%TO.C,U5*%
X106497000Y-73406000D03*
X106497000Y-74676000D03*
X106497000Y-75946000D03*
X106497000Y-77216000D03*
X111437000Y-77216000D03*
X111437000Y-75946000D03*
X111437000Y-74676000D03*
X111437000Y-73406000D03*
%TD*%
D28*
%TO.C,C9*%
X107074000Y-87376000D03*
X105524000Y-87376000D03*
%TD*%
D27*
%TO.C,U4*%
X107132000Y-89662000D03*
X107132000Y-90932000D03*
X107132000Y-92202000D03*
X107132000Y-93472000D03*
X112072000Y-93472000D03*
X112072000Y-92202000D03*
X112072000Y-90932000D03*
X112072000Y-89662000D03*
%TD*%
D10*
%TO.C,H3*%
X124714000Y-97155000D03*
%TD*%
D29*
%TO.C,DN2*%
X93980000Y-83750000D03*
X95250000Y-83750000D03*
X96520000Y-83750000D03*
X97790000Y-83750000D03*
X99060000Y-83750000D03*
X100330000Y-83750000D03*
X101600000Y-83750000D03*
X102870000Y-83750000D03*
X102870000Y-78810000D03*
X101600000Y-78810000D03*
X100330000Y-78810000D03*
X99060000Y-78810000D03*
X97790000Y-78810000D03*
X96520000Y-78810000D03*
X95250000Y-78810000D03*
X93980000Y-78810000D03*
%TD*%
D15*
%TO.C,L2*%
X115189000Y-67386000D03*
X115189000Y-70536000D03*
%TD*%
D11*
%TO.C,C2*%
X90424000Y-72303000D03*
D12*
X90424000Y-74803000D03*
%TD*%
D13*
%TO.C,D3*%
X119544500Y-79756000D03*
X121119500Y-79756000D03*
%TD*%
D30*
%TO.C,BR1*%
X74399000Y-89617112D03*
X74399000Y-87117112D03*
X68349000Y-87117112D03*
X68349000Y-89617112D03*
%TD*%
D24*
%TO.C,D5*%
X121056500Y-81407000D03*
X119481500Y-81407000D03*
%TD*%
D31*
%TO.C,DN1*%
X102743000Y-91510000D03*
X101473000Y-91510000D03*
X100203000Y-91510000D03*
X98933000Y-91510000D03*
X97663000Y-91510000D03*
X96393000Y-91510000D03*
X95123000Y-91510000D03*
X93853000Y-91510000D03*
X93853000Y-96450000D03*
X95123000Y-96450000D03*
X96393000Y-96450000D03*
X97663000Y-96450000D03*
X98933000Y-96450000D03*
X100203000Y-96450000D03*
X101473000Y-96450000D03*
X102743000Y-96450000D03*
%TD*%
D16*
%TO.C,R7*%
X124396000Y-81407000D03*
X122746000Y-81407000D03*
%TD*%
D32*
%TO.C,C11*%
X114427000Y-74943000D03*
X114427000Y-73393000D03*
%TD*%
D33*
%TO.C,J6*%
X72872600Y-63729700D03*
X75412600Y-63729700D03*
X77952600Y-63729700D03*
%TD*%
D19*
%TO.C,J5*%
X124511000Y-84201000D03*
X124511000Y-86741000D03*
X124511000Y-89281000D03*
%TD*%
D34*
%TO.C,U3*%
X82732600Y-82042000D03*
D35*
X85272600Y-82042000D03*
X87812600Y-82042000D03*
%TD*%
D28*
%TO.C,C12*%
X102883000Y-75946000D03*
X101333000Y-75946000D03*
%TD*%
D34*
%TO.C,U2*%
X82478600Y-96393000D03*
D35*
X85018600Y-96393000D03*
X87558600Y-96393000D03*
%TD*%
D10*
%TO.C,H2*%
X61722000Y-97282000D03*
%TD*%
D16*
%TO.C,R6*%
X124459000Y-92202000D03*
X122809000Y-92202000D03*
%TD*%
D11*
%TO.C,C6*%
X89408000Y-89154000D03*
D12*
X89408000Y-86654000D03*
%TD*%
D26*
%TO.C,D2*%
X103759000Y-68605500D03*
X103759000Y-67030500D03*
%TD*%
D21*
%TO.C,F3*%
X65021000Y-81788000D03*
X67821000Y-81788000D03*
%TD*%
D11*
%TO.C,C1*%
X81788000Y-74778112D03*
D12*
X81788000Y-72278112D03*
%TD*%
D19*
%TO.C,J2*%
X92760800Y-65024000D03*
X95300800Y-65024000D03*
X97840800Y-65024000D03*
X100380800Y-65024000D03*
%TD*%
D36*
%TO.C,IC1*%
X76254000Y-75152000D03*
X76254000Y-71152000D03*
X70304000Y-71152000D03*
X70304000Y-75152000D03*
%TD*%
M02*
