%TF.GenerationSoftware,KiCad,Pcbnew,(6.0.9)*%
%TF.CreationDate,2022-12-07T15:32:04-05:00*%
%TF.ProjectId,CurrentSense_PS,43757272-656e-4745-9365-6e73655f5053,rev?*%
%TF.SameCoordinates,Original*%
%TF.FileFunction,Legend,Top*%
%TF.FilePolarity,Positive*%
%FSLAX46Y46*%
G04 Gerber Fmt 4.6, Leading zero omitted, Abs format (unit mm)*
G04 Created by KiCad (PCBNEW (6.0.9)) date 2022-12-07 15:32:04*
%MOMM*%
%LPD*%
G01*
G04 APERTURE LIST*
%ADD10C,0.150000*%
%ADD11C,0.120000*%
%ADD12C,0.127000*%
%ADD13C,0.200000*%
G04 APERTURE END LIST*
D10*
X115490952Y-77033428D02*
X116252857Y-77033428D01*
X115871904Y-77414380D02*
X115871904Y-76652476D01*
X117252857Y-77414380D02*
X116681428Y-77414380D01*
X116967142Y-77414380D02*
X116967142Y-76414380D01*
X116871904Y-76557238D01*
X116776666Y-76652476D01*
X116681428Y-76700095D01*
X118157619Y-76414380D02*
X117681428Y-76414380D01*
X117633809Y-76890571D01*
X117681428Y-76842952D01*
X117776666Y-76795333D01*
X118014761Y-76795333D01*
X118110000Y-76842952D01*
X118157619Y-76890571D01*
X118205238Y-76985809D01*
X118205238Y-77223904D01*
X118157619Y-77319142D01*
X118110000Y-77366761D01*
X118014761Y-77414380D01*
X117776666Y-77414380D01*
X117681428Y-77366761D01*
X117633809Y-77319142D01*
X118490952Y-76414380D02*
X118824285Y-77414380D01*
X119157619Y-76414380D01*
X119443333Y-77128666D02*
X119919523Y-77128666D01*
X119348095Y-77414380D02*
X119681428Y-76414380D01*
X120014761Y-77414380D01*
X120300476Y-77128666D02*
X120776666Y-77128666D01*
X120205238Y-77414380D02*
X120538571Y-76414380D01*
X120871904Y-77414380D01*
X115490952Y-71953428D02*
X116252857Y-71953428D01*
X117252857Y-72334380D02*
X116681428Y-72334380D01*
X116967142Y-72334380D02*
X116967142Y-71334380D01*
X116871904Y-71477238D01*
X116776666Y-71572476D01*
X116681428Y-71620095D01*
X118157619Y-71334380D02*
X117681428Y-71334380D01*
X117633809Y-71810571D01*
X117681428Y-71762952D01*
X117776666Y-71715333D01*
X118014761Y-71715333D01*
X118110000Y-71762952D01*
X118157619Y-71810571D01*
X118205238Y-71905809D01*
X118205238Y-72143904D01*
X118157619Y-72239142D01*
X118110000Y-72286761D01*
X118014761Y-72334380D01*
X117776666Y-72334380D01*
X117681428Y-72286761D01*
X117633809Y-72239142D01*
X118490952Y-71334380D02*
X118824285Y-72334380D01*
X119157619Y-71334380D01*
X119443333Y-72048666D02*
X119919523Y-72048666D01*
X119348095Y-72334380D02*
X119681428Y-71334380D01*
X120014761Y-72334380D01*
X120300476Y-72048666D02*
X120776666Y-72048666D01*
X120205238Y-72334380D02*
X120538571Y-71334380D01*
X120871904Y-72334380D01*
X118694295Y-86393400D02*
X118599057Y-86345780D01*
X118456200Y-86345780D01*
X118313342Y-86393400D01*
X118218104Y-86488638D01*
X118170485Y-86583876D01*
X118122866Y-86774352D01*
X118122866Y-86917209D01*
X118170485Y-87107685D01*
X118218104Y-87202923D01*
X118313342Y-87298161D01*
X118456200Y-87345780D01*
X118551438Y-87345780D01*
X118694295Y-87298161D01*
X118741914Y-87250542D01*
X118741914Y-86917209D01*
X118551438Y-86917209D01*
X119170485Y-87345780D02*
X119170485Y-86345780D01*
X119741914Y-87345780D01*
X119741914Y-86345780D01*
X120218104Y-87345780D02*
X120218104Y-86345780D01*
X120456200Y-86345780D01*
X120599057Y-86393400D01*
X120694295Y-86488638D01*
X120741914Y-86583876D01*
X120789533Y-86774352D01*
X120789533Y-86917209D01*
X120741914Y-87107685D01*
X120694295Y-87202923D01*
X120599057Y-87298161D01*
X120456200Y-87345780D01*
X120218104Y-87345780D01*
X97332704Y-69994400D02*
X97427942Y-70042019D01*
X97570800Y-70042019D01*
X97713657Y-69994400D01*
X97808895Y-69899161D01*
X97856514Y-69803923D01*
X97904133Y-69613447D01*
X97904133Y-69470590D01*
X97856514Y-69280114D01*
X97808895Y-69184876D01*
X97713657Y-69089638D01*
X97570800Y-69042019D01*
X97475561Y-69042019D01*
X97332704Y-69089638D01*
X97285085Y-69137257D01*
X97285085Y-69470590D01*
X97475561Y-69470590D01*
X96856514Y-69042019D02*
X96856514Y-70042019D01*
X96285085Y-69042019D01*
X96285085Y-70042019D01*
X95808895Y-69042019D02*
X95808895Y-70042019D01*
X95570800Y-70042019D01*
X95427942Y-69994400D01*
X95332704Y-69899161D01*
X95285085Y-69803923D01*
X95237466Y-69613447D01*
X95237466Y-69470590D01*
X95285085Y-69280114D01*
X95332704Y-69184876D01*
X95427942Y-69089638D01*
X95570800Y-69042019D01*
X95808895Y-69042019D01*
X118541895Y-73922000D02*
X118446657Y-73874380D01*
X118303800Y-73874380D01*
X118160942Y-73922000D01*
X118065704Y-74017238D01*
X118018085Y-74112476D01*
X117970466Y-74302952D01*
X117970466Y-74445809D01*
X118018085Y-74636285D01*
X118065704Y-74731523D01*
X118160942Y-74826761D01*
X118303800Y-74874380D01*
X118399038Y-74874380D01*
X118541895Y-74826761D01*
X118589514Y-74779142D01*
X118589514Y-74445809D01*
X118399038Y-74445809D01*
X119018085Y-74874380D02*
X119018085Y-73874380D01*
X119589514Y-74874380D01*
X119589514Y-73874380D01*
X120065704Y-74874380D02*
X120065704Y-73874380D01*
X120303800Y-73874380D01*
X120446657Y-73922000D01*
X120541895Y-74017238D01*
X120589514Y-74112476D01*
X120637133Y-74302952D01*
X120637133Y-74445809D01*
X120589514Y-74636285D01*
X120541895Y-74731523D01*
X120446657Y-74826761D01*
X120303800Y-74874380D01*
X120065704Y-74874380D01*
D11*
X67711142Y-99693000D02*
X68068285Y-99693000D01*
X67639714Y-99907285D02*
X67889714Y-99157285D01*
X68139714Y-99907285D01*
X68389714Y-99407285D02*
X68389714Y-99907285D01*
X68389714Y-99478714D02*
X68425428Y-99443000D01*
X68496857Y-99407285D01*
X68604000Y-99407285D01*
X68675428Y-99443000D01*
X68711142Y-99514428D01*
X68711142Y-99907285D01*
X68961142Y-99407285D02*
X69246857Y-99407285D01*
X69068285Y-99157285D02*
X69068285Y-99800142D01*
X69104000Y-99871571D01*
X69175428Y-99907285D01*
X69246857Y-99907285D01*
X69496857Y-99907285D02*
X69496857Y-99157285D01*
X69818285Y-99907285D02*
X69818285Y-99514428D01*
X69782571Y-99443000D01*
X69711142Y-99407285D01*
X69604000Y-99407285D01*
X69532571Y-99443000D01*
X69496857Y-99478714D01*
X70282571Y-99907285D02*
X70211142Y-99871571D01*
X70175428Y-99835857D01*
X70139714Y-99764428D01*
X70139714Y-99550142D01*
X70175428Y-99478714D01*
X70211142Y-99443000D01*
X70282571Y-99407285D01*
X70389714Y-99407285D01*
X70461142Y-99443000D01*
X70496857Y-99478714D01*
X70532571Y-99550142D01*
X70532571Y-99764428D01*
X70496857Y-99835857D01*
X70461142Y-99871571D01*
X70389714Y-99907285D01*
X70282571Y-99907285D01*
X70854000Y-99407285D02*
X70854000Y-99907285D01*
X70854000Y-99478714D02*
X70889714Y-99443000D01*
X70961142Y-99407285D01*
X71068285Y-99407285D01*
X71139714Y-99443000D01*
X71175428Y-99514428D01*
X71175428Y-99907285D01*
X71461142Y-99407285D02*
X71639714Y-99907285D01*
X71818285Y-99407285D02*
X71639714Y-99907285D01*
X71568285Y-100085857D01*
X71532571Y-100121571D01*
X71461142Y-100157285D01*
X72032571Y-99157285D02*
X72532571Y-99157285D01*
X72032571Y-99907285D01*
X72532571Y-99907285D01*
D10*
X108511600Y-62361771D02*
X107749695Y-62361771D01*
X108130647Y-61980819D02*
X108130647Y-62742723D01*
X107368742Y-62980819D02*
X106749695Y-62980819D01*
X107083028Y-62599866D01*
X106940171Y-62599866D01*
X106844933Y-62552247D01*
X106797314Y-62504628D01*
X106749695Y-62409390D01*
X106749695Y-62171295D01*
X106797314Y-62076057D01*
X106844933Y-62028438D01*
X106940171Y-61980819D01*
X107225885Y-61980819D01*
X107321123Y-62028438D01*
X107368742Y-62076057D01*
X106321123Y-62076057D02*
X106273504Y-62028438D01*
X106321123Y-61980819D01*
X106368742Y-62028438D01*
X106321123Y-62076057D01*
X106321123Y-61980819D01*
X105940171Y-62980819D02*
X105321123Y-62980819D01*
X105654457Y-62599866D01*
X105511600Y-62599866D01*
X105416361Y-62552247D01*
X105368742Y-62504628D01*
X105321123Y-62409390D01*
X105321123Y-62171295D01*
X105368742Y-62076057D01*
X105416361Y-62028438D01*
X105511600Y-61980819D01*
X105797314Y-61980819D01*
X105892552Y-62028438D01*
X105940171Y-62076057D01*
X105035409Y-62980819D02*
X104702076Y-61980819D01*
X104368742Y-62980819D01*
X104035409Y-61980819D02*
X104035409Y-62980819D01*
X103797314Y-62980819D01*
X103654457Y-62933200D01*
X103559219Y-62837961D01*
X103511600Y-62742723D01*
X103463980Y-62552247D01*
X103463980Y-62409390D01*
X103511600Y-62218914D01*
X103559219Y-62123676D01*
X103654457Y-62028438D01*
X103797314Y-61980819D01*
X104035409Y-61980819D01*
X103035409Y-61980819D02*
X103035409Y-62980819D01*
X102797314Y-62980819D01*
X102654457Y-62933200D01*
X102559219Y-62837961D01*
X102511600Y-62742723D01*
X102463980Y-62552247D01*
X102463980Y-62409390D01*
X102511600Y-62218914D01*
X102559219Y-62123676D01*
X102654457Y-62028438D01*
X102797314Y-61980819D01*
X103035409Y-61980819D01*
X116348142Y-84272428D02*
X117110047Y-84272428D01*
X118062428Y-83653380D02*
X117586238Y-83653380D01*
X117538619Y-84129571D01*
X117586238Y-84081952D01*
X117681476Y-84034333D01*
X117919571Y-84034333D01*
X118014809Y-84081952D01*
X118062428Y-84129571D01*
X118110047Y-84224809D01*
X118110047Y-84462904D01*
X118062428Y-84558142D01*
X118014809Y-84605761D01*
X117919571Y-84653380D01*
X117681476Y-84653380D01*
X117586238Y-84605761D01*
X117538619Y-84558142D01*
X118395761Y-83653380D02*
X118729095Y-84653380D01*
X119062428Y-83653380D01*
X119348142Y-84367666D02*
X119824333Y-84367666D01*
X119252904Y-84653380D02*
X119586238Y-83653380D01*
X119919571Y-84653380D01*
X120205285Y-84367666D02*
X120681476Y-84367666D01*
X120110047Y-84653380D02*
X120443380Y-83653380D01*
X120776714Y-84653380D01*
X116348142Y-89479428D02*
X117110047Y-89479428D01*
X116729095Y-89860380D02*
X116729095Y-89098476D01*
X118062428Y-88860380D02*
X117586238Y-88860380D01*
X117538619Y-89336571D01*
X117586238Y-89288952D01*
X117681476Y-89241333D01*
X117919571Y-89241333D01*
X118014809Y-89288952D01*
X118062428Y-89336571D01*
X118110047Y-89431809D01*
X118110047Y-89669904D01*
X118062428Y-89765142D01*
X118014809Y-89812761D01*
X117919571Y-89860380D01*
X117681476Y-89860380D01*
X117586238Y-89812761D01*
X117538619Y-89765142D01*
X118395761Y-88860380D02*
X118729095Y-89860380D01*
X119062428Y-88860380D01*
X119348142Y-89574666D02*
X119824333Y-89574666D01*
X119252904Y-89860380D02*
X119586238Y-88860380D01*
X119919571Y-89860380D01*
X120205285Y-89574666D02*
X120681476Y-89574666D01*
X120110047Y-89860380D02*
X120443380Y-88860380D01*
X120776714Y-89860380D01*
X90626914Y-62310971D02*
X89865009Y-62310971D01*
X90245961Y-61930019D02*
X90245961Y-62691923D01*
X88912628Y-62930019D02*
X89388819Y-62930019D01*
X89436438Y-62453828D01*
X89388819Y-62501447D01*
X89293580Y-62549066D01*
X89055485Y-62549066D01*
X88960247Y-62501447D01*
X88912628Y-62453828D01*
X88865009Y-62358590D01*
X88865009Y-62120495D01*
X88912628Y-62025257D01*
X88960247Y-61977638D01*
X89055485Y-61930019D01*
X89293580Y-61930019D01*
X89388819Y-61977638D01*
X89436438Y-62025257D01*
X88579295Y-62930019D02*
X88245961Y-61930019D01*
X87912628Y-62930019D01*
X87579295Y-61930019D02*
X87579295Y-62930019D01*
X87341200Y-62930019D01*
X87198342Y-62882400D01*
X87103104Y-62787161D01*
X87055485Y-62691923D01*
X87007866Y-62501447D01*
X87007866Y-62358590D01*
X87055485Y-62168114D01*
X87103104Y-62072876D01*
X87198342Y-61977638D01*
X87341200Y-61930019D01*
X87579295Y-61930019D01*
X86579295Y-61930019D02*
X86579295Y-62930019D01*
X86341200Y-62930019D01*
X86198342Y-62882400D01*
X86103104Y-62787161D01*
X86055485Y-62691923D01*
X86007866Y-62501447D01*
X86007866Y-62358590D01*
X86055485Y-62168114D01*
X86103104Y-62072876D01*
X86198342Y-61977638D01*
X86341200Y-61930019D01*
X86579295Y-61930019D01*
%TO.C,C4*%
X71969333Y-92305142D02*
X71921714Y-92352761D01*
X71778857Y-92400380D01*
X71683619Y-92400380D01*
X71540761Y-92352761D01*
X71445523Y-92257523D01*
X71397904Y-92162285D01*
X71350285Y-91971809D01*
X71350285Y-91828952D01*
X71397904Y-91638476D01*
X71445523Y-91543238D01*
X71540761Y-91448000D01*
X71683619Y-91400380D01*
X71778857Y-91400380D01*
X71921714Y-91448000D01*
X71969333Y-91495619D01*
X72826476Y-91733714D02*
X72826476Y-92400380D01*
X72588380Y-91352761D02*
X72350285Y-92067047D01*
X72969333Y-92067047D01*
%TO.C,D6*%
X117180904Y-92654380D02*
X117180904Y-91654380D01*
X117419000Y-91654380D01*
X117561857Y-91702000D01*
X117657095Y-91797238D01*
X117704714Y-91892476D01*
X117752333Y-92082952D01*
X117752333Y-92225809D01*
X117704714Y-92416285D01*
X117657095Y-92511523D01*
X117561857Y-92606761D01*
X117419000Y-92654380D01*
X117180904Y-92654380D01*
X118609476Y-91654380D02*
X118419000Y-91654380D01*
X118323761Y-91702000D01*
X118276142Y-91749619D01*
X118180904Y-91892476D01*
X118133285Y-92082952D01*
X118133285Y-92463904D01*
X118180904Y-92559142D01*
X118228523Y-92606761D01*
X118323761Y-92654380D01*
X118514238Y-92654380D01*
X118609476Y-92606761D01*
X118657095Y-92559142D01*
X118704714Y-92463904D01*
X118704714Y-92225809D01*
X118657095Y-92130571D01*
X118609476Y-92082952D01*
X118514238Y-92035333D01*
X118323761Y-92035333D01*
X118228523Y-92082952D01*
X118180904Y-92130571D01*
X118133285Y-92225809D01*
%TO.C,R3*%
X105641380Y-64809666D02*
X105165190Y-65143000D01*
X105641380Y-65381095D02*
X104641380Y-65381095D01*
X104641380Y-65000142D01*
X104689000Y-64904904D01*
X104736619Y-64857285D01*
X104831857Y-64809666D01*
X104974714Y-64809666D01*
X105069952Y-64857285D01*
X105117571Y-64904904D01*
X105165190Y-65000142D01*
X105165190Y-65381095D01*
X104641380Y-64476333D02*
X104641380Y-63857285D01*
X105022333Y-64190619D01*
X105022333Y-64047761D01*
X105069952Y-63952523D01*
X105117571Y-63904904D01*
X105212809Y-63857285D01*
X105450904Y-63857285D01*
X105546142Y-63904904D01*
X105593761Y-63952523D01*
X105641380Y-64047761D01*
X105641380Y-64333476D01*
X105593761Y-64428714D01*
X105546142Y-64476333D01*
%TO.C,L3*%
X63693380Y-79922666D02*
X63693380Y-80398857D01*
X62693380Y-80398857D01*
X62693380Y-79684571D02*
X62693380Y-79065523D01*
X63074333Y-79398857D01*
X63074333Y-79256000D01*
X63121952Y-79160761D01*
X63169571Y-79113142D01*
X63264809Y-79065523D01*
X63502904Y-79065523D01*
X63598142Y-79113142D01*
X63645761Y-79160761D01*
X63693380Y-79256000D01*
X63693380Y-79541714D01*
X63645761Y-79636952D01*
X63598142Y-79684571D01*
%TO.C,L1*%
X88331380Y-76544666D02*
X88331380Y-77020857D01*
X87331380Y-77020857D01*
X88331380Y-75687523D02*
X88331380Y-76258952D01*
X88331380Y-75973238D02*
X87331380Y-75973238D01*
X87474238Y-76068476D01*
X87569476Y-76163714D01*
X87617095Y-76258952D01*
%TO.C,R2*%
X82535733Y-62580780D02*
X82202400Y-62104590D01*
X81964304Y-62580780D02*
X81964304Y-61580780D01*
X82345257Y-61580780D01*
X82440495Y-61628400D01*
X82488114Y-61676019D01*
X82535733Y-61771257D01*
X82535733Y-61914114D01*
X82488114Y-62009352D01*
X82440495Y-62056971D01*
X82345257Y-62104590D01*
X81964304Y-62104590D01*
X82916685Y-61676019D02*
X82964304Y-61628400D01*
X83059542Y-61580780D01*
X83297638Y-61580780D01*
X83392876Y-61628400D01*
X83440495Y-61676019D01*
X83488114Y-61771257D01*
X83488114Y-61866495D01*
X83440495Y-62009352D01*
X82869066Y-62580780D01*
X83488114Y-62580780D01*
%TO.C,R5*%
X125944333Y-69540380D02*
X125611000Y-69064190D01*
X125372904Y-69540380D02*
X125372904Y-68540380D01*
X125753857Y-68540380D01*
X125849095Y-68588000D01*
X125896714Y-68635619D01*
X125944333Y-68730857D01*
X125944333Y-68873714D01*
X125896714Y-68968952D01*
X125849095Y-69016571D01*
X125753857Y-69064190D01*
X125372904Y-69064190D01*
X126849095Y-68540380D02*
X126372904Y-68540380D01*
X126325285Y-69016571D01*
X126372904Y-68968952D01*
X126468142Y-68921333D01*
X126706238Y-68921333D01*
X126801476Y-68968952D01*
X126849095Y-69016571D01*
X126896714Y-69111809D01*
X126896714Y-69349904D01*
X126849095Y-69445142D01*
X126801476Y-69492761D01*
X126706238Y-69540380D01*
X126468142Y-69540380D01*
X126372904Y-69492761D01*
X126325285Y-69445142D01*
%TO.C,J1*%
X58888380Y-77295333D02*
X59602666Y-77295333D01*
X59745523Y-77342952D01*
X59840761Y-77438190D01*
X59888380Y-77581047D01*
X59888380Y-77676285D01*
X59888380Y-76295333D02*
X59888380Y-76866761D01*
X59888380Y-76581047D02*
X58888380Y-76581047D01*
X59031238Y-76676285D01*
X59126476Y-76771523D01*
X59174095Y-76866761D01*
X60539380Y-76581000D02*
X60777476Y-76581000D01*
X60682238Y-76819095D02*
X60777476Y-76581000D01*
X60682238Y-76342904D01*
X60967952Y-76723857D02*
X60777476Y-76581000D01*
X60967952Y-76438142D01*
%TO.C,U1*%
X97282095Y-74636380D02*
X97282095Y-75445904D01*
X97329714Y-75541142D01*
X97377333Y-75588761D01*
X97472571Y-75636380D01*
X97663047Y-75636380D01*
X97758285Y-75588761D01*
X97805904Y-75541142D01*
X97853523Y-75445904D01*
X97853523Y-74636380D01*
X98853523Y-75636380D02*
X98282095Y-75636380D01*
X98567809Y-75636380D02*
X98567809Y-74636380D01*
X98472571Y-74779238D01*
X98377333Y-74874476D01*
X98282095Y-74922095D01*
X96139000Y-70572380D02*
X96139000Y-70810476D01*
X95900904Y-70715238D02*
X96139000Y-70810476D01*
X96377095Y-70715238D01*
X95996142Y-71000952D02*
X96139000Y-70810476D01*
X96281857Y-71000952D01*
%TO.C,C7*%
X81875333Y-91797142D02*
X81827714Y-91844761D01*
X81684857Y-91892380D01*
X81589619Y-91892380D01*
X81446761Y-91844761D01*
X81351523Y-91749523D01*
X81303904Y-91654285D01*
X81256285Y-91463809D01*
X81256285Y-91320952D01*
X81303904Y-91130476D01*
X81351523Y-91035238D01*
X81446761Y-90940000D01*
X81589619Y-90892380D01*
X81684857Y-90892380D01*
X81827714Y-90940000D01*
X81875333Y-90987619D01*
X82208666Y-90892380D02*
X82875333Y-90892380D01*
X82446761Y-91892380D01*
%TO.C,J3*%
X65619380Y-88217333D02*
X66333666Y-88217333D01*
X66476523Y-88264952D01*
X66571761Y-88360190D01*
X66619380Y-88503047D01*
X66619380Y-88598285D01*
X65619380Y-87836380D02*
X65619380Y-87217333D01*
X66000333Y-87550666D01*
X66000333Y-87407809D01*
X66047952Y-87312571D01*
X66095571Y-87264952D01*
X66190809Y-87217333D01*
X66428904Y-87217333D01*
X66524142Y-87264952D01*
X66571761Y-87312571D01*
X66619380Y-87407809D01*
X66619380Y-87693523D01*
X66571761Y-87788761D01*
X66524142Y-87836380D01*
X61682380Y-92456000D02*
X61920476Y-92456000D01*
X61825238Y-92694095D02*
X61920476Y-92456000D01*
X61825238Y-92217904D01*
X62110952Y-92598857D02*
X61920476Y-92456000D01*
X62110952Y-92313142D01*
D11*
%TO.C,J4*%
X119892000Y-70201285D02*
X119892000Y-70737000D01*
X119856285Y-70844142D01*
X119784857Y-70915571D01*
X119677714Y-70951285D01*
X119606285Y-70951285D01*
X120570571Y-70451285D02*
X120570571Y-70951285D01*
X120392000Y-70165571D02*
X120213428Y-70701285D01*
X120677714Y-70701285D01*
D10*
X118832380Y-70485000D02*
X119070476Y-70485000D01*
X118975238Y-70723095D02*
X119070476Y-70485000D01*
X118975238Y-70246904D01*
X119260952Y-70627857D02*
X119070476Y-70485000D01*
X119260952Y-70342142D01*
%TO.C,R4*%
X125880333Y-80208380D02*
X125547000Y-79732190D01*
X125308904Y-80208380D02*
X125308904Y-79208380D01*
X125689857Y-79208380D01*
X125785095Y-79256000D01*
X125832714Y-79303619D01*
X125880333Y-79398857D01*
X125880333Y-79541714D01*
X125832714Y-79636952D01*
X125785095Y-79684571D01*
X125689857Y-79732190D01*
X125308904Y-79732190D01*
X126737476Y-79541714D02*
X126737476Y-80208380D01*
X126499380Y-79160761D02*
X126261285Y-79875047D01*
X126880333Y-79875047D01*
%TO.C,C13*%
X111117142Y-84685142D02*
X111069523Y-84732761D01*
X110926666Y-84780380D01*
X110831428Y-84780380D01*
X110688571Y-84732761D01*
X110593333Y-84637523D01*
X110545714Y-84542285D01*
X110498095Y-84351809D01*
X110498095Y-84208952D01*
X110545714Y-84018476D01*
X110593333Y-83923238D01*
X110688571Y-83828000D01*
X110831428Y-83780380D01*
X110926666Y-83780380D01*
X111069523Y-83828000D01*
X111117142Y-83875619D01*
X112069523Y-84780380D02*
X111498095Y-84780380D01*
X111783809Y-84780380D02*
X111783809Y-83780380D01*
X111688571Y-83923238D01*
X111593333Y-84018476D01*
X111498095Y-84066095D01*
X112402857Y-83780380D02*
X113021904Y-83780380D01*
X112688571Y-84161333D01*
X112831428Y-84161333D01*
X112926666Y-84208952D01*
X112974285Y-84256571D01*
X113021904Y-84351809D01*
X113021904Y-84589904D01*
X112974285Y-84685142D01*
X112926666Y-84732761D01*
X112831428Y-84780380D01*
X112545714Y-84780380D01*
X112450476Y-84732761D01*
X112402857Y-84685142D01*
%TO.C,F1*%
X66087666Y-75959571D02*
X65754333Y-75959571D01*
X65754333Y-76483380D02*
X65754333Y-75483380D01*
X66230523Y-75483380D01*
X67135285Y-76483380D02*
X66563857Y-76483380D01*
X66849571Y-76483380D02*
X66849571Y-75483380D01*
X66754333Y-75626238D01*
X66659095Y-75721476D01*
X66563857Y-75769095D01*
%TO.C,C3*%
X112663333Y-64237142D02*
X112615714Y-64284761D01*
X112472857Y-64332380D01*
X112377619Y-64332380D01*
X112234761Y-64284761D01*
X112139523Y-64189523D01*
X112091904Y-64094285D01*
X112044285Y-63903809D01*
X112044285Y-63760952D01*
X112091904Y-63570476D01*
X112139523Y-63475238D01*
X112234761Y-63380000D01*
X112377619Y-63332380D01*
X112472857Y-63332380D01*
X112615714Y-63380000D01*
X112663333Y-63427619D01*
X112996666Y-63332380D02*
X113615714Y-63332380D01*
X113282380Y-63713333D01*
X113425238Y-63713333D01*
X113520476Y-63760952D01*
X113568095Y-63808571D01*
X113615714Y-63903809D01*
X113615714Y-64141904D01*
X113568095Y-64237142D01*
X113520476Y-64284761D01*
X113425238Y-64332380D01*
X113139523Y-64332380D01*
X113044285Y-64284761D01*
X112996666Y-64237142D01*
%TO.C,R1*%
X115107980Y-89523866D02*
X114631790Y-89857200D01*
X115107980Y-90095295D02*
X114107980Y-90095295D01*
X114107980Y-89714342D01*
X114155600Y-89619104D01*
X114203219Y-89571485D01*
X114298457Y-89523866D01*
X114441314Y-89523866D01*
X114536552Y-89571485D01*
X114584171Y-89619104D01*
X114631790Y-89714342D01*
X114631790Y-90095295D01*
X115107980Y-88571485D02*
X115107980Y-89142914D01*
X115107980Y-88857200D02*
X114107980Y-88857200D01*
X114250838Y-88952438D01*
X114346076Y-89047676D01*
X114393695Y-89142914D01*
%TO.C,C10*%
X114927142Y-98020142D02*
X114879523Y-98067761D01*
X114736666Y-98115380D01*
X114641428Y-98115380D01*
X114498571Y-98067761D01*
X114403333Y-97972523D01*
X114355714Y-97877285D01*
X114308095Y-97686809D01*
X114308095Y-97543952D01*
X114355714Y-97353476D01*
X114403333Y-97258238D01*
X114498571Y-97163000D01*
X114641428Y-97115380D01*
X114736666Y-97115380D01*
X114879523Y-97163000D01*
X114927142Y-97210619D01*
X115879523Y-98115380D02*
X115308095Y-98115380D01*
X115593809Y-98115380D02*
X115593809Y-97115380D01*
X115498571Y-97258238D01*
X115403333Y-97353476D01*
X115308095Y-97401095D01*
X116498571Y-97115380D02*
X116593809Y-97115380D01*
X116689047Y-97163000D01*
X116736666Y-97210619D01*
X116784285Y-97305857D01*
X116831904Y-97496333D01*
X116831904Y-97734428D01*
X116784285Y-97924904D01*
X116736666Y-98020142D01*
X116689047Y-98067761D01*
X116593809Y-98115380D01*
X116498571Y-98115380D01*
X116403333Y-98067761D01*
X116355714Y-98020142D01*
X116308095Y-97924904D01*
X116260476Y-97734428D01*
X116260476Y-97496333D01*
X116308095Y-97305857D01*
X116355714Y-97210619D01*
X116403333Y-97163000D01*
X116498571Y-97115380D01*
%TO.C,D4*%
X117244904Y-69540380D02*
X117244904Y-68540380D01*
X117483000Y-68540380D01*
X117625857Y-68588000D01*
X117721095Y-68683238D01*
X117768714Y-68778476D01*
X117816333Y-68968952D01*
X117816333Y-69111809D01*
X117768714Y-69302285D01*
X117721095Y-69397523D01*
X117625857Y-69492761D01*
X117483000Y-69540380D01*
X117244904Y-69540380D01*
X118673476Y-68873714D02*
X118673476Y-69540380D01*
X118435380Y-68492761D02*
X118197285Y-69207047D01*
X118816333Y-69207047D01*
%TO.C,C8*%
X109815333Y-85955142D02*
X109767714Y-86002761D01*
X109624857Y-86050380D01*
X109529619Y-86050380D01*
X109386761Y-86002761D01*
X109291523Y-85907523D01*
X109243904Y-85812285D01*
X109196285Y-85621809D01*
X109196285Y-85478952D01*
X109243904Y-85288476D01*
X109291523Y-85193238D01*
X109386761Y-85098000D01*
X109529619Y-85050380D01*
X109624857Y-85050380D01*
X109767714Y-85098000D01*
X109815333Y-85145619D01*
X110386761Y-85478952D02*
X110291523Y-85431333D01*
X110243904Y-85383714D01*
X110196285Y-85288476D01*
X110196285Y-85240857D01*
X110243904Y-85145619D01*
X110291523Y-85098000D01*
X110386761Y-85050380D01*
X110577238Y-85050380D01*
X110672476Y-85098000D01*
X110720095Y-85145619D01*
X110767714Y-85240857D01*
X110767714Y-85288476D01*
X110720095Y-85383714D01*
X110672476Y-85431333D01*
X110577238Y-85478952D01*
X110386761Y-85478952D01*
X110291523Y-85526571D01*
X110243904Y-85574190D01*
X110196285Y-85669428D01*
X110196285Y-85859904D01*
X110243904Y-85955142D01*
X110291523Y-86002761D01*
X110386761Y-86050380D01*
X110577238Y-86050380D01*
X110672476Y-86002761D01*
X110720095Y-85955142D01*
X110767714Y-85859904D01*
X110767714Y-85669428D01*
X110720095Y-85574190D01*
X110672476Y-85526571D01*
X110577238Y-85478952D01*
%TO.C,C14*%
X85517142Y-70747142D02*
X85469523Y-70794761D01*
X85326666Y-70842380D01*
X85231428Y-70842380D01*
X85088571Y-70794761D01*
X84993333Y-70699523D01*
X84945714Y-70604285D01*
X84898095Y-70413809D01*
X84898095Y-70270952D01*
X84945714Y-70080476D01*
X84993333Y-69985238D01*
X85088571Y-69890000D01*
X85231428Y-69842380D01*
X85326666Y-69842380D01*
X85469523Y-69890000D01*
X85517142Y-69937619D01*
X86469523Y-70842380D02*
X85898095Y-70842380D01*
X86183809Y-70842380D02*
X86183809Y-69842380D01*
X86088571Y-69985238D01*
X85993333Y-70080476D01*
X85898095Y-70128095D01*
X87326666Y-70175714D02*
X87326666Y-70842380D01*
X87088571Y-69794761D02*
X86850476Y-70509047D01*
X87469523Y-70509047D01*
%TO.C,C5*%
X74128333Y-85066142D02*
X74080714Y-85113761D01*
X73937857Y-85161380D01*
X73842619Y-85161380D01*
X73699761Y-85113761D01*
X73604523Y-85018523D01*
X73556904Y-84923285D01*
X73509285Y-84732809D01*
X73509285Y-84589952D01*
X73556904Y-84399476D01*
X73604523Y-84304238D01*
X73699761Y-84209000D01*
X73842619Y-84161380D01*
X73937857Y-84161380D01*
X74080714Y-84209000D01*
X74128333Y-84256619D01*
X75033095Y-84161380D02*
X74556904Y-84161380D01*
X74509285Y-84637571D01*
X74556904Y-84589952D01*
X74652142Y-84542333D01*
X74890238Y-84542333D01*
X74985476Y-84589952D01*
X75033095Y-84637571D01*
X75080714Y-84732809D01*
X75080714Y-84970904D01*
X75033095Y-85066142D01*
X74985476Y-85113761D01*
X74890238Y-85161380D01*
X74652142Y-85161380D01*
X74556904Y-85113761D01*
X74509285Y-85066142D01*
%TO.C,F2*%
X66595666Y-91580571D02*
X66262333Y-91580571D01*
X66262333Y-92104380D02*
X66262333Y-91104380D01*
X66738523Y-91104380D01*
X67071857Y-91199619D02*
X67119476Y-91152000D01*
X67214714Y-91104380D01*
X67452809Y-91104380D01*
X67548047Y-91152000D01*
X67595666Y-91199619D01*
X67643285Y-91294857D01*
X67643285Y-91390095D01*
X67595666Y-91532952D01*
X67024238Y-92104380D01*
X67643285Y-92104380D01*
%TO.C,D1*%
X81964304Y-70200780D02*
X81964304Y-69200780D01*
X82202400Y-69200780D01*
X82345257Y-69248400D01*
X82440495Y-69343638D01*
X82488114Y-69438876D01*
X82535733Y-69629352D01*
X82535733Y-69772209D01*
X82488114Y-69962685D01*
X82440495Y-70057923D01*
X82345257Y-70153161D01*
X82202400Y-70200780D01*
X81964304Y-70200780D01*
X83488114Y-70200780D02*
X82916685Y-70200780D01*
X83202400Y-70200780D02*
X83202400Y-69200780D01*
X83107161Y-69343638D01*
X83011923Y-69438876D01*
X82916685Y-69486495D01*
%TO.C,U5*%
X107820095Y-71226380D02*
X107820095Y-72035904D01*
X107867714Y-72131142D01*
X107915333Y-72178761D01*
X108010571Y-72226380D01*
X108201047Y-72226380D01*
X108296285Y-72178761D01*
X108343904Y-72131142D01*
X108391523Y-72035904D01*
X108391523Y-71226380D01*
X109343904Y-71226380D02*
X108867714Y-71226380D01*
X108820095Y-71702571D01*
X108867714Y-71654952D01*
X108962952Y-71607333D01*
X109201047Y-71607333D01*
X109296285Y-71654952D01*
X109343904Y-71702571D01*
X109391523Y-71797809D01*
X109391523Y-72035904D01*
X109343904Y-72131142D01*
X109296285Y-72178761D01*
X109201047Y-72226380D01*
X108962952Y-72226380D01*
X108867714Y-72178761D01*
X108820095Y-72131142D01*
%TO.C,C9*%
X106145333Y-86209142D02*
X106097714Y-86256761D01*
X105954857Y-86304380D01*
X105859619Y-86304380D01*
X105716761Y-86256761D01*
X105621523Y-86161523D01*
X105573904Y-86066285D01*
X105526285Y-85875809D01*
X105526285Y-85732952D01*
X105573904Y-85542476D01*
X105621523Y-85447238D01*
X105716761Y-85352000D01*
X105859619Y-85304380D01*
X105954857Y-85304380D01*
X106097714Y-85352000D01*
X106145333Y-85399619D01*
X106621523Y-86304380D02*
X106812000Y-86304380D01*
X106907238Y-86256761D01*
X106954857Y-86209142D01*
X107050095Y-86066285D01*
X107097714Y-85875809D01*
X107097714Y-85494857D01*
X107050095Y-85399619D01*
X107002476Y-85352000D01*
X106907238Y-85304380D01*
X106716761Y-85304380D01*
X106621523Y-85352000D01*
X106573904Y-85399619D01*
X106526285Y-85494857D01*
X106526285Y-85732952D01*
X106573904Y-85828190D01*
X106621523Y-85875809D01*
X106716761Y-85923428D01*
X106907238Y-85923428D01*
X107002476Y-85875809D01*
X107050095Y-85828190D01*
X107097714Y-85732952D01*
%TO.C,U4*%
X104140095Y-89876380D02*
X104140095Y-90685904D01*
X104187714Y-90781142D01*
X104235333Y-90828761D01*
X104330571Y-90876380D01*
X104521047Y-90876380D01*
X104616285Y-90828761D01*
X104663904Y-90781142D01*
X104711523Y-90685904D01*
X104711523Y-89876380D01*
X105616285Y-90209714D02*
X105616285Y-90876380D01*
X105378190Y-89828761D02*
X105140095Y-90543047D01*
X105759142Y-90543047D01*
%TO.C,DN2*%
X92781380Y-82742904D02*
X91781380Y-82742904D01*
X91781380Y-82504809D01*
X91829000Y-82361952D01*
X91924238Y-82266714D01*
X92019476Y-82219095D01*
X92209952Y-82171476D01*
X92352809Y-82171476D01*
X92543285Y-82219095D01*
X92638523Y-82266714D01*
X92733761Y-82361952D01*
X92781380Y-82504809D01*
X92781380Y-82742904D01*
X92781380Y-81742904D02*
X91781380Y-81742904D01*
X92781380Y-81171476D01*
X91781380Y-81171476D01*
X91876619Y-80742904D02*
X91829000Y-80695285D01*
X91781380Y-80600047D01*
X91781380Y-80361952D01*
X91829000Y-80266714D01*
X91876619Y-80219095D01*
X91971857Y-80171476D01*
X92067095Y-80171476D01*
X92209952Y-80219095D01*
X92781380Y-80790523D01*
X92781380Y-80171476D01*
%TO.C,L2*%
X115768380Y-65825666D02*
X115768380Y-66301857D01*
X114768380Y-66301857D01*
X114863619Y-65539952D02*
X114816000Y-65492333D01*
X114768380Y-65397095D01*
X114768380Y-65159000D01*
X114816000Y-65063761D01*
X114863619Y-65016142D01*
X114958857Y-64968523D01*
X115054095Y-64968523D01*
X115196952Y-65016142D01*
X115768380Y-65587571D01*
X115768380Y-64968523D01*
%TO.C,C2*%
X90257333Y-77446142D02*
X90209714Y-77493761D01*
X90066857Y-77541380D01*
X89971619Y-77541380D01*
X89828761Y-77493761D01*
X89733523Y-77398523D01*
X89685904Y-77303285D01*
X89638285Y-77112809D01*
X89638285Y-76969952D01*
X89685904Y-76779476D01*
X89733523Y-76684238D01*
X89828761Y-76589000D01*
X89971619Y-76541380D01*
X90066857Y-76541380D01*
X90209714Y-76589000D01*
X90257333Y-76636619D01*
X90638285Y-76636619D02*
X90685904Y-76589000D01*
X90781142Y-76541380D01*
X91019238Y-76541380D01*
X91114476Y-76589000D01*
X91162095Y-76636619D01*
X91209714Y-76731857D01*
X91209714Y-76827095D01*
X91162095Y-76969952D01*
X90590666Y-77541380D01*
X91209714Y-77541380D01*
%TO.C,D3*%
X117053904Y-80208380D02*
X117053904Y-79208380D01*
X117292000Y-79208380D01*
X117434857Y-79256000D01*
X117530095Y-79351238D01*
X117577714Y-79446476D01*
X117625333Y-79636952D01*
X117625333Y-79779809D01*
X117577714Y-79970285D01*
X117530095Y-80065523D01*
X117434857Y-80160761D01*
X117292000Y-80208380D01*
X117053904Y-80208380D01*
X117958666Y-79208380D02*
X118577714Y-79208380D01*
X118244380Y-79589333D01*
X118387238Y-79589333D01*
X118482476Y-79636952D01*
X118530095Y-79684571D01*
X118577714Y-79779809D01*
X118577714Y-80017904D01*
X118530095Y-80113142D01*
X118482476Y-80160761D01*
X118387238Y-80208380D01*
X118101523Y-80208380D01*
X118006285Y-80160761D01*
X117958666Y-80113142D01*
%TO.C,BR1*%
X70215238Y-84637571D02*
X70358095Y-84685190D01*
X70405714Y-84732809D01*
X70453333Y-84828047D01*
X70453333Y-84970904D01*
X70405714Y-85066142D01*
X70358095Y-85113761D01*
X70262857Y-85161380D01*
X69881904Y-85161380D01*
X69881904Y-84161380D01*
X70215238Y-84161380D01*
X70310476Y-84209000D01*
X70358095Y-84256619D01*
X70405714Y-84351857D01*
X70405714Y-84447095D01*
X70358095Y-84542333D01*
X70310476Y-84589952D01*
X70215238Y-84637571D01*
X69881904Y-84637571D01*
X71453333Y-85161380D02*
X71120000Y-84685190D01*
X70881904Y-85161380D02*
X70881904Y-84161380D01*
X71262857Y-84161380D01*
X71358095Y-84209000D01*
X71405714Y-84256619D01*
X71453333Y-84351857D01*
X71453333Y-84494714D01*
X71405714Y-84589952D01*
X71358095Y-84637571D01*
X71262857Y-84685190D01*
X70881904Y-84685190D01*
X72405714Y-85161380D02*
X71834285Y-85161380D01*
X72120000Y-85161380D02*
X72120000Y-84161380D01*
X72024761Y-84304238D01*
X71929523Y-84399476D01*
X71834285Y-84447095D01*
%TO.C,D5*%
X116990904Y-81859380D02*
X116990904Y-80859380D01*
X117229000Y-80859380D01*
X117371857Y-80907000D01*
X117467095Y-81002238D01*
X117514714Y-81097476D01*
X117562333Y-81287952D01*
X117562333Y-81430809D01*
X117514714Y-81621285D01*
X117467095Y-81716523D01*
X117371857Y-81811761D01*
X117229000Y-81859380D01*
X116990904Y-81859380D01*
X118467095Y-80859380D02*
X117990904Y-80859380D01*
X117943285Y-81335571D01*
X117990904Y-81287952D01*
X118086142Y-81240333D01*
X118324238Y-81240333D01*
X118419476Y-81287952D01*
X118467095Y-81335571D01*
X118514714Y-81430809D01*
X118514714Y-81668904D01*
X118467095Y-81764142D01*
X118419476Y-81811761D01*
X118324238Y-81859380D01*
X118086142Y-81859380D01*
X117990904Y-81811761D01*
X117943285Y-81764142D01*
%TO.C,DN1*%
X104719380Y-95241904D02*
X103719380Y-95241904D01*
X103719380Y-95003809D01*
X103767000Y-94860952D01*
X103862238Y-94765714D01*
X103957476Y-94718095D01*
X104147952Y-94670476D01*
X104290809Y-94670476D01*
X104481285Y-94718095D01*
X104576523Y-94765714D01*
X104671761Y-94860952D01*
X104719380Y-95003809D01*
X104719380Y-95241904D01*
X104719380Y-94241904D02*
X103719380Y-94241904D01*
X104719380Y-93670476D01*
X103719380Y-93670476D01*
X104719380Y-92670476D02*
X104719380Y-93241904D01*
X104719380Y-92956190D02*
X103719380Y-92956190D01*
X103862238Y-93051428D01*
X103957476Y-93146666D01*
X104005095Y-93241904D01*
%TO.C,R7*%
X125817333Y-81986380D02*
X125484000Y-81510190D01*
X125245904Y-81986380D02*
X125245904Y-80986380D01*
X125626857Y-80986380D01*
X125722095Y-81034000D01*
X125769714Y-81081619D01*
X125817333Y-81176857D01*
X125817333Y-81319714D01*
X125769714Y-81414952D01*
X125722095Y-81462571D01*
X125626857Y-81510190D01*
X125245904Y-81510190D01*
X126150666Y-80986380D02*
X126817333Y-80986380D01*
X126388761Y-81986380D01*
%TO.C,C11*%
X116181142Y-74937857D02*
X116228761Y-74985476D01*
X116276380Y-75128333D01*
X116276380Y-75223571D01*
X116228761Y-75366428D01*
X116133523Y-75461666D01*
X116038285Y-75509285D01*
X115847809Y-75556904D01*
X115704952Y-75556904D01*
X115514476Y-75509285D01*
X115419238Y-75461666D01*
X115324000Y-75366428D01*
X115276380Y-75223571D01*
X115276380Y-75128333D01*
X115324000Y-74985476D01*
X115371619Y-74937857D01*
X116276380Y-73985476D02*
X116276380Y-74556904D01*
X116276380Y-74271190D02*
X115276380Y-74271190D01*
X115419238Y-74366428D01*
X115514476Y-74461666D01*
X115562095Y-74556904D01*
X116276380Y-73033095D02*
X116276380Y-73604523D01*
X116276380Y-73318809D02*
X115276380Y-73318809D01*
X115419238Y-73414047D01*
X115514476Y-73509285D01*
X115562095Y-73604523D01*
%TO.C,J6*%
X68195866Y-61682380D02*
X68195866Y-62396666D01*
X68148247Y-62539523D01*
X68053009Y-62634761D01*
X67910152Y-62682380D01*
X67814914Y-62682380D01*
X69100628Y-61682380D02*
X68910152Y-61682380D01*
X68814914Y-61730000D01*
X68767295Y-61777619D01*
X68672057Y-61920476D01*
X68624438Y-62110952D01*
X68624438Y-62491904D01*
X68672057Y-62587142D01*
X68719676Y-62634761D01*
X68814914Y-62682380D01*
X69005390Y-62682380D01*
X69100628Y-62634761D01*
X69148247Y-62587142D01*
X69195866Y-62491904D01*
X69195866Y-62253809D01*
X69148247Y-62158571D01*
X69100628Y-62110952D01*
X69005390Y-62063333D01*
X68814914Y-62063333D01*
X68719676Y-62110952D01*
X68672057Y-62158571D01*
X68624438Y-62253809D01*
D11*
%TO.C,J5*%
X119943000Y-82571085D02*
X119943000Y-83106800D01*
X119907285Y-83213942D01*
X119835857Y-83285371D01*
X119728714Y-83321085D01*
X119657285Y-83321085D01*
X120657285Y-82571085D02*
X120300142Y-82571085D01*
X120264428Y-82928228D01*
X120300142Y-82892514D01*
X120371571Y-82856800D01*
X120550142Y-82856800D01*
X120621571Y-82892514D01*
X120657285Y-82928228D01*
X120693000Y-82999657D01*
X120693000Y-83178228D01*
X120657285Y-83249657D01*
X120621571Y-83285371D01*
X120550142Y-83321085D01*
X120371571Y-83321085D01*
X120300142Y-83285371D01*
X120264428Y-83249657D01*
D10*
X118959380Y-82931000D02*
X119197476Y-82931000D01*
X119102238Y-83169095D02*
X119197476Y-82931000D01*
X119102238Y-82692904D01*
X119387952Y-83073857D02*
X119197476Y-82931000D01*
X119387952Y-82788142D01*
%TO.C,U3*%
X84510695Y-84542380D02*
X84510695Y-85351904D01*
X84558314Y-85447142D01*
X84605933Y-85494761D01*
X84701171Y-85542380D01*
X84891647Y-85542380D01*
X84986885Y-85494761D01*
X85034504Y-85447142D01*
X85082123Y-85351904D01*
X85082123Y-84542380D01*
X85463076Y-84542380D02*
X86082123Y-84542380D01*
X85748790Y-84923333D01*
X85891647Y-84923333D01*
X85986885Y-84970952D01*
X86034504Y-85018571D01*
X86082123Y-85113809D01*
X86082123Y-85351904D01*
X86034504Y-85447142D01*
X85986885Y-85494761D01*
X85891647Y-85542380D01*
X85605933Y-85542380D01*
X85510695Y-85494761D01*
X85463076Y-85447142D01*
X79121000Y-81748380D02*
X79121000Y-81986476D01*
X78882904Y-81891238D02*
X79121000Y-81986476D01*
X79359095Y-81891238D01*
X78978142Y-82176952D02*
X79121000Y-81986476D01*
X79263857Y-82176952D01*
%TO.C,C12*%
X101324562Y-75033142D02*
X101276943Y-75080761D01*
X101134086Y-75128380D01*
X101038848Y-75128380D01*
X100895991Y-75080761D01*
X100800753Y-74985523D01*
X100753134Y-74890285D01*
X100705515Y-74699809D01*
X100705515Y-74556952D01*
X100753134Y-74366476D01*
X100800753Y-74271238D01*
X100895991Y-74176000D01*
X101038848Y-74128380D01*
X101134086Y-74128380D01*
X101276943Y-74176000D01*
X101324562Y-74223619D01*
X102276943Y-75128380D02*
X101705515Y-75128380D01*
X101991229Y-75128380D02*
X101991229Y-74128380D01*
X101895991Y-74271238D01*
X101800753Y-74366476D01*
X101705515Y-74414095D01*
X102657896Y-74223619D02*
X102705515Y-74176000D01*
X102800753Y-74128380D01*
X103038848Y-74128380D01*
X103134086Y-74176000D01*
X103181705Y-74223619D01*
X103229324Y-74318857D01*
X103229324Y-74414095D01*
X103181705Y-74556952D01*
X102610277Y-75128380D01*
X103229324Y-75128380D01*
%TO.C,U2*%
X84256695Y-98639380D02*
X84256695Y-99448904D01*
X84304314Y-99544142D01*
X84351933Y-99591761D01*
X84447171Y-99639380D01*
X84637647Y-99639380D01*
X84732885Y-99591761D01*
X84780504Y-99544142D01*
X84828123Y-99448904D01*
X84828123Y-98639380D01*
X85256695Y-98734619D02*
X85304314Y-98687000D01*
X85399552Y-98639380D01*
X85637647Y-98639380D01*
X85732885Y-98687000D01*
X85780504Y-98734619D01*
X85828123Y-98829857D01*
X85828123Y-98925095D01*
X85780504Y-99067952D01*
X85209076Y-99639380D01*
X85828123Y-99639380D01*
X81574142Y-94686380D02*
X81097952Y-94686380D01*
X81097952Y-93686380D01*
X81907476Y-94686380D02*
X81907476Y-93686380D01*
X82240809Y-94400666D01*
X82574142Y-93686380D01*
X82574142Y-94686380D01*
X82955095Y-93686380D02*
X83574142Y-93686380D01*
X83240809Y-94067333D01*
X83383666Y-94067333D01*
X83478904Y-94114952D01*
X83526523Y-94162571D01*
X83574142Y-94257809D01*
X83574142Y-94495904D01*
X83526523Y-94591142D01*
X83478904Y-94638761D01*
X83383666Y-94686380D01*
X83097952Y-94686380D01*
X83002714Y-94638761D01*
X82955095Y-94591142D01*
X84431285Y-94019714D02*
X84431285Y-94686380D01*
X84193190Y-93638761D02*
X83955095Y-94353047D01*
X84574142Y-94353047D01*
X85145571Y-93686380D02*
X85240809Y-93686380D01*
X85336047Y-93734000D01*
X85383666Y-93781619D01*
X85431285Y-93876857D01*
X85478904Y-94067333D01*
X85478904Y-94305428D01*
X85431285Y-94495904D01*
X85383666Y-94591142D01*
X85336047Y-94638761D01*
X85240809Y-94686380D01*
X85145571Y-94686380D01*
X85050333Y-94638761D01*
X85002714Y-94591142D01*
X84955095Y-94495904D01*
X84907476Y-94305428D01*
X84907476Y-94067333D01*
X84955095Y-93876857D01*
X85002714Y-93781619D01*
X85050333Y-93734000D01*
X85145571Y-93686380D01*
X85764619Y-93686380D02*
X86336047Y-93686380D01*
X86050333Y-94686380D02*
X86050333Y-93686380D01*
X86669380Y-94305428D02*
X87431285Y-94305428D01*
X88431285Y-94686380D02*
X87859857Y-94686380D01*
X88145571Y-94686380D02*
X88145571Y-93686380D01*
X88050333Y-93829238D01*
X87955095Y-93924476D01*
X87859857Y-93972095D01*
X89336047Y-93686380D02*
X88859857Y-93686380D01*
X88812238Y-94162571D01*
X88859857Y-94114952D01*
X88955095Y-94067333D01*
X89193190Y-94067333D01*
X89288428Y-94114952D01*
X89336047Y-94162571D01*
X89383666Y-94257809D01*
X89383666Y-94495904D01*
X89336047Y-94591142D01*
X89288428Y-94638761D01*
X89193190Y-94686380D01*
X88955095Y-94686380D01*
X88859857Y-94638761D01*
X88812238Y-94591142D01*
X78994000Y-96099380D02*
X78994000Y-96337476D01*
X78755904Y-96242238D02*
X78994000Y-96337476D01*
X79232095Y-96242238D01*
X78851142Y-96527952D02*
X78994000Y-96337476D01*
X79136857Y-96527952D01*
%TO.C,R6*%
X126007333Y-92654380D02*
X125674000Y-92178190D01*
X125435904Y-92654380D02*
X125435904Y-91654380D01*
X125816857Y-91654380D01*
X125912095Y-91702000D01*
X125959714Y-91749619D01*
X126007333Y-91844857D01*
X126007333Y-91987714D01*
X125959714Y-92082952D01*
X125912095Y-92130571D01*
X125816857Y-92178190D01*
X125435904Y-92178190D01*
X126864476Y-91654380D02*
X126674000Y-91654380D01*
X126578761Y-91702000D01*
X126531142Y-91749619D01*
X126435904Y-91892476D01*
X126388285Y-92082952D01*
X126388285Y-92463904D01*
X126435904Y-92559142D01*
X126483523Y-92606761D01*
X126578761Y-92654380D01*
X126769238Y-92654380D01*
X126864476Y-92606761D01*
X126912095Y-92559142D01*
X126959714Y-92463904D01*
X126959714Y-92225809D01*
X126912095Y-92130571D01*
X126864476Y-92082952D01*
X126769238Y-92035333D01*
X126578761Y-92035333D01*
X126483523Y-92082952D01*
X126435904Y-92130571D01*
X126388285Y-92225809D01*
%TO.C,C6*%
X89241333Y-91797142D02*
X89193714Y-91844761D01*
X89050857Y-91892380D01*
X88955619Y-91892380D01*
X88812761Y-91844761D01*
X88717523Y-91749523D01*
X88669904Y-91654285D01*
X88622285Y-91463809D01*
X88622285Y-91320952D01*
X88669904Y-91130476D01*
X88717523Y-91035238D01*
X88812761Y-90940000D01*
X88955619Y-90892380D01*
X89050857Y-90892380D01*
X89193714Y-90940000D01*
X89241333Y-90987619D01*
X90098476Y-90892380D02*
X89908000Y-90892380D01*
X89812761Y-90940000D01*
X89765142Y-90987619D01*
X89669904Y-91130476D01*
X89622285Y-91320952D01*
X89622285Y-91701904D01*
X89669904Y-91797142D01*
X89717523Y-91844761D01*
X89812761Y-91892380D01*
X90003238Y-91892380D01*
X90098476Y-91844761D01*
X90146095Y-91797142D01*
X90193714Y-91701904D01*
X90193714Y-91463809D01*
X90146095Y-91368571D01*
X90098476Y-91320952D01*
X90003238Y-91273333D01*
X89812761Y-91273333D01*
X89717523Y-91320952D01*
X89669904Y-91368571D01*
X89622285Y-91463809D01*
%TO.C,D2*%
X105862380Y-68556095D02*
X104862380Y-68556095D01*
X104862380Y-68318000D01*
X104910000Y-68175142D01*
X105005238Y-68079904D01*
X105100476Y-68032285D01*
X105290952Y-67984666D01*
X105433809Y-67984666D01*
X105624285Y-68032285D01*
X105719523Y-68079904D01*
X105814761Y-68175142D01*
X105862380Y-68318000D01*
X105862380Y-68556095D01*
X104957619Y-67603714D02*
X104910000Y-67556095D01*
X104862380Y-67460857D01*
X104862380Y-67222761D01*
X104910000Y-67127523D01*
X104957619Y-67079904D01*
X105052857Y-67032285D01*
X105148095Y-67032285D01*
X105290952Y-67079904D01*
X105862380Y-67651333D01*
X105862380Y-67032285D01*
%TO.C,F3*%
X66087666Y-79896571D02*
X65754333Y-79896571D01*
X65754333Y-80420380D02*
X65754333Y-79420380D01*
X66230523Y-79420380D01*
X66516238Y-79420380D02*
X67135285Y-79420380D01*
X66801952Y-79801333D01*
X66944809Y-79801333D01*
X67040047Y-79848952D01*
X67087666Y-79896571D01*
X67135285Y-79991809D01*
X67135285Y-80229904D01*
X67087666Y-80325142D01*
X67040047Y-80372761D01*
X66944809Y-80420380D01*
X66659095Y-80420380D01*
X66563857Y-80372761D01*
X66516238Y-80325142D01*
%TO.C,C1*%
X81621333Y-77421254D02*
X81573714Y-77468873D01*
X81430857Y-77516492D01*
X81335619Y-77516492D01*
X81192761Y-77468873D01*
X81097523Y-77373635D01*
X81049904Y-77278397D01*
X81002285Y-77087921D01*
X81002285Y-76945064D01*
X81049904Y-76754588D01*
X81097523Y-76659350D01*
X81192761Y-76564112D01*
X81335619Y-76516492D01*
X81430857Y-76516492D01*
X81573714Y-76564112D01*
X81621333Y-76611731D01*
X82573714Y-77516492D02*
X82002285Y-77516492D01*
X82288000Y-77516492D02*
X82288000Y-76516492D01*
X82192761Y-76659350D01*
X82097523Y-76754588D01*
X82002285Y-76802207D01*
%TO.C,J2*%
X91284466Y-68794380D02*
X91284466Y-69508666D01*
X91236847Y-69651523D01*
X91141609Y-69746761D01*
X90998752Y-69794380D01*
X90903514Y-69794380D01*
X91713038Y-68889619D02*
X91760657Y-68842000D01*
X91855895Y-68794380D01*
X92093990Y-68794380D01*
X92189228Y-68842000D01*
X92236847Y-68889619D01*
X92284466Y-68984857D01*
X92284466Y-69080095D01*
X92236847Y-69222952D01*
X91665419Y-69794380D01*
X92284466Y-69794380D01*
X90474800Y-65746380D02*
X90474800Y-65984476D01*
X90236704Y-65889238D02*
X90474800Y-65984476D01*
X90712895Y-65889238D01*
X90331942Y-66174952D02*
X90474800Y-65984476D01*
X90617657Y-66174952D01*
%TO.C,IC1*%
X72556809Y-77541380D02*
X72556809Y-76541380D01*
X73604428Y-77446142D02*
X73556809Y-77493761D01*
X73413952Y-77541380D01*
X73318714Y-77541380D01*
X73175857Y-77493761D01*
X73080619Y-77398523D01*
X73033000Y-77303285D01*
X72985380Y-77112809D01*
X72985380Y-76969952D01*
X73033000Y-76779476D01*
X73080619Y-76684238D01*
X73175857Y-76589000D01*
X73318714Y-76541380D01*
X73413952Y-76541380D01*
X73556809Y-76589000D01*
X73604428Y-76636619D01*
X74556809Y-77541380D02*
X73985380Y-77541380D01*
X74271095Y-77541380D02*
X74271095Y-76541380D01*
X74175857Y-76684238D01*
X74080619Y-76779476D01*
X73985380Y-76827095D01*
D11*
%TO.C,C4*%
X76890000Y-95864000D02*
X75462000Y-95864000D01*
X75433000Y-97504000D02*
X73411000Y-97504000D01*
X73382000Y-95703000D02*
X71911000Y-95703000D01*
X76248000Y-96944000D02*
X75462000Y-96944000D01*
X73382000Y-97384000D02*
X73171000Y-97384000D01*
X76517000Y-96624000D02*
X75462000Y-96624000D01*
X73382000Y-95824000D02*
X71942000Y-95824000D01*
X73382000Y-96504000D02*
X72247000Y-96504000D01*
X76751000Y-96224000D02*
X75462000Y-96224000D01*
X74706000Y-97704000D02*
X74138000Y-97704000D01*
X73382000Y-97304000D02*
X73039000Y-97304000D01*
X73382000Y-96424000D02*
X72198000Y-96424000D01*
X75099000Y-97624000D02*
X73745000Y-97624000D01*
X76286000Y-96904000D02*
X75462000Y-96904000D01*
X75227000Y-97584000D02*
X73617000Y-97584000D01*
X76165000Y-97024000D02*
X75462000Y-97024000D01*
X73382000Y-97064000D02*
X72723000Y-97064000D01*
X75976000Y-97184000D02*
X75462000Y-97184000D01*
X76597000Y-96504000D02*
X75462000Y-96504000D01*
X73382000Y-95944000D02*
X71980000Y-95944000D01*
X76998000Y-95263000D02*
X71846000Y-95263000D01*
X76426000Y-96744000D02*
X75462000Y-96744000D01*
X76950000Y-95623000D02*
X75462000Y-95623000D01*
X76690000Y-96344000D02*
X75462000Y-96344000D01*
X76622000Y-96464000D02*
X75462000Y-96464000D01*
X76995000Y-95303000D02*
X71849000Y-95303000D01*
X73382000Y-97104000D02*
X72769000Y-97104000D01*
X76787000Y-96144000D02*
X75462000Y-96144000D01*
X76207000Y-96984000D02*
X75462000Y-96984000D01*
X76965000Y-95543000D02*
X75462000Y-95543000D01*
X76987000Y-95383000D02*
X75462000Y-95383000D01*
X73382000Y-97184000D02*
X72868000Y-97184000D01*
X73382000Y-95984000D02*
X71994000Y-95984000D01*
X75922000Y-97224000D02*
X75462000Y-97224000D01*
X73382000Y-96024000D02*
X72008000Y-96024000D01*
X76669000Y-96384000D02*
X75462000Y-96384000D01*
X76075000Y-97104000D02*
X75462000Y-97104000D01*
X76991000Y-95343000D02*
X75462000Y-95343000D01*
X73382000Y-96864000D02*
X72521000Y-96864000D01*
X77002000Y-95143000D02*
X71842000Y-95143000D01*
X73382000Y-96064000D02*
X72024000Y-96064000D01*
X75805000Y-97304000D02*
X75462000Y-97304000D01*
X73382000Y-95543000D02*
X71879000Y-95543000D01*
X76544000Y-96584000D02*
X75462000Y-96584000D01*
X75673000Y-97384000D02*
X75462000Y-97384000D01*
X76393000Y-96784000D02*
X75462000Y-96784000D01*
X73382000Y-95423000D02*
X71861000Y-95423000D01*
X73382000Y-95783000D02*
X71931000Y-95783000D01*
X76027000Y-97144000D02*
X75462000Y-97144000D01*
X76942000Y-95663000D02*
X75462000Y-95663000D01*
X73382000Y-96384000D02*
X72175000Y-96384000D01*
X73382000Y-97264000D02*
X72979000Y-97264000D01*
X76359000Y-96824000D02*
X75462000Y-96824000D01*
X73382000Y-95343000D02*
X71853000Y-95343000D01*
X76983000Y-95423000D02*
X75462000Y-95423000D01*
X76820000Y-96064000D02*
X75462000Y-96064000D01*
X73382000Y-96544000D02*
X72273000Y-96544000D01*
X73382000Y-95623000D02*
X71894000Y-95623000D01*
X76850000Y-95984000D02*
X75462000Y-95984000D01*
X73382000Y-96464000D02*
X72222000Y-96464000D01*
X73382000Y-96184000D02*
X72074000Y-96184000D01*
X73382000Y-95463000D02*
X71866000Y-95463000D01*
X73382000Y-96984000D02*
X72637000Y-96984000D01*
X73382000Y-96584000D02*
X72300000Y-96584000D01*
X73382000Y-96144000D02*
X72057000Y-96144000D01*
X74940000Y-97664000D02*
X73904000Y-97664000D01*
X73382000Y-96784000D02*
X72451000Y-96784000D01*
X76877000Y-95904000D02*
X75462000Y-95904000D01*
X73382000Y-95663000D02*
X71902000Y-95663000D01*
X76571000Y-96544000D02*
X75462000Y-96544000D01*
X73382000Y-96904000D02*
X72558000Y-96904000D01*
X73382000Y-97144000D02*
X72817000Y-97144000D01*
X75897000Y-92298225D02*
X75897000Y-92798225D01*
X76804000Y-96104000D02*
X75462000Y-96104000D01*
X75741000Y-97344000D02*
X75462000Y-97344000D01*
X76913000Y-95783000D02*
X75462000Y-95783000D01*
X75865000Y-97264000D02*
X75462000Y-97264000D01*
X76646000Y-96424000D02*
X75462000Y-96424000D01*
X73382000Y-95383000D02*
X71857000Y-95383000D01*
X77002000Y-95103000D02*
X71842000Y-95103000D01*
X76147000Y-92548225D02*
X75647000Y-92548225D01*
X73382000Y-96704000D02*
X72387000Y-96704000D01*
X76732000Y-96264000D02*
X75462000Y-96264000D01*
X76121000Y-97064000D02*
X75462000Y-97064000D01*
X76323000Y-96864000D02*
X75462000Y-96864000D01*
X73382000Y-96264000D02*
X72112000Y-96264000D01*
X73382000Y-97024000D02*
X72679000Y-97024000D01*
X77000000Y-95223000D02*
X71844000Y-95223000D01*
X73382000Y-95864000D02*
X71954000Y-95864000D01*
X73382000Y-96104000D02*
X72040000Y-96104000D01*
X73382000Y-96944000D02*
X72596000Y-96944000D01*
X73382000Y-96744000D02*
X72418000Y-96744000D01*
X73382000Y-95583000D02*
X71886000Y-95583000D01*
X76712000Y-96304000D02*
X75462000Y-96304000D01*
X73382000Y-95503000D02*
X71872000Y-95503000D01*
X75600000Y-97424000D02*
X73244000Y-97424000D01*
X76933000Y-95703000D02*
X75462000Y-95703000D01*
X76457000Y-96704000D02*
X75462000Y-96704000D01*
X73382000Y-97224000D02*
X72922000Y-97224000D01*
X77001000Y-95183000D02*
X71843000Y-95183000D01*
X73382000Y-95743000D02*
X71921000Y-95743000D01*
X73382000Y-97344000D02*
X73103000Y-97344000D01*
X75337000Y-97544000D02*
X73507000Y-97544000D01*
X76836000Y-96024000D02*
X75462000Y-96024000D01*
X73382000Y-96824000D02*
X72485000Y-96824000D01*
X76923000Y-95743000D02*
X75462000Y-95743000D01*
X76770000Y-96184000D02*
X75462000Y-96184000D01*
X73382000Y-96224000D02*
X72093000Y-96224000D01*
X73382000Y-96624000D02*
X72327000Y-96624000D01*
X76958000Y-95583000D02*
X75462000Y-95583000D01*
X73382000Y-96664000D02*
X72357000Y-96664000D01*
X73382000Y-96344000D02*
X72154000Y-96344000D01*
X75520000Y-97464000D02*
X73324000Y-97464000D01*
X73382000Y-95904000D02*
X71967000Y-95904000D01*
X76902000Y-95824000D02*
X75462000Y-95824000D01*
X76978000Y-95463000D02*
X75462000Y-95463000D01*
X76972000Y-95503000D02*
X75462000Y-95503000D01*
X73382000Y-96304000D02*
X72132000Y-96304000D01*
X76864000Y-95944000D02*
X75462000Y-95944000D01*
X76487000Y-96664000D02*
X75462000Y-96664000D01*
X77042000Y-95103000D02*
G75*
G03*
X77042000Y-95103000I-2620000J0D01*
G01*
%TO.C,D6*%
X118974000Y-92937000D02*
X121259000Y-92937000D01*
X121259000Y-91467000D02*
X118974000Y-91467000D01*
X118974000Y-91467000D02*
X118974000Y-92937000D01*
%TO.C,R3*%
X103236500Y-64405742D02*
X103236500Y-64880258D01*
X104281500Y-64405742D02*
X104281500Y-64880258D01*
%TO.C,L3*%
X62251000Y-78920758D02*
X62251000Y-80591242D01*
X60431000Y-78920758D02*
X60431000Y-80591242D01*
%TO.C,L1*%
X86889000Y-75542758D02*
X86889000Y-77213242D01*
X85069000Y-75542758D02*
X85069000Y-77213242D01*
%TO.C,R2*%
X82179900Y-64075542D02*
X82179900Y-64550058D01*
X83224900Y-64075542D02*
X83224900Y-64550058D01*
%TO.C,R5*%
X123935258Y-68565500D02*
X123460742Y-68565500D01*
X123935258Y-69610500D02*
X123460742Y-69610500D01*
%TO.C,J1*%
X65201800Y-75920600D02*
X65201800Y-70129400D01*
X65201800Y-70129400D02*
X58445400Y-70129400D01*
X58445400Y-70129400D02*
X58445400Y-75920600D01*
X58445400Y-75920600D02*
X65201800Y-75920600D01*
X62204600Y-76620000D02*
G75*
G03*
X62204600Y-76620000I-381000J0D01*
G01*
%TO.C,U1*%
X97066100Y-74320400D02*
X99021900Y-74320400D01*
X99021900Y-73007261D02*
X99021900Y-72280739D01*
X99021900Y-70967600D02*
X97066100Y-70967600D01*
%TO.C,C7*%
X82766888Y-88924000D02*
X82766888Y-90375000D01*
X84047888Y-86185000D02*
X84047888Y-86844000D01*
X84527888Y-86969000D02*
X84527888Y-88799000D01*
X82326888Y-88924000D02*
X82326888Y-90453000D01*
X83487888Y-85709000D02*
X83487888Y-86844000D01*
X83607888Y-85789000D02*
X83607888Y-86844000D01*
X82366888Y-85319000D02*
X82366888Y-86844000D01*
X83767888Y-85913000D02*
X83767888Y-86844000D01*
X83207888Y-88924000D02*
X83207888Y-90213000D01*
X83687888Y-85849000D02*
X83687888Y-86844000D01*
X83447888Y-88924000D02*
X83447888Y-90084000D01*
X84287888Y-88924000D02*
X84287888Y-89267000D01*
X83807888Y-85947000D02*
X83807888Y-86844000D01*
X84167888Y-88924000D02*
X84167888Y-89438000D01*
X84567888Y-87079000D02*
X84567888Y-88689000D01*
X84327888Y-88924000D02*
X84327888Y-89203000D01*
X84247888Y-86441000D02*
X84247888Y-86844000D01*
X83047888Y-88924000D02*
X83047888Y-90282000D01*
X84327888Y-86565000D02*
X84327888Y-86844000D01*
X83607888Y-88924000D02*
X83607888Y-89979000D01*
X83327888Y-85616000D02*
X83327888Y-86844000D01*
X82406888Y-88924000D02*
X82406888Y-90445000D01*
X83527888Y-88924000D02*
X83527888Y-90033000D01*
X79282113Y-86409000D02*
X79782113Y-86409000D01*
X83047888Y-85486000D02*
X83047888Y-86844000D01*
X82406888Y-85323000D02*
X82406888Y-86844000D01*
X82967888Y-85456000D02*
X82967888Y-86844000D01*
X82486888Y-88924000D02*
X82486888Y-90434000D01*
X82446888Y-88924000D02*
X82446888Y-90440000D01*
X82206888Y-85306000D02*
X82206888Y-90462000D01*
X83407888Y-85660000D02*
X83407888Y-86844000D01*
X82486888Y-85334000D02*
X82486888Y-86844000D01*
X83927888Y-86058000D02*
X83927888Y-86844000D01*
X83887888Y-88924000D02*
X83887888Y-89748000D01*
X82686888Y-85373000D02*
X82686888Y-86844000D01*
X83927888Y-88924000D02*
X83927888Y-89710000D01*
X84407888Y-86706000D02*
X84407888Y-89062000D01*
X82606888Y-85356000D02*
X82606888Y-86844000D01*
X83287888Y-88924000D02*
X83287888Y-90174000D01*
X82766888Y-85393000D02*
X82766888Y-86844000D01*
X83327888Y-88924000D02*
X83327888Y-90152000D01*
X83487888Y-88924000D02*
X83487888Y-90059000D01*
X83527888Y-85735000D02*
X83527888Y-86844000D01*
X84447888Y-86786000D02*
X84447888Y-88982000D01*
X82967888Y-88924000D02*
X82967888Y-90312000D01*
X82726888Y-85383000D02*
X82726888Y-86844000D01*
X83407888Y-88924000D02*
X83407888Y-90108000D01*
X83167888Y-88924000D02*
X83167888Y-90232000D01*
X83247888Y-88924000D02*
X83247888Y-90194000D01*
X82526888Y-88924000D02*
X82526888Y-90427000D01*
X84247888Y-88924000D02*
X84247888Y-89327000D01*
X84487888Y-86873000D02*
X84487888Y-88895000D01*
X83207888Y-85555000D02*
X83207888Y-86844000D01*
X83287888Y-85594000D02*
X83287888Y-86844000D01*
X83087888Y-88924000D02*
X83087888Y-90266000D01*
X82807888Y-85404000D02*
X82807888Y-86844000D01*
X83007888Y-85470000D02*
X83007888Y-86844000D01*
X83807888Y-88924000D02*
X83807888Y-89821000D01*
X82566888Y-88924000D02*
X82566888Y-90420000D01*
X83567888Y-88924000D02*
X83567888Y-90006000D01*
X82286888Y-85311000D02*
X82286888Y-90457000D01*
X84167888Y-86330000D02*
X84167888Y-86844000D01*
X82526888Y-85341000D02*
X82526888Y-86844000D01*
X83367888Y-88924000D02*
X83367888Y-90131000D01*
X82887888Y-85429000D02*
X82887888Y-86844000D01*
X82646888Y-88924000D02*
X82646888Y-90404000D01*
X83847888Y-88924000D02*
X83847888Y-89785000D01*
X82086888Y-85304000D02*
X82086888Y-90464000D01*
X82566888Y-85348000D02*
X82566888Y-86844000D01*
X84007888Y-86141000D02*
X84007888Y-86844000D01*
X83767888Y-88924000D02*
X83767888Y-89855000D01*
X83647888Y-88924000D02*
X83647888Y-89949000D01*
X84647888Y-87366000D02*
X84647888Y-88402000D01*
X82646888Y-85364000D02*
X82646888Y-86844000D01*
X82446888Y-85328000D02*
X82446888Y-86844000D01*
X84047888Y-88924000D02*
X84047888Y-89583000D01*
X82246888Y-85308000D02*
X82246888Y-90460000D01*
X83967888Y-88924000D02*
X83967888Y-89669000D01*
X83727888Y-85880000D02*
X83727888Y-86844000D01*
X82927888Y-85442000D02*
X82927888Y-86844000D01*
X84127888Y-86279000D02*
X84127888Y-86844000D01*
X83167888Y-85536000D02*
X83167888Y-86844000D01*
X82887888Y-88924000D02*
X82887888Y-90339000D01*
X84687888Y-87600000D02*
X84687888Y-88168000D01*
X79532113Y-86159000D02*
X79532113Y-86659000D01*
X82847888Y-85416000D02*
X82847888Y-86844000D01*
X83567888Y-85762000D02*
X83567888Y-86844000D01*
X83247888Y-85574000D02*
X83247888Y-86844000D01*
X84007888Y-88924000D02*
X84007888Y-89627000D01*
X84287888Y-86501000D02*
X84287888Y-86844000D01*
X84207888Y-88924000D02*
X84207888Y-89384000D01*
X82686888Y-88924000D02*
X82686888Y-90395000D01*
X82927888Y-88924000D02*
X82927888Y-90326000D01*
X83967888Y-86099000D02*
X83967888Y-86844000D01*
X83647888Y-85819000D02*
X83647888Y-86844000D01*
X84207888Y-86384000D02*
X84207888Y-86844000D01*
X84607888Y-87207000D02*
X84607888Y-88561000D01*
X83007888Y-88924000D02*
X83007888Y-90298000D01*
X82606888Y-88924000D02*
X82606888Y-90412000D01*
X82166888Y-85305000D02*
X82166888Y-90463000D01*
X83847888Y-85983000D02*
X83847888Y-86844000D01*
X82366888Y-88924000D02*
X82366888Y-90449000D01*
X84367888Y-86633000D02*
X84367888Y-86844000D01*
X82726888Y-88924000D02*
X82726888Y-90385000D01*
X83727888Y-88924000D02*
X83727888Y-89888000D01*
X83447888Y-85684000D02*
X83447888Y-86844000D01*
X82126888Y-85304000D02*
X82126888Y-90464000D01*
X83127888Y-88924000D02*
X83127888Y-90249000D01*
X84087888Y-86231000D02*
X84087888Y-86844000D01*
X83127888Y-85519000D02*
X83127888Y-86844000D01*
X84127888Y-88924000D02*
X84127888Y-89489000D01*
X84367888Y-88924000D02*
X84367888Y-89135000D01*
X83687888Y-88924000D02*
X83687888Y-89919000D01*
X83367888Y-85637000D02*
X83367888Y-86844000D01*
X83087888Y-85502000D02*
X83087888Y-86844000D01*
X82326888Y-85315000D02*
X82326888Y-86844000D01*
X82847888Y-88924000D02*
X82847888Y-90352000D01*
X83887888Y-86020000D02*
X83887888Y-86844000D01*
X82807888Y-88924000D02*
X82807888Y-90364000D01*
X84087888Y-88924000D02*
X84087888Y-89537000D01*
X84706888Y-87884000D02*
G75*
G03*
X84706888Y-87884000I-2620000J0D01*
G01*
%TO.C,J3*%
X65303400Y-83515200D02*
X58547000Y-83515200D01*
X65303400Y-91846400D02*
X65303400Y-83515200D01*
X58547000Y-91846400D02*
X65303400Y-91846400D01*
X58547000Y-83515200D02*
X58547000Y-91846400D01*
X64211200Y-90220800D02*
G75*
G03*
X64211200Y-90220800I-381000J0D01*
G01*
%TO.C,J4*%
X127939800Y-78587600D02*
X127939800Y-70256400D01*
X121183400Y-70256400D02*
X121183400Y-78587600D01*
X121183400Y-78587600D02*
X127939800Y-78587600D01*
X127939800Y-70256400D02*
X121183400Y-70256400D01*
X123037600Y-71882000D02*
G75*
G03*
X123037600Y-71882000I-381000J0D01*
G01*
%TO.C,R4*%
X123744258Y-80278500D02*
X123269742Y-80278500D01*
X123744258Y-79233500D02*
X123269742Y-79233500D01*
%TO.C,C13*%
X112997000Y-78766000D02*
X104937000Y-78766000D01*
X104937000Y-83286000D02*
X112997000Y-83286000D01*
X104937000Y-78766000D02*
X104937000Y-83286000D01*
%TO.C,F1*%
X65818936Y-78761000D02*
X67023064Y-78761000D01*
X65818936Y-76941000D02*
X67023064Y-76941000D01*
%TO.C,C3*%
X108942000Y-66634000D02*
X107426000Y-66634000D01*
X111536000Y-68355000D02*
X111022000Y-68355000D01*
X108942000Y-67075000D02*
X107527000Y-67075000D01*
X112104000Y-67755000D02*
X111022000Y-67755000D01*
X108942000Y-67035000D02*
X107514000Y-67035000D01*
X108942000Y-67675000D02*
X107807000Y-67675000D01*
X108942000Y-67595000D02*
X107758000Y-67595000D01*
X108942000Y-68435000D02*
X108539000Y-68435000D01*
X108942000Y-67915000D02*
X107978000Y-67915000D01*
X108942000Y-67755000D02*
X107860000Y-67755000D01*
X108942000Y-67555000D02*
X107735000Y-67555000D01*
X111808000Y-68115000D02*
X111022000Y-68115000D01*
X108942000Y-68275000D02*
X108329000Y-68275000D01*
X108942000Y-67235000D02*
X107584000Y-67235000D01*
X108942000Y-66714000D02*
X107439000Y-66714000D01*
X111986000Y-67915000D02*
X111022000Y-67915000D01*
X112558000Y-66434000D02*
X107406000Y-66434000D01*
X108942000Y-66554000D02*
X107417000Y-66554000D01*
X112561000Y-66354000D02*
X107403000Y-66354000D01*
X112510000Y-66794000D02*
X111022000Y-66794000D01*
X108942000Y-66995000D02*
X107502000Y-66995000D01*
X111080000Y-68635000D02*
X108884000Y-68635000D01*
X108942000Y-68195000D02*
X108239000Y-68195000D01*
X108942000Y-68395000D02*
X108482000Y-68395000D01*
X108942000Y-67395000D02*
X107653000Y-67395000D01*
X112424000Y-67115000D02*
X111022000Y-67115000D01*
X110993000Y-68675000D02*
X108971000Y-68675000D01*
X108942000Y-66674000D02*
X107432000Y-66674000D01*
X108942000Y-67955000D02*
X108011000Y-67955000D01*
X108942000Y-66914000D02*
X107481000Y-66914000D01*
X112555000Y-66474000D02*
X107409000Y-66474000D01*
X112562000Y-66274000D02*
X107402000Y-66274000D01*
X112532000Y-66674000D02*
X111022000Y-66674000D01*
X111587000Y-68315000D02*
X111022000Y-68315000D01*
X112272000Y-67475000D02*
X111022000Y-67475000D01*
X111846000Y-68075000D02*
X111022000Y-68075000D01*
X108942000Y-67515000D02*
X107714000Y-67515000D01*
X108942000Y-66594000D02*
X107421000Y-66594000D01*
X108942000Y-67795000D02*
X107887000Y-67795000D01*
X108942000Y-67875000D02*
X107947000Y-67875000D01*
X108942000Y-68115000D02*
X108156000Y-68115000D01*
X111707000Y-63719225D02*
X111207000Y-63719225D01*
X112017000Y-67875000D02*
X111022000Y-67875000D01*
X108942000Y-67155000D02*
X107554000Y-67155000D01*
X112525000Y-66714000D02*
X111022000Y-66714000D01*
X108942000Y-67355000D02*
X107634000Y-67355000D01*
X112560000Y-66394000D02*
X107404000Y-66394000D01*
X112250000Y-67515000D02*
X111022000Y-67515000D01*
X108942000Y-67715000D02*
X107833000Y-67715000D01*
X108942000Y-68035000D02*
X108081000Y-68035000D01*
X112347000Y-67315000D02*
X111022000Y-67315000D01*
X112206000Y-67595000D02*
X111022000Y-67595000D01*
X111365000Y-68475000D02*
X111022000Y-68475000D01*
X112330000Y-67355000D02*
X111022000Y-67355000D01*
X110266000Y-68875000D02*
X109698000Y-68875000D01*
X110897000Y-68715000D02*
X109067000Y-68715000D01*
X112502000Y-66834000D02*
X111022000Y-66834000D01*
X112157000Y-67675000D02*
X111022000Y-67675000D01*
X112396000Y-67195000D02*
X111022000Y-67195000D01*
X111301000Y-68515000D02*
X111022000Y-68515000D01*
X108942000Y-66834000D02*
X107462000Y-66834000D01*
X111767000Y-68155000D02*
X111022000Y-68155000D01*
X108942000Y-67115000D02*
X107540000Y-67115000D01*
X112292000Y-67435000D02*
X111022000Y-67435000D01*
X108942000Y-67435000D02*
X107672000Y-67435000D01*
X108942000Y-68075000D02*
X108118000Y-68075000D01*
X112364000Y-67275000D02*
X111022000Y-67275000D01*
X112538000Y-66634000D02*
X111022000Y-66634000D01*
X108942000Y-66514000D02*
X107413000Y-66514000D01*
X112473000Y-66954000D02*
X111022000Y-66954000D01*
X108942000Y-66754000D02*
X107446000Y-66754000D01*
X108942000Y-67275000D02*
X107600000Y-67275000D01*
X108942000Y-68355000D02*
X108428000Y-68355000D01*
X112462000Y-66995000D02*
X111022000Y-66995000D01*
X112562000Y-66314000D02*
X107402000Y-66314000D01*
X112437000Y-67075000D02*
X111022000Y-67075000D01*
X111160000Y-68595000D02*
X108804000Y-68595000D01*
X108942000Y-68155000D02*
X108197000Y-68155000D01*
X108942000Y-68555000D02*
X108731000Y-68555000D01*
X111883000Y-68035000D02*
X111022000Y-68035000D01*
X110500000Y-68835000D02*
X109464000Y-68835000D01*
X112380000Y-67235000D02*
X111022000Y-67235000D01*
X112229000Y-67555000D02*
X111022000Y-67555000D01*
X111425000Y-68435000D02*
X111022000Y-68435000D01*
X108942000Y-68315000D02*
X108377000Y-68315000D01*
X108942000Y-67835000D02*
X107917000Y-67835000D01*
X111457000Y-63469225D02*
X111457000Y-63969225D01*
X112518000Y-66754000D02*
X111022000Y-66754000D01*
X112450000Y-67035000D02*
X111022000Y-67035000D01*
X112493000Y-66874000D02*
X111022000Y-66874000D01*
X112047000Y-67835000D02*
X111022000Y-67835000D01*
X111953000Y-67955000D02*
X111022000Y-67955000D01*
X111725000Y-68195000D02*
X111022000Y-68195000D01*
X111681000Y-68235000D02*
X111022000Y-68235000D01*
X112311000Y-67395000D02*
X111022000Y-67395000D01*
X108942000Y-66794000D02*
X107454000Y-66794000D01*
X108942000Y-68235000D02*
X108283000Y-68235000D01*
X112077000Y-67795000D02*
X111022000Y-67795000D01*
X110659000Y-68795000D02*
X109305000Y-68795000D01*
X108942000Y-67995000D02*
X108045000Y-67995000D01*
X112131000Y-67715000D02*
X111022000Y-67715000D01*
X111635000Y-68275000D02*
X111022000Y-68275000D01*
X110787000Y-68755000D02*
X109177000Y-68755000D01*
X108942000Y-66954000D02*
X107491000Y-66954000D01*
X112182000Y-67635000D02*
X111022000Y-67635000D01*
X112410000Y-67155000D02*
X111022000Y-67155000D01*
X108942000Y-67195000D02*
X107568000Y-67195000D01*
X111233000Y-68555000D02*
X111022000Y-68555000D01*
X112547000Y-66554000D02*
X111022000Y-66554000D01*
X108942000Y-68515000D02*
X108663000Y-68515000D01*
X112483000Y-66914000D02*
X111022000Y-66914000D01*
X112543000Y-66594000D02*
X111022000Y-66594000D01*
X108942000Y-67635000D02*
X107782000Y-67635000D01*
X112551000Y-66514000D02*
X111022000Y-66514000D01*
X108942000Y-66874000D02*
X107471000Y-66874000D01*
X108942000Y-68475000D02*
X108599000Y-68475000D01*
X108942000Y-67475000D02*
X107692000Y-67475000D01*
X111919000Y-67995000D02*
X111022000Y-67995000D01*
X108942000Y-67315000D02*
X107617000Y-67315000D01*
X111482000Y-68395000D02*
X111022000Y-68395000D01*
X112602000Y-66274000D02*
G75*
G03*
X112602000Y-66274000I-2620000J0D01*
G01*
%TO.C,R1*%
X115203500Y-92261458D02*
X115203500Y-91786942D01*
X114158500Y-92261458D02*
X114158500Y-91786942D01*
%TO.C,C10*%
X114011000Y-95022000D02*
X105951000Y-95022000D01*
X105951000Y-99542000D02*
X114011000Y-99542000D01*
X114011000Y-99542000D02*
X114011000Y-95022000D01*
%TO.C,D4*%
X119723000Y-69823000D02*
X122008000Y-69823000D01*
X122008000Y-69823000D02*
X122008000Y-68353000D01*
X122008000Y-68353000D02*
X119723000Y-68353000D01*
%TO.C,C8*%
X110370252Y-86641000D02*
X109847748Y-86641000D01*
X110370252Y-88111000D02*
X109847748Y-88111000D01*
%TO.C,C14*%
X85137800Y-65863600D02*
X85137800Y-65039600D01*
X84457800Y-67708600D02*
X84457800Y-66098600D01*
X84777800Y-65863600D02*
X84777800Y-65460600D01*
X85297800Y-65863600D02*
X85297800Y-64899600D01*
X86298800Y-65863600D02*
X86298800Y-64402600D01*
X85417800Y-68998600D02*
X85417800Y-67943600D01*
X84577800Y-68001600D02*
X84577800Y-65805600D01*
X86458800Y-69439600D02*
X86458800Y-67943600D01*
X86338800Y-65863600D02*
X86338800Y-64392600D01*
X85737800Y-69193600D02*
X85737800Y-67943600D01*
X86698800Y-69472600D02*
X86698800Y-67943600D01*
X85337800Y-68938600D02*
X85337800Y-67943600D01*
X85297800Y-68907600D02*
X85297800Y-67943600D01*
X86177800Y-65863600D02*
X86177800Y-64435600D01*
X85417800Y-65863600D02*
X85417800Y-64808600D01*
X85817800Y-69232600D02*
X85817800Y-67943600D01*
X85497800Y-65863600D02*
X85497800Y-64754600D01*
X85177800Y-68804600D02*
X85177800Y-67943600D01*
X84337800Y-67187600D02*
X84337800Y-66619600D01*
X85977800Y-65863600D02*
X85977800Y-64505600D01*
X86338800Y-69414600D02*
X86338800Y-67943600D01*
X84497800Y-67818600D02*
X84497800Y-65988600D01*
X84977800Y-65863600D02*
X84977800Y-65204600D01*
X84537800Y-67914600D02*
X84537800Y-65892600D01*
X85777800Y-69213600D02*
X85777800Y-67943600D01*
X86217800Y-65863600D02*
X86217800Y-64423600D01*
X85337800Y-65863600D02*
X85337800Y-64868600D01*
X85377800Y-68968600D02*
X85377800Y-67943600D01*
X86778800Y-69479600D02*
X86778800Y-64327600D01*
X86858800Y-69482600D02*
X86858800Y-64324600D01*
X84857800Y-68457600D02*
X84857800Y-67943600D01*
X85657800Y-65863600D02*
X85657800Y-64656600D01*
X86097800Y-69345600D02*
X86097800Y-67943600D01*
X86658800Y-69468600D02*
X86658800Y-67943600D01*
X85457800Y-65863600D02*
X85457800Y-64781600D01*
X86658800Y-65863600D02*
X86658800Y-64338600D01*
X84777800Y-68346600D02*
X84777800Y-67943600D01*
X86258800Y-69394600D02*
X86258800Y-67943600D01*
X84897800Y-65863600D02*
X84897800Y-65298600D01*
X85257800Y-68874600D02*
X85257800Y-67943600D01*
X86378800Y-65863600D02*
X86378800Y-64383600D01*
X86137800Y-69358600D02*
X86137800Y-67943600D01*
X85017800Y-65863600D02*
X85017800Y-65160600D01*
X86578800Y-65863600D02*
X86578800Y-64347600D01*
X84657800Y-65863600D02*
X84657800Y-65652600D01*
X85937800Y-69285600D02*
X85937800Y-67943600D01*
X85977800Y-69301600D02*
X85977800Y-67943600D01*
X85217800Y-65863600D02*
X85217800Y-64966600D01*
X84617800Y-68081600D02*
X84617800Y-65725600D01*
X85617800Y-65863600D02*
X85617800Y-64679600D01*
X85657800Y-69150600D02*
X85657800Y-67943600D01*
X86458800Y-65863600D02*
X86458800Y-64367600D01*
X85017800Y-68646600D02*
X85017800Y-67943600D01*
X85497800Y-69052600D02*
X85497800Y-67943600D01*
X85177800Y-65863600D02*
X85177800Y-65002600D01*
X85097800Y-65863600D02*
X85097800Y-65077600D01*
X86057800Y-65863600D02*
X86057800Y-64475600D01*
X86097800Y-65863600D02*
X86097800Y-64461600D01*
X86498800Y-65863600D02*
X86498800Y-64360600D01*
X85897800Y-65863600D02*
X85897800Y-64538600D01*
X85137800Y-68767600D02*
X85137800Y-67943600D01*
X86898800Y-69483600D02*
X86898800Y-64323600D01*
X85537800Y-65863600D02*
X85537800Y-64728600D01*
X86618800Y-69464600D02*
X86618800Y-67943600D01*
X86017800Y-69317600D02*
X86017800Y-67943600D01*
X85577800Y-65863600D02*
X85577800Y-64703600D01*
X85617800Y-69127600D02*
X85617800Y-67943600D01*
X86137800Y-65863600D02*
X86137800Y-64448600D01*
X86618800Y-65863600D02*
X86618800Y-64342600D01*
X86057800Y-69331600D02*
X86057800Y-67943600D01*
X84817800Y-65863600D02*
X84817800Y-65403600D01*
X84697800Y-68222600D02*
X84697800Y-67943600D01*
X85897800Y-69268600D02*
X85897800Y-67943600D01*
X84817800Y-68403600D02*
X84817800Y-67943600D01*
X84697800Y-65863600D02*
X84697800Y-65584600D01*
X86578800Y-69459600D02*
X86578800Y-67943600D01*
X85257800Y-65863600D02*
X85257800Y-64932600D01*
X89743575Y-68378600D02*
X89243575Y-68378600D01*
X86738800Y-69476600D02*
X86738800Y-64330600D01*
X85097800Y-68729600D02*
X85097800Y-67943600D01*
X86378800Y-69423600D02*
X86378800Y-67943600D01*
X85737800Y-65863600D02*
X85737800Y-64613600D01*
X85577800Y-69103600D02*
X85577800Y-67943600D01*
X84937800Y-68556600D02*
X84937800Y-67943600D01*
X85697800Y-69171600D02*
X85697800Y-67943600D01*
X85777800Y-65863600D02*
X85777800Y-64593600D01*
X86418800Y-65863600D02*
X86418800Y-64375600D01*
X85817800Y-65863600D02*
X85817800Y-64574600D01*
X85217800Y-68840600D02*
X85217800Y-67943600D01*
X84977800Y-68602600D02*
X84977800Y-67943600D01*
X84857800Y-65863600D02*
X84857800Y-65349600D01*
X86538800Y-65863600D02*
X86538800Y-64353600D01*
X84377800Y-67421600D02*
X84377800Y-66385600D01*
X85937800Y-65863600D02*
X85937800Y-64521600D01*
X85377800Y-65863600D02*
X85377800Y-64838600D01*
X85537800Y-69078600D02*
X85537800Y-67943600D01*
X86217800Y-69383600D02*
X86217800Y-67943600D01*
X86258800Y-65863600D02*
X86258800Y-64412600D01*
X84737800Y-65863600D02*
X84737800Y-65520600D01*
X85057800Y-65863600D02*
X85057800Y-65118600D01*
X84937800Y-65863600D02*
X84937800Y-65250600D01*
X86538800Y-69453600D02*
X86538800Y-67943600D01*
X85457800Y-69025600D02*
X85457800Y-67943600D01*
X86298800Y-69404600D02*
X86298800Y-67943600D01*
X84737800Y-68286600D02*
X84737800Y-67943600D01*
X86498800Y-69446600D02*
X86498800Y-67943600D01*
X84657800Y-68154600D02*
X84657800Y-67943600D01*
X86698800Y-65863600D02*
X86698800Y-64334600D01*
X86818800Y-69481600D02*
X86818800Y-64325600D01*
X86177800Y-69371600D02*
X86177800Y-67943600D01*
X84417800Y-67580600D02*
X84417800Y-66226600D01*
X86938800Y-69483600D02*
X86938800Y-64323600D01*
X85857800Y-69251600D02*
X85857800Y-67943600D01*
X85057800Y-68688600D02*
X85057800Y-67943600D01*
X89493575Y-68628600D02*
X89493575Y-68128600D01*
X85697800Y-65863600D02*
X85697800Y-64635600D01*
X86418800Y-69431600D02*
X86418800Y-67943600D01*
X86017800Y-65863600D02*
X86017800Y-64489600D01*
X85857800Y-65863600D02*
X85857800Y-64555600D01*
X84897800Y-68508600D02*
X84897800Y-67943600D01*
X89558800Y-66903600D02*
G75*
G03*
X89558800Y-66903600I-2620000J0D01*
G01*
%TO.C,C5*%
X76147000Y-78262113D02*
X75647000Y-78262113D01*
X76923000Y-81456888D02*
X75462000Y-81456888D01*
X75520000Y-83177888D02*
X73324000Y-83177888D01*
X76983000Y-81136888D02*
X75462000Y-81136888D01*
X73382000Y-82697888D02*
X72637000Y-82697888D01*
X73382000Y-81496888D02*
X71931000Y-81496888D01*
X73382000Y-81296888D02*
X71886000Y-81296888D01*
X76787000Y-81857888D02*
X75462000Y-81857888D01*
X73382000Y-81577888D02*
X71954000Y-81577888D01*
X76544000Y-82297888D02*
X75462000Y-82297888D01*
X76622000Y-82177888D02*
X75462000Y-82177888D01*
X73382000Y-82217888D02*
X72247000Y-82217888D01*
X75337000Y-83257888D02*
X73507000Y-83257888D01*
X73382000Y-82057888D02*
X72154000Y-82057888D01*
X76487000Y-82377888D02*
X75462000Y-82377888D01*
X73382000Y-82337888D02*
X72327000Y-82337888D01*
X76359000Y-82537888D02*
X75462000Y-82537888D01*
X76027000Y-82857888D02*
X75462000Y-82857888D01*
X73382000Y-82017888D02*
X72132000Y-82017888D01*
X73382000Y-81737888D02*
X72008000Y-81737888D01*
X73382000Y-81376888D02*
X71902000Y-81376888D01*
X73382000Y-82977888D02*
X72979000Y-82977888D01*
X76393000Y-82497888D02*
X75462000Y-82497888D01*
X73382000Y-83057888D02*
X73103000Y-83057888D01*
X76978000Y-81176888D02*
X75462000Y-81176888D01*
X75741000Y-83057888D02*
X75462000Y-83057888D01*
X76972000Y-81216888D02*
X75462000Y-81216888D01*
X76850000Y-81697888D02*
X75462000Y-81697888D01*
X76987000Y-81096888D02*
X75462000Y-81096888D01*
X76890000Y-81577888D02*
X75462000Y-81577888D01*
X73382000Y-82617888D02*
X72558000Y-82617888D01*
X73382000Y-82177888D02*
X72222000Y-82177888D01*
X76958000Y-81296888D02*
X75462000Y-81296888D01*
X73382000Y-82817888D02*
X72769000Y-82817888D01*
X73382000Y-82537888D02*
X72485000Y-82537888D01*
X73382000Y-81657888D02*
X71980000Y-81657888D01*
X74706000Y-83417888D02*
X74138000Y-83417888D01*
X76597000Y-82217888D02*
X75462000Y-82217888D01*
X77002000Y-80816888D02*
X71842000Y-80816888D01*
X73382000Y-81697888D02*
X71994000Y-81697888D01*
X73382000Y-81456888D02*
X71921000Y-81456888D01*
X73382000Y-81176888D02*
X71866000Y-81176888D01*
X76165000Y-82737888D02*
X75462000Y-82737888D01*
X76877000Y-81617888D02*
X75462000Y-81617888D01*
X73382000Y-83017888D02*
X73039000Y-83017888D01*
X73382000Y-82737888D02*
X72679000Y-82737888D01*
X75673000Y-83097888D02*
X75462000Y-83097888D01*
X73382000Y-82657888D02*
X72596000Y-82657888D01*
X76286000Y-82617888D02*
X75462000Y-82617888D01*
X75099000Y-83337888D02*
X73745000Y-83337888D01*
X73382000Y-81937888D02*
X72093000Y-81937888D01*
X76965000Y-81256888D02*
X75462000Y-81256888D01*
X73382000Y-82417888D02*
X72387000Y-82417888D01*
X73382000Y-82857888D02*
X72817000Y-82857888D01*
X73382000Y-81817888D02*
X72040000Y-81817888D01*
X75897000Y-78012113D02*
X75897000Y-78512113D01*
X76950000Y-81336888D02*
X75462000Y-81336888D01*
X76902000Y-81537888D02*
X75462000Y-81537888D01*
X75600000Y-83137888D02*
X73244000Y-83137888D01*
X76457000Y-82417888D02*
X75462000Y-82417888D01*
X76712000Y-82017888D02*
X75462000Y-82017888D01*
X73382000Y-82137888D02*
X72198000Y-82137888D01*
X75865000Y-82977888D02*
X75462000Y-82977888D01*
X73382000Y-81096888D02*
X71857000Y-81096888D01*
X75976000Y-82897888D02*
X75462000Y-82897888D01*
X76669000Y-82097888D02*
X75462000Y-82097888D01*
X73382000Y-82457888D02*
X72418000Y-82457888D01*
X76820000Y-81777888D02*
X75462000Y-81777888D01*
X75805000Y-83017888D02*
X75462000Y-83017888D01*
X76207000Y-82697888D02*
X75462000Y-82697888D01*
X76690000Y-82057888D02*
X75462000Y-82057888D01*
X73382000Y-81256888D02*
X71879000Y-81256888D01*
X75922000Y-82937888D02*
X75462000Y-82937888D01*
X73382000Y-82097888D02*
X72175000Y-82097888D01*
X73382000Y-82777888D02*
X72723000Y-82777888D01*
X74940000Y-83377888D02*
X73904000Y-83377888D01*
X76991000Y-81056888D02*
X75462000Y-81056888D01*
X76913000Y-81496888D02*
X75462000Y-81496888D01*
X76517000Y-82337888D02*
X75462000Y-82337888D01*
X73382000Y-82897888D02*
X72868000Y-82897888D01*
X76942000Y-81376888D02*
X75462000Y-81376888D01*
X73382000Y-82577888D02*
X72521000Y-82577888D01*
X77001000Y-80896888D02*
X71843000Y-80896888D01*
X76323000Y-82577888D02*
X75462000Y-82577888D01*
X76571000Y-82257888D02*
X75462000Y-82257888D01*
X76998000Y-80976888D02*
X71846000Y-80976888D01*
X76075000Y-82817888D02*
X75462000Y-82817888D01*
X73382000Y-81336888D02*
X71894000Y-81336888D01*
X76995000Y-81016888D02*
X71849000Y-81016888D01*
X76751000Y-81937888D02*
X75462000Y-81937888D01*
X76646000Y-82137888D02*
X75462000Y-82137888D01*
X73382000Y-81777888D02*
X72024000Y-81777888D01*
X75433000Y-83217888D02*
X73411000Y-83217888D01*
X73382000Y-81416888D02*
X71911000Y-81416888D01*
X73382000Y-82497888D02*
X72451000Y-82497888D01*
X76426000Y-82457888D02*
X75462000Y-82457888D01*
X73382000Y-81897888D02*
X72074000Y-81897888D01*
X73382000Y-81977888D02*
X72112000Y-81977888D01*
X77000000Y-80936888D02*
X71844000Y-80936888D01*
X76804000Y-81817888D02*
X75462000Y-81817888D01*
X76933000Y-81416888D02*
X75462000Y-81416888D01*
X73382000Y-82297888D02*
X72300000Y-82297888D01*
X76732000Y-81977888D02*
X75462000Y-81977888D01*
X73382000Y-82377888D02*
X72357000Y-82377888D01*
X73382000Y-81617888D02*
X71967000Y-81617888D01*
X73382000Y-82937888D02*
X72922000Y-82937888D01*
X73382000Y-81216888D02*
X71872000Y-81216888D01*
X75227000Y-83297888D02*
X73617000Y-83297888D01*
X73382000Y-81857888D02*
X72057000Y-81857888D01*
X76864000Y-81657888D02*
X75462000Y-81657888D01*
X77002000Y-80856888D02*
X71842000Y-80856888D01*
X73382000Y-81136888D02*
X71861000Y-81136888D01*
X76836000Y-81737888D02*
X75462000Y-81737888D01*
X76248000Y-82657888D02*
X75462000Y-82657888D01*
X73382000Y-81537888D02*
X71942000Y-81537888D01*
X73382000Y-83097888D02*
X73171000Y-83097888D01*
X76770000Y-81897888D02*
X75462000Y-81897888D01*
X73382000Y-82257888D02*
X72273000Y-82257888D01*
X76121000Y-82777888D02*
X75462000Y-82777888D01*
X73382000Y-81056888D02*
X71853000Y-81056888D01*
X77042000Y-80816888D02*
G75*
G03*
X77042000Y-80816888I-2620000J0D01*
G01*
%TO.C,F2*%
X66326936Y-92562000D02*
X67531064Y-92562000D01*
X66326936Y-94382000D02*
X67531064Y-94382000D01*
%TO.C,D1*%
X81967400Y-66611600D02*
X81967400Y-68896600D01*
X83437400Y-68896600D02*
X83437400Y-66611600D01*
X81967400Y-68896600D02*
X83437400Y-68896600D01*
D12*
%TO.C,U5*%
X107017000Y-77836000D02*
X110917000Y-77836000D01*
X107017000Y-72786000D02*
X110917000Y-72786000D01*
D13*
X105027000Y-73006000D02*
G75*
G03*
X105027000Y-73006000I-100000J0D01*
G01*
D11*
%TO.C,C9*%
X106439580Y-87886000D02*
X106158420Y-87886000D01*
X106439580Y-86866000D02*
X106158420Y-86866000D01*
D12*
%TO.C,U4*%
X107652000Y-89042000D02*
X111552000Y-89042000D01*
X107652000Y-94092000D02*
X111552000Y-94092000D01*
D13*
X105662000Y-89262000D02*
G75*
G03*
X105662000Y-89262000I-100000J0D01*
G01*
D12*
%TO.C,DN2*%
X93355000Y-83285000D02*
X93355000Y-79275000D01*
X103495000Y-83285000D02*
X103495000Y-79275000D01*
D13*
X93470000Y-85720000D02*
G75*
G03*
X93470000Y-85720000I-100000J0D01*
G01*
D11*
%TO.C,L2*%
X116099000Y-68125758D02*
X116099000Y-69796242D01*
X114279000Y-68125758D02*
X114279000Y-69796242D01*
%TO.C,C2*%
X89384000Y-75114000D02*
X88359000Y-75114000D01*
X92915000Y-74233000D02*
X91464000Y-74233000D01*
X92997000Y-73753000D02*
X87851000Y-73753000D01*
X89384000Y-74594000D02*
X88059000Y-74594000D01*
X92361000Y-75274000D02*
X91464000Y-75274000D01*
X92250000Y-75394000D02*
X91464000Y-75394000D01*
X89384000Y-75834000D02*
X89173000Y-75834000D01*
X93004000Y-73553000D02*
X87844000Y-73553000D01*
X91807000Y-75754000D02*
X91464000Y-75754000D01*
X91435000Y-75954000D02*
X89413000Y-75954000D01*
X92822000Y-74514000D02*
X91464000Y-74514000D01*
X92852000Y-74434000D02*
X91464000Y-74434000D01*
X92952000Y-74073000D02*
X91464000Y-74073000D01*
X89384000Y-74153000D02*
X87913000Y-74153000D01*
X92993000Y-73793000D02*
X91464000Y-73793000D01*
X89384000Y-75314000D02*
X88523000Y-75314000D01*
X93000000Y-73713000D02*
X87848000Y-73713000D01*
X89384000Y-75514000D02*
X88725000Y-75514000D01*
X93004000Y-73593000D02*
X87844000Y-73593000D01*
X92980000Y-73913000D02*
X91464000Y-73913000D01*
X90708000Y-76154000D02*
X90140000Y-76154000D01*
X89384000Y-75394000D02*
X88598000Y-75394000D01*
X89384000Y-75354000D02*
X88560000Y-75354000D01*
X92974000Y-73953000D02*
X91464000Y-73953000D01*
X91339000Y-75994000D02*
X89509000Y-75994000D01*
X93002000Y-73673000D02*
X87846000Y-73673000D01*
X89384000Y-75034000D02*
X88302000Y-75034000D01*
X92288000Y-75354000D02*
X91464000Y-75354000D01*
X89384000Y-73793000D02*
X87855000Y-73793000D01*
X89384000Y-73993000D02*
X87881000Y-73993000D01*
X89384000Y-74394000D02*
X87982000Y-74394000D01*
X92029000Y-75594000D02*
X91464000Y-75594000D01*
X92546000Y-75034000D02*
X91464000Y-75034000D01*
X92714000Y-74754000D02*
X91464000Y-74754000D01*
X92879000Y-74354000D02*
X91464000Y-74354000D01*
X91229000Y-76034000D02*
X89619000Y-76034000D01*
X89384000Y-75554000D02*
X88771000Y-75554000D01*
X92944000Y-74113000D02*
X91464000Y-74113000D01*
X92960000Y-74033000D02*
X91464000Y-74033000D01*
X91522000Y-75914000D02*
X89326000Y-75914000D01*
X89384000Y-74714000D02*
X88114000Y-74714000D01*
X91743000Y-75794000D02*
X91464000Y-75794000D01*
X89384000Y-74113000D02*
X87904000Y-74113000D01*
X89384000Y-74914000D02*
X88224000Y-74914000D01*
X89384000Y-74354000D02*
X87969000Y-74354000D01*
X89384000Y-73873000D02*
X87863000Y-73873000D01*
X91899000Y-70748225D02*
X91899000Y-71248225D01*
X92789000Y-74594000D02*
X91464000Y-74594000D01*
X92648000Y-74874000D02*
X91464000Y-74874000D01*
X92806000Y-74554000D02*
X91464000Y-74554000D01*
X92935000Y-74153000D02*
X91464000Y-74153000D01*
X92904000Y-74274000D02*
X91464000Y-74274000D01*
X89384000Y-74314000D02*
X87956000Y-74314000D01*
X89384000Y-74554000D02*
X88042000Y-74554000D01*
X89384000Y-74674000D02*
X88095000Y-74674000D01*
X89384000Y-74834000D02*
X88177000Y-74834000D01*
X92123000Y-75514000D02*
X91464000Y-75514000D01*
X89384000Y-75274000D02*
X88487000Y-75274000D01*
X89384000Y-75194000D02*
X88420000Y-75194000D01*
X92989000Y-73833000D02*
X91464000Y-73833000D01*
X91978000Y-75634000D02*
X91464000Y-75634000D01*
X92395000Y-75234000D02*
X91464000Y-75234000D01*
X89384000Y-74073000D02*
X87896000Y-74073000D01*
X89384000Y-74033000D02*
X87888000Y-74033000D01*
X91602000Y-75874000D02*
X89246000Y-75874000D01*
X92838000Y-74474000D02*
X91464000Y-74474000D01*
X92573000Y-74994000D02*
X91464000Y-74994000D01*
X91867000Y-75714000D02*
X91464000Y-75714000D01*
X89384000Y-74954000D02*
X88249000Y-74954000D01*
X89384000Y-75074000D02*
X88329000Y-75074000D01*
X92692000Y-74794000D02*
X91464000Y-74794000D01*
X92325000Y-75314000D02*
X91464000Y-75314000D01*
X89384000Y-75634000D02*
X88870000Y-75634000D01*
X89384000Y-74794000D02*
X88156000Y-74794000D01*
X92734000Y-74714000D02*
X91464000Y-74714000D01*
X89384000Y-75594000D02*
X88819000Y-75594000D01*
X92967000Y-73993000D02*
X91464000Y-73993000D01*
X89384000Y-74754000D02*
X88134000Y-74754000D01*
X92753000Y-74674000D02*
X91464000Y-74674000D01*
X89384000Y-75234000D02*
X88453000Y-75234000D01*
X89384000Y-74874000D02*
X88200000Y-74874000D01*
X92925000Y-74193000D02*
X91464000Y-74193000D01*
X92519000Y-75074000D02*
X91464000Y-75074000D01*
X91924000Y-75674000D02*
X91464000Y-75674000D01*
X91101000Y-76074000D02*
X89747000Y-76074000D01*
X91675000Y-75834000D02*
X91464000Y-75834000D01*
X89384000Y-74233000D02*
X87933000Y-74233000D01*
X92459000Y-75154000D02*
X91464000Y-75154000D01*
X92866000Y-74394000D02*
X91464000Y-74394000D01*
X89384000Y-74274000D02*
X87944000Y-74274000D01*
X92149000Y-70998225D02*
X91649000Y-70998225D01*
X93003000Y-73633000D02*
X87845000Y-73633000D01*
X92077000Y-75554000D02*
X91464000Y-75554000D01*
X92167000Y-75474000D02*
X91464000Y-75474000D01*
X89384000Y-75434000D02*
X88639000Y-75434000D01*
X89384000Y-74193000D02*
X87923000Y-74193000D01*
X92892000Y-74314000D02*
X91464000Y-74314000D01*
X92772000Y-74634000D02*
X91464000Y-74634000D01*
X89384000Y-73953000D02*
X87874000Y-73953000D01*
X92489000Y-75114000D02*
X91464000Y-75114000D01*
X89384000Y-75714000D02*
X88981000Y-75714000D01*
X92209000Y-75434000D02*
X91464000Y-75434000D01*
X89384000Y-75794000D02*
X89105000Y-75794000D01*
X89384000Y-73833000D02*
X87859000Y-73833000D01*
X89384000Y-75674000D02*
X88924000Y-75674000D01*
X89384000Y-75754000D02*
X89041000Y-75754000D01*
X89384000Y-74994000D02*
X88275000Y-74994000D01*
X89384000Y-74634000D02*
X88076000Y-74634000D01*
X90942000Y-76114000D02*
X89906000Y-76114000D01*
X89384000Y-75474000D02*
X88681000Y-75474000D01*
X92624000Y-74914000D02*
X91464000Y-74914000D01*
X89384000Y-74434000D02*
X87996000Y-74434000D01*
X92599000Y-74954000D02*
X91464000Y-74954000D01*
X92671000Y-74834000D02*
X91464000Y-74834000D01*
X92985000Y-73873000D02*
X91464000Y-73873000D01*
X89384000Y-74514000D02*
X88026000Y-74514000D01*
X89384000Y-75154000D02*
X88389000Y-75154000D01*
X89384000Y-74474000D02*
X88010000Y-74474000D01*
X92428000Y-75194000D02*
X91464000Y-75194000D01*
X89384000Y-73913000D02*
X87868000Y-73913000D01*
X93044000Y-73553000D02*
G75*
G03*
X93044000Y-73553000I-2620000J0D01*
G01*
%TO.C,D3*%
X121132000Y-79021000D02*
X118847000Y-79021000D01*
X118847000Y-79021000D02*
X118847000Y-80491000D01*
X118847000Y-80491000D02*
X121132000Y-80491000D01*
D13*
%TO.C,BR1*%
X73124000Y-90729112D02*
X69624000Y-90729112D01*
X73124000Y-86005112D02*
X73124000Y-90729112D01*
X69624000Y-90729112D02*
X69624000Y-86005112D01*
X75324000Y-90392112D02*
X73474000Y-90392112D01*
X69624000Y-86005112D02*
X73124000Y-86005112D01*
D11*
%TO.C,D5*%
X119469000Y-82142000D02*
X121754000Y-82142000D01*
X121754000Y-80672000D02*
X119469000Y-80672000D01*
X121754000Y-82142000D02*
X121754000Y-80672000D01*
D12*
%TO.C,DN1*%
X93228000Y-91975000D02*
X93228000Y-95985000D01*
X103368000Y-91975000D02*
X103368000Y-95985000D01*
D13*
X103453000Y-89540000D02*
G75*
G03*
X103453000Y-89540000I-100000J0D01*
G01*
D11*
%TO.C,R7*%
X123808258Y-80884500D02*
X123333742Y-80884500D01*
X123808258Y-81929500D02*
X123333742Y-81929500D01*
%TO.C,C11*%
X114937000Y-74308580D02*
X114937000Y-74027420D01*
X113917000Y-74308580D02*
X113917000Y-74027420D01*
%TO.C,J6*%
X81343500Y-69557700D02*
X81343500Y-61302700D01*
X69481700Y-61302700D02*
X69481700Y-69557700D01*
X69481700Y-69557700D02*
X81343500Y-69557700D01*
X81343500Y-61302700D02*
X69481700Y-61302700D01*
X68084700Y-63729700D02*
G75*
G03*
X68084700Y-63729700I-381000J0D01*
G01*
%TO.C,J5*%
X127889200Y-82575400D02*
X121132800Y-82575400D01*
X121132800Y-82575400D02*
X121132800Y-90906600D01*
X127889200Y-90906600D02*
X127889200Y-82575400D01*
X121132800Y-90906600D02*
X127889200Y-90906600D01*
X122987000Y-84201000D02*
G75*
G03*
X122987000Y-84201000I-381000J0D01*
G01*
%TO.C,U3*%
X79875100Y-84010500D02*
X90670100Y-84010500D01*
X79875100Y-79057500D02*
X79875100Y-84010500D01*
X90670100Y-84010500D02*
X90670100Y-79057500D01*
X90670100Y-79057500D02*
X79875100Y-79057500D01*
X78300300Y-82042000D02*
G75*
G03*
X78300300Y-82042000I-203200J0D01*
G01*
%TO.C,C12*%
X102248580Y-76456000D02*
X101967420Y-76456000D01*
X102248580Y-75436000D02*
X101967420Y-75436000D01*
%TO.C,U2*%
X90416100Y-98361500D02*
X90416100Y-93408500D01*
X79621100Y-93408500D02*
X79621100Y-98361500D01*
X90416100Y-93408500D02*
X79621100Y-93408500D01*
X79621100Y-98361500D02*
X90416100Y-98361500D01*
X78046300Y-96393000D02*
G75*
G03*
X78046300Y-96393000I-203200J0D01*
G01*
%TO.C,R6*%
X123871258Y-92724500D02*
X123396742Y-92724500D01*
X123871258Y-91679500D02*
X123396742Y-91679500D01*
%TO.C,C6*%
X90448000Y-86463000D02*
X91557000Y-86463000D01*
X90448000Y-87464000D02*
X91951000Y-87464000D01*
X86835000Y-87704000D02*
X91981000Y-87704000D01*
X87908000Y-85783000D02*
X88368000Y-85783000D01*
X87140000Y-86663000D02*
X88368000Y-86663000D01*
X87373000Y-86303000D02*
X88368000Y-86303000D01*
X87161000Y-86623000D02*
X88368000Y-86623000D01*
X86872000Y-87424000D02*
X88368000Y-87424000D01*
X90448000Y-86023000D02*
X91193000Y-86023000D01*
X87043000Y-86863000D02*
X88368000Y-86863000D01*
X90448000Y-87624000D02*
X91973000Y-87624000D01*
X87933000Y-90708775D02*
X87933000Y-90208775D01*
X86829000Y-87824000D02*
X91987000Y-87824000D01*
X90448000Y-86103000D02*
X91272000Y-86103000D01*
X87854000Y-85823000D02*
X88368000Y-85823000D01*
X87665000Y-85983000D02*
X88368000Y-85983000D01*
X87683000Y-90458775D02*
X88183000Y-90458775D01*
X87755000Y-85903000D02*
X88368000Y-85903000D01*
X86980000Y-87023000D02*
X88368000Y-87023000D01*
X90448000Y-86423000D02*
X91530000Y-86423000D01*
X90448000Y-86903000D02*
X91790000Y-86903000D01*
X87060000Y-86823000D02*
X88368000Y-86823000D01*
X88603000Y-85423000D02*
X90213000Y-85423000D01*
X86897000Y-87304000D02*
X88368000Y-87304000D01*
X90448000Y-85863000D02*
X91013000Y-85863000D01*
X90448000Y-86583000D02*
X91632000Y-86583000D01*
X88310000Y-85543000D02*
X90506000Y-85543000D01*
X90448000Y-87424000D02*
X91944000Y-87424000D01*
X87010000Y-86943000D02*
X88368000Y-86943000D01*
X90448000Y-85703000D02*
X90791000Y-85703000D01*
X90448000Y-87344000D02*
X91928000Y-87344000D01*
X86907000Y-87264000D02*
X88368000Y-87264000D01*
X86994000Y-86983000D02*
X88368000Y-86983000D01*
X89124000Y-85303000D02*
X89692000Y-85303000D01*
X88731000Y-85383000D02*
X90085000Y-85383000D01*
X87544000Y-86103000D02*
X88368000Y-86103000D01*
X87582000Y-86063000D02*
X88368000Y-86063000D01*
X90448000Y-87504000D02*
X91958000Y-87504000D01*
X87286000Y-86423000D02*
X88368000Y-86423000D01*
X90448000Y-86503000D02*
X91583000Y-86503000D01*
X88890000Y-85343000D02*
X89926000Y-85343000D01*
X87471000Y-86183000D02*
X88368000Y-86183000D01*
X86888000Y-87344000D02*
X88368000Y-87344000D01*
X87437000Y-86223000D02*
X88368000Y-86223000D01*
X90448000Y-86623000D02*
X91655000Y-86623000D01*
X86928000Y-87183000D02*
X88368000Y-87183000D01*
X90448000Y-86383000D02*
X91503000Y-86383000D01*
X87313000Y-86383000D02*
X88368000Y-86383000D01*
X86865000Y-87464000D02*
X88368000Y-87464000D01*
X86828000Y-87904000D02*
X91988000Y-87904000D01*
X90448000Y-85943000D02*
X91107000Y-85943000D01*
X87623000Y-86023000D02*
X88368000Y-86023000D01*
X87404000Y-86263000D02*
X88368000Y-86263000D01*
X90448000Y-86823000D02*
X91756000Y-86823000D01*
X90448000Y-86743000D02*
X91718000Y-86743000D01*
X86852000Y-87544000D02*
X88368000Y-87544000D01*
X90448000Y-86863000D02*
X91773000Y-86863000D01*
X87184000Y-86583000D02*
X88368000Y-86583000D01*
X90448000Y-85743000D02*
X90851000Y-85743000D01*
X90448000Y-87544000D02*
X91964000Y-87544000D01*
X86832000Y-87744000D02*
X91984000Y-87744000D01*
X90448000Y-86063000D02*
X91234000Y-86063000D01*
X90448000Y-87384000D02*
X91936000Y-87384000D01*
X87507000Y-86143000D02*
X88368000Y-86143000D01*
X90448000Y-86303000D02*
X91443000Y-86303000D01*
X90448000Y-85823000D02*
X90962000Y-85823000D01*
X87208000Y-86543000D02*
X88368000Y-86543000D01*
X90448000Y-87304000D02*
X91919000Y-87304000D01*
X90448000Y-86663000D02*
X91676000Y-86663000D01*
X88493000Y-85463000D02*
X90323000Y-85463000D01*
X90448000Y-87264000D02*
X91909000Y-87264000D01*
X87709000Y-85943000D02*
X88368000Y-85943000D01*
X86880000Y-87384000D02*
X88368000Y-87384000D01*
X88397000Y-85503000D02*
X90419000Y-85503000D01*
X86940000Y-87143000D02*
X88368000Y-87143000D01*
X90448000Y-86143000D02*
X91309000Y-86143000D01*
X90448000Y-86983000D02*
X91822000Y-86983000D01*
X90448000Y-87103000D02*
X91863000Y-87103000D01*
X88025000Y-85703000D02*
X88368000Y-85703000D01*
X87233000Y-86503000D02*
X88368000Y-86503000D01*
X87026000Y-86903000D02*
X88368000Y-86903000D01*
X90448000Y-87143000D02*
X91876000Y-87143000D01*
X88157000Y-85623000D02*
X88368000Y-85623000D01*
X88230000Y-85583000D02*
X90586000Y-85583000D01*
X90448000Y-87023000D02*
X91836000Y-87023000D01*
X86858000Y-87504000D02*
X88368000Y-87504000D01*
X90448000Y-86343000D02*
X91473000Y-86343000D01*
X86839000Y-87664000D02*
X88368000Y-87664000D01*
X87965000Y-85743000D02*
X88368000Y-85743000D01*
X87259000Y-86463000D02*
X88368000Y-86463000D01*
X90448000Y-85903000D02*
X91061000Y-85903000D01*
X90448000Y-87664000D02*
X91977000Y-87664000D01*
X87079000Y-86783000D02*
X88368000Y-86783000D01*
X90448000Y-86263000D02*
X91412000Y-86263000D01*
X86830000Y-87784000D02*
X91986000Y-87784000D01*
X86917000Y-87224000D02*
X88368000Y-87224000D01*
X86953000Y-87103000D02*
X88368000Y-87103000D01*
X87098000Y-86743000D02*
X88368000Y-86743000D01*
X88089000Y-85663000D02*
X88368000Y-85663000D01*
X87118000Y-86703000D02*
X88368000Y-86703000D01*
X86847000Y-87584000D02*
X88368000Y-87584000D01*
X90448000Y-87224000D02*
X91899000Y-87224000D01*
X87343000Y-86343000D02*
X88368000Y-86343000D01*
X90448000Y-86783000D02*
X91737000Y-86783000D01*
X90448000Y-87584000D02*
X91969000Y-87584000D01*
X90448000Y-86223000D02*
X91379000Y-86223000D01*
X90448000Y-85623000D02*
X90659000Y-85623000D01*
X90448000Y-85663000D02*
X90727000Y-85663000D01*
X87803000Y-85863000D02*
X88368000Y-85863000D01*
X90448000Y-87183000D02*
X91888000Y-87183000D01*
X86828000Y-87864000D02*
X91988000Y-87864000D01*
X90448000Y-85983000D02*
X91151000Y-85983000D01*
X90448000Y-86543000D02*
X91608000Y-86543000D01*
X90448000Y-87063000D02*
X91850000Y-87063000D01*
X90448000Y-86943000D02*
X91806000Y-86943000D01*
X90448000Y-86703000D02*
X91698000Y-86703000D01*
X90448000Y-86183000D02*
X91345000Y-86183000D01*
X86966000Y-87063000D02*
X88368000Y-87063000D01*
X86843000Y-87624000D02*
X88368000Y-87624000D01*
X90448000Y-85783000D02*
X90908000Y-85783000D01*
X92028000Y-87904000D02*
G75*
G03*
X92028000Y-87904000I-2620000J0D01*
G01*
%TO.C,D2*%
X103024000Y-69303000D02*
X104494000Y-69303000D01*
X103024000Y-67018000D02*
X103024000Y-69303000D01*
X104494000Y-69303000D02*
X104494000Y-67018000D01*
%TO.C,F3*%
X65818936Y-80878000D02*
X67023064Y-80878000D01*
X65818936Y-82698000D02*
X67023064Y-82698000D01*
%TO.C,C1*%
X82828000Y-72567112D02*
X84186000Y-72567112D01*
X82828000Y-72007112D02*
X83883000Y-72007112D01*
X82828000Y-71327112D02*
X83171000Y-71327112D01*
X80234000Y-71447112D02*
X80748000Y-71447112D01*
X79423000Y-72487112D02*
X80748000Y-72487112D01*
X82828000Y-71927112D02*
X83823000Y-71927112D01*
X79390000Y-72567112D02*
X80748000Y-72567112D01*
X79440000Y-72447112D02*
X80748000Y-72447112D01*
X79520000Y-72287112D02*
X80748000Y-72287112D01*
X79238000Y-73128112D02*
X80748000Y-73128112D01*
X79212000Y-73368112D02*
X84364000Y-73368112D01*
X79564000Y-72207112D02*
X80748000Y-72207112D01*
X82828000Y-72287112D02*
X84056000Y-72287112D01*
X79851000Y-71807112D02*
X80748000Y-71807112D01*
X79308000Y-72807112D02*
X80748000Y-72807112D01*
X82828000Y-71367112D02*
X83231000Y-71367112D01*
X79208000Y-73488112D02*
X84368000Y-73488112D01*
X82828000Y-71287112D02*
X83107000Y-71287112D01*
X82828000Y-71447112D02*
X83342000Y-71447112D01*
X82828000Y-72807112D02*
X84268000Y-72807112D01*
X82828000Y-71607112D02*
X83531000Y-71607112D01*
X80183000Y-71487112D02*
X80748000Y-71487112D01*
X80003000Y-71647112D02*
X80748000Y-71647112D01*
X80610000Y-71207112D02*
X82966000Y-71207112D01*
X82828000Y-72767112D02*
X84256000Y-72767112D01*
X82828000Y-72888112D02*
X84289000Y-72888112D01*
X79277000Y-72928112D02*
X80748000Y-72928112D01*
X82828000Y-72127112D02*
X83963000Y-72127112D01*
X82828000Y-71487112D02*
X83393000Y-71487112D01*
X82828000Y-71567112D02*
X83487000Y-71567112D01*
X79268000Y-72968112D02*
X80748000Y-72968112D01*
X82828000Y-71647112D02*
X83573000Y-71647112D01*
X81504000Y-70927112D02*
X82072000Y-70927112D01*
X82828000Y-71247112D02*
X83039000Y-71247112D01*
X79666000Y-72047112D02*
X80748000Y-72047112D01*
X80405000Y-71327112D02*
X80748000Y-71327112D01*
X82828000Y-71967112D02*
X83853000Y-71967112D01*
X79208000Y-73528112D02*
X84368000Y-73528112D01*
X79962000Y-71687112D02*
X80748000Y-71687112D01*
X82828000Y-71527112D02*
X83441000Y-71527112D01*
X81111000Y-71007112D02*
X82465000Y-71007112D01*
X82828000Y-72968112D02*
X84308000Y-72968112D01*
X80045000Y-71607112D02*
X80748000Y-71607112D01*
X82828000Y-72247112D02*
X84035000Y-72247112D01*
X79297000Y-72848112D02*
X80748000Y-72848112D01*
X79209000Y-73448112D02*
X84367000Y-73448112D01*
X82828000Y-73088112D02*
X84331000Y-73088112D01*
X80288000Y-71407112D02*
X80748000Y-71407112D01*
X79406000Y-72527112D02*
X80748000Y-72527112D01*
X79223000Y-73248112D02*
X80748000Y-73248112D01*
X80537000Y-71247112D02*
X80748000Y-71247112D01*
X82828000Y-72327112D02*
X84078000Y-72327112D01*
X79232000Y-73168112D02*
X80748000Y-73168112D01*
X82828000Y-71687112D02*
X83614000Y-71687112D01*
X81270000Y-70967112D02*
X82306000Y-70967112D01*
X79260000Y-73008112D02*
X80748000Y-73008112D01*
X82828000Y-72167112D02*
X83988000Y-72167112D01*
X79320000Y-72767112D02*
X80748000Y-72767112D01*
X79887000Y-71767112D02*
X80748000Y-71767112D01*
X79346000Y-72687112D02*
X80748000Y-72687112D01*
X82828000Y-71887112D02*
X83792000Y-71887112D01*
X79817000Y-71847112D02*
X80748000Y-71847112D01*
X80690000Y-71167112D02*
X82886000Y-71167112D01*
X80469000Y-71287112D02*
X80748000Y-71287112D01*
X79588000Y-72167112D02*
X80748000Y-72167112D01*
X82828000Y-72367112D02*
X84098000Y-72367112D01*
X82828000Y-72447112D02*
X84136000Y-72447112D01*
X79639000Y-72087112D02*
X80748000Y-72087112D01*
X80063000Y-76082887D02*
X80563000Y-76082887D01*
X79459000Y-72407112D02*
X80748000Y-72407112D01*
X82828000Y-73168112D02*
X84344000Y-73168112D01*
X82828000Y-72607112D02*
X84202000Y-72607112D01*
X82828000Y-71727112D02*
X83652000Y-71727112D01*
X79498000Y-72327112D02*
X80748000Y-72327112D01*
X82828000Y-73288112D02*
X84357000Y-73288112D01*
X79784000Y-71887112D02*
X80748000Y-71887112D01*
X79333000Y-72727112D02*
X80748000Y-72727112D01*
X82828000Y-72727112D02*
X84243000Y-72727112D01*
X80345000Y-71367112D02*
X80748000Y-71367112D01*
X82828000Y-72647112D02*
X84216000Y-72647112D01*
X82828000Y-72047112D02*
X83910000Y-72047112D01*
X79287000Y-72888112D02*
X80748000Y-72888112D01*
X79360000Y-72647112D02*
X80748000Y-72647112D01*
X79219000Y-73288112D02*
X80748000Y-73288112D01*
X82828000Y-72087112D02*
X83937000Y-72087112D01*
X80313000Y-76332887D02*
X80313000Y-75832887D01*
X82828000Y-73128112D02*
X84338000Y-73128112D01*
X79210000Y-73408112D02*
X84366000Y-73408112D01*
X79924000Y-71727112D02*
X80748000Y-71727112D01*
X82828000Y-72687112D02*
X84230000Y-72687112D01*
X79215000Y-73328112D02*
X84361000Y-73328112D01*
X79227000Y-73208112D02*
X80748000Y-73208112D01*
X80873000Y-71087112D02*
X82703000Y-71087112D01*
X82828000Y-71847112D02*
X83759000Y-71847112D01*
X80089000Y-71567112D02*
X80748000Y-71567112D01*
X82828000Y-72527112D02*
X84170000Y-72527112D01*
X82828000Y-73208112D02*
X84349000Y-73208112D01*
X80777000Y-71127112D02*
X82799000Y-71127112D01*
X80135000Y-71527112D02*
X80748000Y-71527112D01*
X79478000Y-72367112D02*
X80748000Y-72367112D01*
X79753000Y-71927112D02*
X80748000Y-71927112D01*
X79252000Y-73048112D02*
X80748000Y-73048112D01*
X82828000Y-73048112D02*
X84324000Y-73048112D01*
X82828000Y-72928112D02*
X84299000Y-72928112D01*
X79723000Y-71967112D02*
X80748000Y-71967112D01*
X79613000Y-72127112D02*
X80748000Y-72127112D01*
X82828000Y-72848112D02*
X84279000Y-72848112D01*
X79245000Y-73088112D02*
X80748000Y-73088112D01*
X82828000Y-71407112D02*
X83288000Y-71407112D01*
X82828000Y-71767112D02*
X83689000Y-71767112D01*
X82828000Y-72487112D02*
X84153000Y-72487112D01*
X80983000Y-71047112D02*
X82593000Y-71047112D01*
X82828000Y-73248112D02*
X84353000Y-73248112D01*
X82828000Y-72407112D02*
X84117000Y-72407112D01*
X82828000Y-71807112D02*
X83725000Y-71807112D01*
X79374000Y-72607112D02*
X80748000Y-72607112D01*
X79693000Y-72007112D02*
X80748000Y-72007112D01*
X82828000Y-73008112D02*
X84316000Y-73008112D01*
X82828000Y-72207112D02*
X84012000Y-72207112D01*
X79541000Y-72247112D02*
X80748000Y-72247112D01*
X84408000Y-73528112D02*
G75*
G03*
X84408000Y-73528112I-2620000J0D01*
G01*
%TO.C,J2*%
X91133800Y-61646999D02*
X91133800Y-68400999D01*
X102007800Y-61646999D02*
X91133800Y-61646999D01*
X91133800Y-68400999D02*
X102007800Y-68400999D01*
X102007800Y-68400999D02*
X102007800Y-61646999D01*
X90879800Y-65024000D02*
G75*
G03*
X90879800Y-65024000I-381000J0D01*
G01*
D13*
%TO.C,IC1*%
X71429000Y-75652000D02*
X71429000Y-70652000D01*
X75129000Y-75652000D02*
X71429000Y-75652000D01*
X71429000Y-70652000D02*
X75129000Y-70652000D01*
X77029000Y-75952000D02*
X75479000Y-75952000D01*
X75129000Y-70652000D02*
X75129000Y-75652000D01*
%TD*%
M02*
